<?xml version="1.0" standalone="no"?>
<!DOCTYPE svg PUBLIC "-//W3C//DTD SVG 1.1//EN" "http://www.w3.org/Graphics/SVG/1.1/DTD/svg11.dtd" >
<svg xmlns="http://www.w3.org/2000/svg" xmlns:xlink="http://www.w3.org/1999/xlink" version="1.1">
<metadata>
Created by FontForge 20170924 at Mon Mar  9 10:02:09 2020
 By www-data
Copyright 2013 The Exo 2 Project Authors (https://github.com/NDISCOVER/Exo-2.0)
</metadata>
<defs>
<font id="Exo2-Regular" horiz-adv-x="668" >
  <font-face 
    font-family="Exo 2"
    font-weight="400"
    font-stretch="normal"
    units-per-em="1000"
    panose-1="0 0 0 0 0 0 0 0 0 0"
    ascent="800"
    descent="-200"
    x-height="487"
    cap-height="690"
    bbox="-411 -275.244 1218 1051"
    underline-thickness="50"
    underline-position="-100"
    unicode-range="U+000D-FB02"
  />
<missing-glyph horiz-adv-x="624" 
d="M138 690v-690h-41v690h41zM527 690v-690h-41v690h41zM97 690h430v-41h-430v41zM97 41h430v-41h-430v41z" />
    <glyph glyph-name="f_f" unicode="ff" horiz-adv-x="711" 
d="M258 704q15 0 37 -0.5t45 -2t40 -4.5l-6 -63h-86q-48 0 -67.5 -16.5t-19.5 -65.5v-552h-85v562q0 45 15.5 77t47 48.5t79.5 16.5zM588 717q16 0 41 -0.5t51 -2t45 -4.5l-6 -63h-101q-48 0 -67 -19t-19 -63v-565h-86v574q0 46 14 77.5t45 48.5t83 17zM687 487v-67h-659v62
l93 5h566z" />
    <glyph glyph-name="f_f_i" unicode="ffi" horiz-adv-x="929" 
d="M251 704q14 0 36 -0.5t45.5 -2t40.5 -4.5l-7 -63h-85q-48 0 -67.5 -16.5t-19.5 -65.5v-552h-85v562q0 45 15.5 77t47 48.5t79.5 16.5zM773 487v-67h-745v62l93 5h652zM581 717q22 0 57.5 -1.5t61.5 -5.5v-63h-89q-48 0 -67.5 -20.5t-19.5 -71.5v-555h-85v564q0 49 14 83
t45 52t83 18zM847 487v-487h-84v487h84zM824 694q26 0 26 -26v-57q0 -26 -26 -26h-40q-25 0 -25 26v57q0 26 25 26h40z" />
    <glyph glyph-name="f_f_l" unicode="ffl" horiz-adv-x="1000" 
d="M258 704q15 0 37 -0.5t45 -2t40 -4.5l-6 -63h-86q-48 0 -67.5 -16.5t-19.5 -65.5v-552h-85v562q0 45 15.5 77t47 48.5t79.5 16.5zM588 717h42.5t59 -1t65.5 -2t62.5 -3.5t49.5 -5.5v-581q0 -33 17 -49.5t49 -16.5h47l10 -54q-9 -4 -25.5 -7t-34 -4.5t-29.5 -1.5
q-55 0 -87 30t-32 84v543h-164q-48 1 -67 -20t-19 -73v-555h-86v564q0 49 14 83.5t45 52.5t83 17zM680 487v-67h-652v62l93 5h559z" />
    <glyph glyph-name="fi" unicode="fi" horiz-adv-x="606" 
d="M258 717q21 0 55 -1.5t59 -5.5v-63h-84q-48 0 -67.5 -20.5t-19.5 -71.5v-555h-85v564q0 49 14 83t45 52t83 18zM450 487v-67h-422v62l93 5h329zM524 487v-487h-84v487h84zM501 694q26 0 26 -26v-57q0 -26 -26 -26h-40q-25 0 -25 26v57q0 26 25 26h40z" />
    <glyph glyph-name="fl" unicode="fl" 
d="M257 717h42.5t59 -1t65.5 -2t62.5 -3.5t49.5 -5.5v-581q0 -33 17 -49.5t49 -16.5h47l10 -54q-9 -4 -25.5 -7t-34 -4.5t-29.5 -1.5q-55 0 -87 30t-32 84v543h-164q-48 1 -67 -20t-19 -73v-555h-86v564q0 49 14 83.5t45 52.5t83 17zM346 487v-67h-318v62l92 5h226z" />
    <glyph glyph-name=".notdef" horiz-adv-x="624" 
d="M138 690v-690h-41v690h41zM527 690v-690h-41v690h41zM97 690h430v-41h-430v41zM97 41h430v-41h-430v41z" />
    <glyph glyph-name="space" unicode=" " horiz-adv-x="223" 
 />
    <glyph glyph-name="zero" unicode="0" horiz-adv-x="603" 
d="M301 703q89 0 141 -37t74.5 -116t22.5 -205t-22.5 -205t-74.5 -116t-141 -37q-88 0 -140 37t-74.5 116t-22.5 205t22.5 205t74.5 116t140 37zM301 626q-43 0 -72 -15.5t-46.5 -48.5t-25 -86.5t-7.5 -130.5q0 -76 7.5 -130t25 -87t46.5 -48.5t72 -15.5t72.5 15.5t47 48.5
t25 87t7.5 130q0 77 -7.5 130.5t-25 86.5t-47 48.5t-72.5 15.5z" />
    <glyph glyph-name="one" unicode="1" horiz-adv-x="398" 
d="M286 690v-690h-88v547q0 15 1 30t4 30l-169 -53l-12 65l176 71h88z" />
    <glyph glyph-name="two" unicode="2" horiz-adv-x="562" 
d="M271 702q66 0 113.5 -11t73 -43t25.5 -95q0 -43 -11.5 -81t-38.5 -78.5t-73 -91.5l-198 -221q26 2 55.5 3t56.5 1h234v-85h-453v55q0 11 3 20.5t10 17.5l200 226q66 71 97 126t29 104q-1 34 -16.5 49.5t-44 20.5t-68.5 5q-32 0 -61 -1t-61.5 -4.5t-75.5 -10.5l-6 68
q47 11 82.5 16.5t66 7.5t61.5 2z" />
    <glyph glyph-name="three" unicode="3" horiz-adv-x="556" 
d="M258 703q76 0 122.5 -14.5t68.5 -49.5t22 -96q0 -44 -9 -80.5t-30.5 -61t-61.5 -32.5v-4q68 -11 93.5 -56.5t26.5 -116.5q1 -70 -20 -115.5t-69 -67.5t-130 -22q-55 0 -110.5 5.5t-108.5 12.5l6 71q34 -3 65.5 -5.5t62.5 -3.5t63 -1q56 0 89.5 12.5t49 42.5t15.5 80
q0 38 -10.5 66.5t-40 44.5t-86.5 16h-128v69h128q41 0 65.5 11t36.5 28.5t15.5 40t3.5 46.5q-1 44 -14 65.5t-43.5 29t-83.5 7.5q-49 0 -94.5 -2.5t-80.5 -5.5l-7 68q51 9 98.5 13.5t95.5 4.5z" />
    <glyph glyph-name="four" unicode="4" horiz-adv-x="615" 
d="M330 690l-193 -408q-9 -20 -0.5 -30.5t25.5 -10.5h409v-63l-92 -9h-366q-28 0 -47 16t-24.5 41t5.5 50l196 414h87zM482 558v-558h-83v444l15 114h68z" />
    <glyph glyph-name="five" unicode="5" horiz-adv-x="536" 
d="M460 690l-4 -75h-290l-10 -188l74 -6q68 -5 115.5 -18t77.5 -38t43.5 -63.5t13.5 -94.5q0 -42 -8.5 -81t-32 -70t-67.5 -49.5t-115 -18.5q-41 0 -95 6t-110 19l10 71q47 -8 94 -13t81 -5q66 0 99 16.5t45 48t13 76.5q1 48 -11.5 75.5t-40 41t-73 19t-111.5 9.5l-46 3
q-15 2 -24.5 12.5t-8.5 26.5l16 296h365z" />
    <glyph glyph-name="six" unicode="6" horiz-adv-x="572" 
d="M334 702q21 0 59 -2t80 -13l-8 -64q-22 2 -40.5 3t-39.5 1h-51q-51 0 -86 -11t-56 -42t-30 -91t-9 -158q0 -75 4 -126t18.5 -80.5t44 -42.5t80.5 -13q59 0 87.5 18.5t37 54.5t8.5 87q0 57 -10.5 91t-38.5 49.5t-79 15.5q-33 0 -61 -8t-57 -28.5t-67 -57.5l-4 44
q33 47 63 73.5t65.5 37t83.5 10.5q73 0 114 -22t58 -71.5t17 -133.5q0 -53 -8 -96.5t-31 -74.5t-66 -47.5t-113 -16.5q-73 0 -119 16.5t-70.5 55.5t-34 104.5t-9.5 163.5q0 122 16.5 196t49.5 112.5t83.5 52t118.5 13.5z" />
    <glyph glyph-name="seven" unicode="7" horiz-adv-x="512" 
d="M429 690q21 0 33 -7.5t15.5 -21t-2.5 -32.5l-215 -629h-88l194 564q5 14 10 26.5t11 24.5h-344l-4 75h390z" />
    <glyph glyph-name="eight" unicode="8" horiz-adv-x="607" 
d="M304 700q66 0 108.5 -11t67 -33t34 -56.5t9.5 -81.5q0 -45 -10 -79t-31.5 -54.5t-56.5 -24.5v-4q44 -4 68.5 -27.5t34.5 -63t10 -93.5q0 -63 -19 -103.5t-69.5 -59.5t-145.5 -19q-93 0 -144 19t-71 59.5t-20 103.5q0 54 10.5 93.5t35.5 63t68 27.5v4q-35 4 -57 24.5
t-32 54.5t-10 79q0 47 10 81.5t34.5 56.5t67 33t108.5 11zM306 323q-47 0 -77 -6t-47 -20.5t-23.5 -40.5t-6.5 -66q0 -46 12.5 -73.5t46 -39t94.5 -11.5t93 11.5t44 39t12 73.5q0 41 -6.5 67t-22.5 40.5t-45 20t-74 5.5zM305 629q-57 0 -87 -11t-41.5 -37t-11.5 -71
q0 -47 11.5 -72.5t42 -35t87.5 -9.5q58 0 87.5 10t39.5 35.5t10 71.5q0 45 -10.5 71t-40.5 37t-87 11z" />
    <glyph glyph-name="nine" unicode="9" horiz-adv-x="572" 
d="M276 702q75 0 120.5 -17.5t68.5 -57.5t30.5 -107t7.5 -167q0 -116 -15 -188t-46.5 -110.5t-82.5 -52.5t-123 -14q-23 0 -62.5 2t-86.5 13l8 65q24 -2 43 -3t41.5 -1h56.5q52 0 87 12t56 43.5t30 88.5t9 147q0 79 -3.5 131.5t-16.5 83.5t-42 44t-81 13q-57 0 -86.5 -19
t-39.5 -55t-10 -88q0 -50 10.5 -84.5t38.5 -52.5t77 -18q33 0 60.5 8.5t56.5 29t67 56.5l4 -43q-32 -47 -62.5 -73.5t-65.5 -37t-83 -10.5q-71 0 -112 29t-58 80t-17 116q0 79 20.5 131.5t69 79t131.5 26.5z" />
    <glyph glyph-name="A" unicode="A" horiz-adv-x="622" 
d="M357 690q12 0 21 -6.5t12 -17.5l222 -666h-91l-179 566q-4 14 -8.5 28.5t-8.5 27.5h-28q-4 -13 -8 -27.5t-9 -28.5l-179 -566h-91l222 666q3 11 12 17.5t21 6.5h92zM485 292v-76h-350v76h350z" />
    <glyph glyph-name="B" unicode="B" horiz-adv-x="620" 
d="M311 698q85 0 135 -15.5t72.5 -54.5t22.5 -110q0 -74 -27.5 -113t-89.5 -45v-4q77 -7 107.5 -54t30.5 -130q0 -71 -22 -110t-70.5 -54.5t-127.5 -15.5q-59 0 -101.5 0.5t-78.5 2.5t-75 5l14 70q22 -1 83.5 -2t143.5 -1q55 0 86.5 9.5t45 35.5t13.5 75q0 54 -14 83t-47 41
t-90 13h-222v67h221q50 1 79.5 10.5t42.5 35t13 71.5q0 47 -14 72t-46.5 34t-88.5 9h-88t-68.5 -0.5t-49.5 -2.5l-14 70q35 4 66.5 5.5t69 2t88.5 0.5zM173 690v-690h-86v690h86z" />
    <glyph glyph-name="C" unicode="C" horiz-adv-x="570" 
d="M332 702q44 0 75.5 -2t58 -6.5t54.5 -11.5l-9 -67q-30 3 -55.5 5t-54.5 3t-69 1q-67 0 -106 -26t-55.5 -87t-16.5 -166t16.5 -166t55.5 -87t106 -26q64 0 107.5 2.5t85.5 8.5l9 -66q-43 -12 -88.5 -17.5t-113.5 -5.5q-99 0 -158.5 34.5t-86 112.5t-26.5 210t26.5 210
t86 112.5t158.5 34.5z" />
    <glyph glyph-name="D" unicode="D" horiz-adv-x="664" 
d="M333 699q74 0 125.5 -18t83 -59t46 -109t14.5 -168t-14.5 -168t-46 -109t-83 -59t-125.5 -18q-71 0 -131.5 2.5t-114.5 6.5l38 72q42 -1 93.5 -2.5t114.5 -1.5q66 0 105 25.5t55.5 86t16.5 165.5t-16.5 165.5t-55.5 86.5t-105 26q-62 0 -111.5 -1t-96.5 -2l-38 70
q54 4 114.5 6.5t131.5 2.5zM175 690v-690h-88v690h88z" />
    <glyph glyph-name="E" unicode="E" horiz-adv-x="560" 
d="M214 691h100.5t100 -1.5t95.5 -4.5l-4 -69h-277q-31 0 -45.5 -15.5t-14.5 -50.5v-410q0 -35 14.5 -51t45.5 -16h277l4 -68q-46 -3 -95.5 -4t-100 -1.5t-100.5 -0.5q-61 0 -96.5 32.5t-36.5 87.5v452q1 56 36.5 88t96.5 32zM99 400h368v-71h-368v71z" />
    <glyph glyph-name="F" unicode="F" horiz-adv-x="539" 
d="M218 691q48 0 97 -0.5t97 -1.5t92 -5l-5 -68h-259q-35 0 -51 -15.5t-16 -50.5v-550h-88v567q0 59 36 91.5t97 32.5zM102 390h359v-71h-359v71z" />
    <glyph glyph-name="G" unicode="G" horiz-adv-x="628" 
d="M350 703q35 0 68 -2t64 -6.5t60 -12.5l-9 -66q-31 3 -62.5 5t-60.5 2.5t-55 0.5q-56 0 -94.5 -10.5t-61.5 -40.5t-33.5 -86t-10.5 -146q0 -102 14 -162.5t47 -87.5t88 -27q38 0 69.5 11t59 28.5t53.5 36.5l12 -54q-18 -21 -49.5 -44t-73.5 -39t-95 -16q-77 0 -125.5 38.5
t-70.5 118t-22 203.5q0 137 27.5 214.5t91 109.5t169.5 32zM560 399v-399h-64l-14 102l-8 20v277h86z" />
    <glyph glyph-name="H" unicode="H" 
d="M175 690v-690h-88v690h88zM504 407v-76h-337v76h337zM581 690v-690h-88v690h88z" />
    <glyph glyph-name="I" unicode="I" horiz-adv-x="262" 
d="M175 690v-690h-88v690h88z" />
    <glyph glyph-name="J" unicode="J" horiz-adv-x="340" 
d="M256 690v-545q0 -76 -34.5 -115t-99.5 -39q-13 0 -30.5 1.5t-34 4.5t-27.5 7l10 62h50q78 0 78 76v548h88z" />
    <glyph glyph-name="K" unicode="K" horiz-adv-x="591" 
d="M558 690l-201 -286q-9 -13 -17.5 -22.5t-20.5 -21.5v-2q13 -12 24 -24t19 -24l210 -310h-99l-245 361l234 329h96zM174 690v-216q0 -30 -3 -57t-9 -56q5 -28 8.5 -56t3.5 -54v-251h-87v690h87zM276 395v-71h-133v71h133z" />
    <glyph glyph-name="L" unicode="L" horiz-adv-x="514" 
d="M172 690v-550q0 -34 16.5 -50t50.5 -16h249l4 -68q-65 -5 -132.5 -6t-134.5 -1q-76 0 -108 37t-32 93v561h87z" />
    <glyph glyph-name="M" unicode="M" horiz-adv-x="877" 
d="M739 690q36 0 36 -37l29 -653h-88l-25 617h-21l-154 -509q-8 -30 -38 -30h-79q-31 0 -40 30l-154 509h-20l-24 -617h-88l27 653q2 37 37 37h100q28 0 37 -30l129 -421q8 -23 13.5 -46t12.5 -47h18q7 24 13 47t13 48l129 419q8 30 38 30h99z" />
    <glyph glyph-name="N" unicode="N" horiz-adv-x="705" 
d="M618 690v-655q0 -35 -34 -35h-86q-15 0 -24 7t-15 21l-233 489q-9 20 -21 45t-18 46h-16q2 -22 3 -45t1 -46v-517h-88v655q0 35 35 35h83q15 0 24 -7t15 -21l226 -477q11 -21 23.5 -47.5t23.5 -52.5h17q-1 27 -2 53t-1 52v500h87z" />
    <glyph glyph-name="O" unicode="O" 
d="M334 703q75 0 127.5 -18t84 -59.5t46 -110.5t14.5 -170t-14.5 -170t-46 -110.5t-84 -59.5t-127.5 -18t-127.5 18t-84.5 59.5t-46.5 110.5t-14.5 170t14.5 170t46.5 110.5t84.5 59.5t127.5 18zM334 624q-68 0 -107.5 -26t-56 -86.5t-16.5 -166.5q0 -105 16.5 -166t56 -87
t107.5 -26t107.5 26t56 87t16.5 166q0 106 -16.5 166.5t-56 86.5t-107.5 26z" />
    <glyph glyph-name="P" unicode="P" horiz-adv-x="590" 
d="M324 699q83 0 131.5 -19t69.5 -65.5t21 -131.5t-20.5 -132t-67 -65.5t-124.5 -18.5q-42 0 -80.5 2t-70.5 5.5t-54.5 7.5t-31.5 7l3 54h110h113q50 1 79.5 12.5t42 42t12.5 85.5q0 56 -12.5 86t-42 42t-79.5 12q-82 0 -141.5 -1t-80.5 -3l-14 71q38 4 71 6t72 2.5t94 0.5z
M175 690v-690h-88v690h88z" />
    <glyph glyph-name="Q" unicode="Q" horiz-adv-x="669" 
d="M335 703q75 0 127.5 -18t84 -59.5t46 -110.5t14.5 -170t-14.5 -170t-46 -110.5t-84 -59.5t-127.5 -18q-76 0 -128 18t-84 59.5t-46.5 110.5t-14.5 170t14.5 170t46.5 110.5t84 59.5t128 18zM294 -43q59 -25 125 -42t140 -28l-28 -88q-78 16 -143 44.5t-119 60.5zM335 624
q-68 0 -107.5 -26t-56 -86.5t-16.5 -166.5q0 -105 16.5 -166t56 -87t107.5 -26t107 26t56 87t17 166q0 106 -17 166.5t-56 86.5t-107 26z" />
    <glyph glyph-name="R" unicode="R" horiz-adv-x="618" 
d="M325 699q80 0 129 -17.5t71.5 -60.5t22.5 -121q0 -56 -13 -93.5t-40.5 -58t-73.5 -26.5v-5q17 -4 33.5 -16.5t30.5 -33t21 -49.5l67 -218h-94l-61 216q-13 39 -35 55.5t-57 16.5q-61 0 -106 0.5t-75 1.5t-48 1l3 73h223q51 1 80.5 12t42.5 39.5t13 79.5t-13 78.5
t-42.5 38.5t-80.5 11q-82 0 -141.5 -1t-80.5 -1l-14 69q38 4 71 6t72.5 2.5t94.5 0.5zM174 690v-690h-87v690h87z" />
    <glyph glyph-name="S" unicode="S" horiz-adv-x="561" 
d="M279 702q49 -1 101 -5t104 -15l-6 -64q-43 2 -95 3.5t-100 1.5q-37 0 -63.5 -2.5t-43.5 -12t-24.5 -31t-7.5 -59.5q0 -57 20.5 -79.5t66.5 -33.5l140 -35q80 -19 109.5 -66.5t29.5 -127.5q0 -60 -13.5 -97t-41.5 -56.5t-72 -27t-104 -7.5q-34 0 -88.5 3t-125.5 16l6 65
q59 -2 95 -3.5t62 -1.5h54q53 0 83.5 8t43 32t12.5 71q0 40 -9 62t-28.5 33.5t-49.5 18.5l-143 36q-75 19 -105.5 66t-30.5 126q0 60 13.5 96.5t41 55t69.5 24.5t100 6z" />
    <glyph glyph-name="T" unicode="T" horiz-adv-x="581" 
d="M334 690v-690h-88v690h88zM557 690v-78h-533v78h533z" />
    <glyph glyph-name="U" unicode="U" horiz-adv-x="666" 
d="M584 690v-426q0 -100 -24 -161t-78 -88.5t-145 -27.5q-93 0 -149 27.5t-81 88.5t-25 161v426h88v-426q0 -74 15.5 -117.5t51.5 -62t96 -18.5t95.5 18.5t51.5 62t16 117.5v426h88z" />
    <glyph glyph-name="V" unicode="V" horiz-adv-x="609" 
d="M592 690l-209 -665q-4 -10 -13 -17.5t-21 -7.5h-89q-13 0 -22 7.5t-12 17.5l-209 665h91l163 -547q5 -19 10.5 -37.5t9.5 -37.5h27l10 38t11 38l162 546h91z" />
    <glyph glyph-name="W" unicode="W" horiz-adv-x="948" 
d="M917 690l-140 -664q-3 -11 -12 -18.5t-23 -7.5h-100q-13 0 -22.5 7.5t-11.5 19.5l-108 519q-4 20 -8 39.5t-8 38.5h-21q-4 -19 -7.5 -39t-7.5 -39l-107 -519q-3 -12 -12.5 -19.5t-22.5 -7.5h-101q-13 0 -22.5 7.5t-11.5 18.5l-140 664h93l108 -538q4 -19 7 -40.5t7 -44.5
h23q4 23 8 44t8 41l107 509q2 13 11.5 21t22.5 8h96q13 0 22 -8t12 -21l107 -509q5 -22 8.5 -43t5.5 -42h25q3 21 6 42.5t7 41.5l109 539h93z" />
    <glyph glyph-name="X" unicode="X" horiz-adv-x="611" 
d="M573 690l-182 -333l195 -357h-96l-189 357l177 333h95zM133 690l177 -333l-189 -357h-96l194 357l-181 333h95zM358 392v-68h-106v68h106z" />
    <glyph glyph-name="Y" unicode="Y" horiz-adv-x="569" 
d="M557 690l-233 -456h-79l-234 456h94l145 -291q9 -19 16.5 -39t14.5 -39h7q7 19 15 39t16 38l145 292h93zM328 296v-296h-88v296h88z" />
    <glyph glyph-name="Z" unicode="Z" horiz-adv-x="566" 
d="M416 616l96 -1l-367 -541l-97 1zM519 75v-75h-471v75h471zM512 690v-75h-458v75h458z" />
    <glyph glyph-name="a" unicode="a" horiz-adv-x="549" 
d="M308 499q54 0 91.5 -14.5t56.5 -48.5t19 -93v-343h-67l-13 106l-6 11v226q0 45 -20.5 64.5t-78.5 19.5q-38 0 -95.5 -4t-113.5 -9l-8 63q34 6 74.5 11t82.5 8t78 3zM435 300l-1 -64l-233 -1q-35 -1 -49 -18.5t-14 -48.5v-31q0 -38 18 -55.5t58 -17.5q28 0 63.5 10.5
t71.5 32.5t66 56v-63q-11 -14 -31.5 -32.5t-49 -36t-63 -29t-74.5 -11.5q-43 0 -76 15.5t-51.5 46t-18.5 74.5v53q0 57 35.5 88.5t99.5 31.5h249z" />
    <glyph glyph-name="b" unicode="b" horiz-adv-x="570" 
d="M340 499q90 0 133 -58.5t43 -195.5q0 -63 -10.5 -111t-35 -80.5t-66 -49t-104.5 -16.5q-25 0 -54 2t-59 6.5t-58.5 11t-52.5 15.5l68 58q27 -8 53.5 -13t52 -6.5t48.5 -1.5q47 1 75.5 18t41.5 57.5t13 109.5q0 67 -10 106.5t-35.5 56.5t-72.5 17q-40 0 -76 -21.5
t-83 -58.5l-6 57q30 32 61.5 53.5t65.5 32.5t68 11zM161 700v-182q0 -31 -1.5 -57t-7.5 -53l8 -14l1 -375l-85 4v677h85z" />
    <glyph glyph-name="c" unicode="c" horiz-adv-x="489" 
d="M286 499q22 0 49 -2t55.5 -7t52.5 -14l-11 -55q-33 3 -69.5 4.5t-62.5 1.5q-58 0 -92 -16t-49 -56t-15 -111t15 -111.5t49 -56.5t92 -16q15 0 39 1t51.5 3t52.5 6l9 -57q-37 -13 -80.5 -19t-86.5 -6q-84 0 -135 25t-73.5 81t-22.5 150t23 150t74 80.5t135 24.5z" />
    <glyph glyph-name="d" unicode="d" horiz-adv-x="573" 
d="M240 499q48 0 95 -12.5t90 -38.5l-5 -53q-47 14 -83 22t-77 8q-42 0 -67.5 -14.5t-37.5 -53.5t-12 -111t11.5 -112t36.5 -56t64 -16q29 0 52.5 7.5t50 24.5t62.5 43l8 -60q-40 -37 -91 -63t-110 -26q-92 0 -131.5 65t-39.5 192q0 95 20 150.5t61 79.5t103 24zM494 700
v-700h-66l-10 85l-9 7v334l6 15q-4 28 -5 54t-1 55v150h85z" />
    <glyph glyph-name="e" unicode="e" horiz-adv-x="537" 
d="M278 499q110 0 159.5 -40t49.5 -119q1 -65 -27 -101.5t-89 -36.5h-284v66h262q33 0 43 22.5t10 49.5q-1 47 -28 67t-92 20q-53 0 -83.5 -15.5t-43 -54t-12.5 -107.5q0 -78 15.5 -119t49.5 -56t90 -15q39 0 85.5 3.5t83.5 8.5l9 -57q-23 -9 -56.5 -15t-69 -9t-63.5 -3
q-84 0 -135 25.5t-74.5 82t-23.5 149.5q0 96 23.5 151.5t73 79t127.5 23.5z" />
    <glyph glyph-name="f" unicode="f" horiz-adv-x="380" 
d="M258 717q16 0 41 -0.5t51 -2t45 -4.5l-7 -63h-100q-48 0 -67.5 -19t-19.5 -63v-565h-85v574q0 46 14 77.5t45 48.5t83 17zM357 487v-67h-329v62l93 5h236z" />
    <glyph glyph-name="g" unicode="g" horiz-adv-x="558" 
d="M271 499q78 0 123.5 -16t65 -50t19.5 -89q0 -53 -19.5 -87.5t-65.5 -51t-124 -16.5t-123.5 16.5t-65 50.5t-19.5 87q0 55 19.5 89.5t65.5 50.5t124 16zM270 434q-73 0 -101.5 -20.5t-28.5 -69.5q0 -48 28.5 -69t101.5 -21q74 0 102 21t28 69q0 49 -28 69.5t-102 20.5z
M536 487l-5 -47l-124 -10l-35 57h164zM133 221l49 -7q-17 -15 -23 -36.5t3.5 -39.5t40.5 -23l182 -29q69 -10 96 -43t27 -94q0 -57 -21.5 -90t-72.5 -47t-138 -14q-66 0 -111 7.5t-72.5 25t-39.5 45.5t-12 70q0 32 9.5 53.5t30 38.5t53.5 33l60 33l39 -14l-49 -37
q-20 -15 -33.5 -29.5t-20 -31t-6.5 -39.5q0 -34 13 -52t46 -24.5t92 -6.5t91.5 7t45.5 25t13 51q0 25 -6.5 38t-24.5 20t-53 12l-175 24q-31 4 -49.5 20t-25.5 38t-4 44.5t15 42t31 29.5z" />
    <glyph glyph-name="h" unicode="h" horiz-adv-x="581" 
d="M374 499q132 0 132 -134v-365h-86v341q0 49 -15.5 67.5t-53.5 18.5q-45 0 -90 -21t-107 -61l-4 61q57 43 113 68t111 25zM163 700l1 -193q0 -33 -2.5 -62t-7.5 -51l9 -15v-379h-85v700h85z" />
    <glyph glyph-name="i" unicode="i" horiz-adv-x="248" 
d="M166 487v-487h-84v487h84zM144 694q26 0 26 -26v-57q0 -26 -26 -26h-40q-26 0 -26 26v57q0 26 26 26h40z" />
    <glyph glyph-name="j" unicode="j" horiz-adv-x="250" 
d="M168 487v-499q0 -39 -11.5 -74.5t-32.5 -65t-50 -51.5l-47 37q29 35 42.5 71t13.5 83v499h85zM146 694q25 0 25 -26v-57q0 -26 -25 -26h-40q-26 0 -26 26v57q0 26 26 26h40z" />
    <glyph glyph-name="k" unicode="k" horiz-adv-x="509" 
d="M476 487l-153 -179q-7 -9 -17 -18.5t-17 -14.5v-2q7 -5 17 -16.5t17 -22.5l169 -234h-99l-193 279l177 208h99zM163 700l1 -311q0 -31 -2.5 -57.5t-7.5 -55.5q5 -28 7 -56t2 -54v-166h-85v700h85zM246 306v-62h-113v62h113z" />
    <glyph glyph-name="l" unicode="l" horiz-adv-x="297" 
d="M164 700l-1 -566q0 -32 17.5 -48.5t49.5 -16.5h47l10 -65q-9 -4 -25.5 -7t-34 -4.5t-29.5 -1.5q-54 0 -86.5 32t-32.5 92v585h85z" />
    <glyph glyph-name="m" unicode="m" horiz-adv-x="876" 
d="M671 499q63 0 96.5 -34t33.5 -100v-365h-84v341q-1 45 -18 65.5t-58 20.5q-26 0 -49.5 -8.5t-51.5 -26.5t-68 -47l-5 60q53 47 103 70.5t101 23.5zM148 487l6 -93l9 -15v-379h-85v487h70zM352 499q62 0 95 -33.5t34 -100.5v-365h-82v341q0 47 -19 66.5t-57 19.5
q-25 0 -48.5 -8t-52 -26t-69.5 -48l-6 60q53 47 103 70.5t102 23.5z" />
    <glyph glyph-name="n" unicode="n" horiz-adv-x="581" 
d="M374 499q132 0 132 -134v-365h-85v341q0 49 -16 67.5t-54 18.5q-45 0 -90 -22t-107 -60l-4 61q57 44 113 68.5t111 24.5zM150 487l7 -93l6 -15v-379h-85v487h72z" />
    <glyph glyph-name="o" unicode="o" horiz-adv-x="568" 
d="M284 499q84 0 134.5 -25t72.5 -81.5t22 -149.5t-22 -149.5t-72.5 -81.5t-134.5 -25q-83 0 -133.5 25t-73 81.5t-22.5 149.5t22.5 149.5t73 81.5t133.5 25zM284 427q-53 0 -83.5 -16.5t-43.5 -56.5t-13 -111t13 -111t43.5 -56.5t83.5 -16.5t84 16.5t44 56.5t13 111
t-13 111t-44 56.5t-84 16.5z" />
    <glyph glyph-name="p" unicode="p" horiz-adv-x="580" 
d="M357 499q89 0 128 -65.5t39 -192.5q0 -94 -20 -149.5t-60.5 -79.5t-103.5 -24q-48 0 -94.5 13t-90.5 40l5 51q47 -13 83 -21.5t76 -8.5q43 0 68.5 15t37.5 54t12 110q0 69 -11 109t-34.5 57.5t-62.5 17.5q-40 0 -79 -19t-91 -58l-8 57q27 29 61 50t71.5 32.5t73.5 11.5z
M148 487l9 -101l6 -13v-312l-4 -12q3 -28 3.5 -54t0.5 -55v-141h-85v688h70z" />
    <glyph glyph-name="q" unicode="q" horiz-adv-x="570" 
d="M274 499q23 0 51 -2t58 -6.5t58.5 -11t52.5 -14.5l-69 -59q-26 8 -53 13t-52 7t-47 1q-48 -1 -77 -17.5t-41.5 -57.5t-12.5 -116q0 -89 22 -131.5t86 -42.5q46 0 83.5 19.5t85.5 52.5l11 -56q-31 -28 -65 -48.5t-69.5 -31.5t-73.5 -11q-85 0 -126 61t-41 194
q0 63 10.5 111t35.5 80.5t67 49t106 16.5zM409 468l85 -3v-666h-85l-1 167q0 32 2 57.5t8 52.5l-9 14v378z" />
    <glyph glyph-name="r" unicode="r" horiz-adv-x="401" 
d="M144 487l11 -93l8 -15v-379h-85v487h66zM383 499l-10 -80h-28q-43 0 -86 -17.5t-105 -49.5l-7 53q54 44 108.5 69t105.5 25h22z" />
    <glyph glyph-name="s" unicode="s" horiz-adv-x="508" 
d="M240 499q32 0 68 -2t71.5 -5t65.5 -8l-7 -62q-46 2 -92.5 3.5t-92.5 1.5q-45 1 -71 -2t-37.5 -16t-11.5 -44q0 -38 18 -50t53 -20l142 -32q58 -14 85.5 -43t27.5 -91q0 -60 -22.5 -90t-68.5 -40t-117 -10q-26 0 -77.5 2t-113.5 12l6 62q24 -1 51 -2.5t56.5 -1.5h60.5
q55 0 86 5t44 19.5t13 43.5q0 36 -21 48t-56 20l-140 32q-40 10 -64 26.5t-35 43t-11 66.5q0 57 20 86t62 39t108 9z" />
    <glyph glyph-name="t" unicode="t" horiz-adv-x="381" 
d="M200 631v-497q0 -35 15 -50t51 -15h74l10 -65q-16 -4 -37 -7t-41 -4.5t-32 -1.5q-61 0 -93 34t-32 98v508h85zM355 487v-67h-328v62l96 5h232z" />
    <glyph glyph-name="u" unicode="u" horiz-adv-x="570" 
d="M160 487v-342q-1 -46 17 -65t60 -19q41 0 81.5 19.5t97.5 56.5l11 -59q-57 -45 -110.5 -68t-108.5 -23q-133 0 -133 134v366h85zM492 487v-487h-68l-8 92l-9 15v380h85z" />
    <glyph glyph-name="v" unicode="v" horiz-adv-x="530" 
d="M511 487l-178 -466q-4 -10 -11.5 -15.5t-18.5 -5.5h-77q-10 0 -18 5.5t-12 15.5l-178 466h91l120 -341q8 -21 15 -43t14 -42h13q8 21 15.5 42.5t14.5 42.5l120 341h90z" />
    <glyph glyph-name="w" unicode="w" horiz-adv-x="824" 
d="M799 487l-142 -463q-3 -11 -12 -17.5t-21 -6.5h-77q-12 0 -21.5 7.5t-11.5 19.5l-80 331q-4 19 -7.5 38t-8.5 39h-12q-4 -20 -8.5 -39t-8.5 -38l-79 -331q-3 -12 -12 -19.5t-22 -7.5h-76q-12 0 -21 6.5t-12 17.5l-142 463h88l101 -359q5 -18 9 -36.5t7 -36.5h13
q5 18 9.5 36.5t8.5 36.5l81 332q2 12 10.5 19.5t21.5 7.5h77q12 0 20.5 -7.5t11.5 -20.5l80 -331q4 -18 8.5 -36t8.5 -37h13q5 19 8 36.5t9 36.5l101 359h88z" />
    <glyph glyph-name="x" unicode="x" horiz-adv-x="528" 
d="M493 487l-151 -236l163 -251h-92l-159 251l147 236h92zM127 487l147 -236l-158 -251h-93l163 251l-151 236h92zM317 286v-66h-105v66h105z" />
    <glyph glyph-name="y" unicode="y" horiz-adv-x="529" 
d="M510 487l-195 -514q-12 -32 -30 -63t-43.5 -56.5t-60 -41.5t-79.5 -18l-8 56q59 19 91 51t51 78l24 58q8 20 16 44t15 43l127 363h92zM109 487l129 -363q5 -15 10 -29.5t8 -29.5h23l-28 -65h-26q-10 0 -18.5 6t-11.5 16l-177 465h91z" />
    <glyph glyph-name="z" unicode="z" horiz-adv-x="510" 
d="M363 418l95 -1l-314 -349l-95 1zM461 69v-69h-412v69h412zM458 487v-70h-406v70h406z" />
    <glyph glyph-name="ampersand" unicode="&#x26;" horiz-adv-x="772" 
d="M348 700q32 0 73 -1.5t86 -8.5l-10 -65q-10 1 -28 1.5t-40 1t-44 0.5h-40q-63 0 -100 -8.5t-53 -33.5t-16 -77q0 -47 12.5 -72.5t42 -35.5t79.5 -10h393l-1 -67h-396q-54 0 -86.5 -12t-46.5 -41t-14 -82q0 -47 12 -74t40.5 -38t77.5 -11q74 1 126 23t92 68l14 -54
q-32 -42 -68 -67t-80.5 -35.5t-103.5 -10.5q-72 0 -116.5 17.5t-65 57.5t-20.5 110q0 79 29.5 126.5t105.5 54.5v4q-63 6 -89 46.5t-26 114.5q0 60 15 96t47 53.5t81 23.5t118 6zM577 519v-388q0 -35 15 -50t49 -15h74l10 -62q-15 -4 -35 -7t-39 -4.5t-32 -1.5q-60 0 -91 30
t-31 84v257l9 157h71z" />
    <glyph glyph-name="f_t" horiz-adv-x="715" 
d="M258 717q15 0 38.5 -0.5t48.5 -2t43 -4.5l-7 -63h-93q-48 0 -67.5 -19t-19.5 -63v-565h-85v574q0 46 14 77.5t45 48.5t83 17zM533 631v-497q0 -35 15.5 -50t50.5 -15h74l10 -65q-16 -4 -37 -7t-41 -4.5t-32 -1.5q-61 0 -93 34t-32 98v508h85zM688 487v-67h-660v62l93 5
h567z" />
    <glyph glyph-name="period" unicode="." horiz-adv-x="229" 
d="M128 118q18 0 25 -7t7 -25v-54q0 -18 -7 -25t-25 -7h-28q-17 0 -24.5 7t-7.5 25v54q0 18 7.5 25t24.5 7h28z" />
    <glyph glyph-name="comma" unicode="," horiz-adv-x="228" 
d="M127 118q18 0 24.5 -7t6.5 -25v-64q0 -28 -4.5 -55t-12 -51.5t-18.5 -47.5l-40 12q5 31 7.5 57t2.5 63q-24 0 -24 28v58q1 18 9 25t24 7h25z" />
    <glyph glyph-name="colon" unicode=":" horiz-adv-x="236" 
d="M129 440q18 0 25 -7t7 -25v-54q0 -18 -7 -25t-25 -7h-28q-17 0 -24.5 7t-7.5 25v54q0 18 7.5 25t24.5 7h28zM129 118q18 0 25 -7t7 -25v-54q0 -18 -7 -25t-25 -7h-28q-17 0 -24.5 7t-7.5 25v54q0 18 7.5 25t24.5 7h28z" />
    <glyph glyph-name="semicolon" unicode=";" horiz-adv-x="237" 
d="M133 440q18 0 25 -7t7 -25v-54q0 -18 -7 -25t-25 -7h-28q-17 0 -24.5 7t-7.5 25v54q0 18 7.5 25t24.5 7h28zM132 118q18 0 24.5 -7t6.5 -25v-64q0 -28 -4.5 -55t-12 -51.5t-18.5 -47.5l-40 12q5 31 7.5 57t2.5 63q-24 0 -24 28v58q1 18 9 25t24 7h25z" />
    <glyph glyph-name="ellipsis" unicode="&#x2026;" horiz-adv-x="845" 
d="M433 118q18 0 25 -7t7 -25v-54q0 -18 -7 -25t-25 -7h-28q-17 0 -24.5 7t-7.5 25v54q0 18 7.5 25t24.5 7h28zM742 118q18 0 25 -7t7 -25v-54q0 -18 -7 -25t-25 -7h-28q-17 0 -24.5 7t-7.5 25v54q0 18 7.5 25t24.5 7h28zM125 118q18 0 25 -7t7 -25v-54q0 -18 -7 -25t-25 -7
h-28q-17 0 -24.5 7t-7.5 25v54q0 18 7.5 25t24.5 7h28z" />
    <glyph glyph-name="exclamdown" unicode="&#xa1;" horiz-adv-x="256" 
d="M162 282l9 -178v-300h-85v300l8 178h68zM140 493q17 0 24 -7t7 -25v-55q0 -17 -7 -24t-24 -7h-22q-17 0 -24.5 7t-7.5 24v55q0 18 7.5 25t24.5 7h22z" />
    <glyph glyph-name="exclam" unicode="!" horiz-adv-x="273" 
d="M179 695v-306l-8 -178h-68l-9 178v306h85zM148 118q17 0 24.5 -7t7.5 -25v-54q0 -18 -7.5 -25t-24.5 -7h-22q-17 0 -24 7t-7 25v54q0 18 7 25t24 7h22z" />
    <glyph glyph-name="questiondown" unicode="&#xbf;" horiz-adv-x="500" 
d="M296 288q1 -55 -15 -95t-40.5 -69.5t-49.5 -55t-42 -52t-18 -60.5q-2 -49 29.5 -72.5t100.5 -23.5q50 0 81 1t57 3t59 5l5 -61q-26 -4 -47 -8t-44 -7t-53.5 -4.5t-75.5 -1.5q-100 0 -151 38t-51 117q0 45 18 77.5t44.5 60t53 56t45.5 64.5t21 88h73zM271 499q18 0 25 -7
t7 -24v-56q0 -17 -7 -24t-25 -7h-21q-18 0 -25 7t-7 24v56q0 17 7 24t25 7h21z" />
    <glyph glyph-name="question" unicode="?" horiz-adv-x="505" 
d="M260 712q101 0 151.5 -37.5t50.5 -117.5q0 -45 -18 -77.5t-44.5 -59.5t-53 -55.5t-45.5 -65t-21 -88.5h-73q-1 55 15 95t40.5 70t49.5 55.5t42 51.5t18 59q2 50 -29.5 74t-100.5 24q-49 0 -80.5 -1t-57 -3.5t-59.5 -5.5l-5 61q26 5 47 8.5t44 6.5t53.5 4.5t75.5 1.5z
M255 118q17 0 24 -7t7 -25v-54q0 -18 -7 -25t-24 -7h-23q-17 0 -24 7t-7 25v54q0 18 7 25t24 7h23z" />
    <glyph glyph-name="parenleft" unicode="(" horiz-adv-x="359" 
d="M317 790l11 -41q-100 -49 -145.5 -157.5t-45.5 -278.5q0 -111 20 -197t62 -145.5t109 -94.5l-11 -41q-136 53 -199.5 168.5t-63.5 308.5q0 194 63.5 310t199.5 168z" />
    <glyph glyph-name="parenright" unicode=")" horiz-adv-x="359" 
d="M42 790q137 -52 200.5 -168t63.5 -310q0 -193 -63.5 -308.5t-200.5 -168.5l-10 41q67 35 108.5 94.5t61.5 145.5t20 197q0 170 -45 278.5t-145 157.5z" />
    <glyph glyph-name="bracketleft" unicode="[" horiz-adv-x="329" 
d="M288 768v-56h-102q-14 0 -14 -16v-789q0 -16 14 -16h102v-56h-143q-23 0 -38.5 13t-15.5 41v825q0 24 15.5 39t38.5 15h143z" />
    <glyph glyph-name="bracketright" unicode="]" horiz-adv-x="329" 
d="M183 768q24 0 39 -15t15 -39v-825q0 -24 -15 -39t-39 -15h-142v56h101q15 0 15 16v789q0 16 -15 16h-101v56h142z" />
    <glyph glyph-name="braceleft" unicode="{" horiz-adv-x="319" 
d="M276 768v-54q-52 0 -71 -19.5t-19 -65.5v-179q1 -41 -6.5 -65t-27 -37t-55.5 -20q37 -11 57 -25t28 -36t8 -57v-237q0 -45 19 -64.5t71 -19.5v-54q-61 -4 -99 10t-55.5 45t-17.5 78v256q0 26 -6.5 38.5t-20 19.5t-35.5 15v62q24 8 36.5 13.5t17 19t4.5 44.5v199
q0 47 17.5 78t55.5 45.5t99 9.5z" />
    <glyph glyph-name="braceright" unicode="}" horiz-adv-x="320" 
d="M44 768q62 5 99.5 -9.5t55 -45.5t17.5 -78v-199q0 -31 4.5 -44.5t17 -19t36.5 -13.5v-62q-22 -8 -36 -15t-20 -19.5t-6 -38.5v-256q0 -47 -17.5 -78t-55 -45t-99.5 -10v54q53 0 71.5 19.5t18.5 64.5v237q1 35 9 57t28 36t56 25q-35 7 -54.5 20t-27 37t-7.5 65v179
q0 46 -18.5 65.5t-71.5 19.5v54z" />
    <glyph glyph-name="hyphen" unicode="-" horiz-adv-x="449" 
d="M377 285v-65h-305v65h305z" />
    <glyph glyph-name="underscore" unicode="_" horiz-adv-x="438" 
d="M438 0v-65h-438v65h438z" />
    <glyph glyph-name="endash" unicode="&#x2013;" horiz-adv-x="592" 
d="M520 285v-65h-448v65h448z" />
    <glyph glyph-name="emdash" unicode="&#x2014;" horiz-adv-x="896" 
d="M824 285v-65h-752v65h752z" />
    <glyph glyph-name="quoteleft" unicode="&#x2018;" horiz-adv-x="217" 
d="M96.1855 496.836q-17.8311 0 -24.2705 6.53516t-6.43945 23.3398v59.75q0 26.1406 4.45801 51.3477t11.8877 48.0801t18.3271 44.3457l39.627 -11.2031q-4.95312 -28.9414 -7.43066 -53.2148q-2.47656 -24.2734 -2.47656 -58.8164q23.7764 0 23.7764 -26.1406v-54.1484
q-0.991211 -16.8047 -8.91602 -23.3398q-7.92578 -6.53516 -23.7764 -6.53516h-24.7666z" />
    <glyph glyph-name="quoteright" unicode="&#x2019;" horiz-adv-x="214" 
d="M119.814 722.164q17.8311 0 24.2705 -6.53516t6.43945 -23.3398v-59.75q0 -26.1406 -4.45801 -51.3477t-11.8877 -48.0801t-18.3271 -44.3457l-39.627 11.2031q4.95312 28.9414 7.43066 53.2148q2.47656 24.2734 2.47656 58.8164q-23.7764 0 -23.7764 26.1406v54.1484
q0.991211 16.8047 8.91602 23.3398q7.92578 6.53516 23.7764 6.53516h24.7666z" />
    <glyph glyph-name="quotedblleft" unicode="&#x201c;" horiz-adv-x="369" 
d="M96.1855 496.836q-17.8311 0 -24.2705 6.53516t-6.43945 23.3398v59.75q0 26.1406 4.45801 51.3477t11.8877 48.0801t18.3271 44.3457l39.627 -11.2031q-4.95312 -28.9414 -7.43066 -53.2148q-2.47656 -24.2734 -2.47656 -58.8164q23.7764 0 23.7764 -26.1406v-54.1484
q-0.991211 -16.8047 -8.91602 -23.3398q-7.92578 -6.53516 -23.7764 -6.53516h-24.7666zM249.186 496.836q-17.8311 0 -24.2705 6.53516t-6.43945 23.3398v59.75q0 26.1406 4.45801 51.3477t11.8877 48.0801t18.3271 44.3457l39.627 -11.2031
q-4.95312 -28.9414 -7.43066 -53.2148q-2.47656 -24.2734 -2.47656 -58.8164q23.7764 0 23.7764 -26.1406v-54.1484q-0.991211 -16.8047 -8.91602 -23.3398q-7.92578 -6.53516 -23.7764 -6.53516h-24.7666z" />
    <glyph glyph-name="quotedblright" unicode="&#x201d;" horiz-adv-x="367" 
d="M272.814 722.164q17.8311 0 24.2705 -6.53516t6.43945 -23.3398v-59.75q0 -26.1406 -4.45801 -51.3477t-11.8877 -48.0801t-18.3271 -44.3457l-39.627 11.2031q4.95312 28.9414 7.43066 53.2148q2.47656 24.2734 2.47656 58.8164q-23.7764 0 -23.7764 26.1406v54.1484
q0.991211 16.8047 8.91602 23.3398q7.92578 6.53516 23.7764 6.53516h24.7666zM119.814 722.164q17.8311 0 24.2705 -6.53516t6.43945 -23.3398v-59.75q0 -26.1406 -4.45801 -51.3477t-11.8877 -48.0801t-18.3271 -44.3457l-39.627 11.2031q4.95312 28.9414 7.43066 53.2148
q2.47656 24.2734 2.47656 58.8164q-23.7764 0 -23.7764 26.1406v54.1484q0.991211 16.8047 8.91602 23.3398q7.92578 6.53516 23.7764 6.53516h24.7666z" />
    <glyph glyph-name="quotesinglbase" unicode="&#x201a;" horiz-adv-x="228" 
d="M127.465 111.164q18.0664 0 24.5898 -6.53516t6.52344 -23.3398v-59.75q0 -26.1406 -4.51562 -51.3477q-4.5166 -25.207 -12.0439 -48.0801q-7.52832 -22.873 -18.5684 -44.3457l-40.1465 11.2031q5.01855 28.9414 7.52734 53.2148q2.50977 24.2734 2.50977 58.8164
q-24.0879 0 -24.0879 26.1406v54.1484q1.00293 16.8047 9.03223 23.3398t24.0879 6.53516h25.0918z" />
    <glyph glyph-name="quotedblbase" unicode="&#x201e;" horiz-adv-x="381" 
d="M279.814 111.164q17.8311 0 24.2705 -6.53516t6.43945 -23.3398v-59.75q0 -26.1406 -4.45801 -51.3477t-11.8877 -48.0801t-18.3271 -44.3457l-39.627 11.2031q4.95312 28.9414 7.43066 53.2148q2.47656 24.2734 2.47656 58.8164q-23.7764 0 -23.7764 26.1406v54.1484
q0.991211 16.8047 8.91602 23.3398q7.92578 6.53516 23.7764 6.53516h24.7666zM126.814 111.164q17.8311 0 24.2705 -6.53516t6.43945 -23.3398v-59.75q0 -26.1406 -4.45801 -51.3477t-11.8877 -48.0801t-18.3271 -44.3457l-39.627 11.2031q4.95312 28.9414 7.43066 53.2148
q2.47656 24.2734 2.47656 58.8164q-23.7764 0 -23.7764 26.1406v54.1484q0.991211 16.8047 8.91602 23.3398q7.92578 6.53516 23.7764 6.53516h24.7666z" />
    <glyph glyph-name="guilsinglleft" unicode="&#x2039;" horiz-adv-x="285" 
d="M196 459l45 -30l-126 -178l127 -182l-45 -30l-161 202v20z" />
    <glyph glyph-name="guilsinglright" unicode="&#x203a;" horiz-adv-x="287" 
d="M88 459l161 -198v-20l-162 -202l-44 30l127 182l-126 178z" />
    <glyph glyph-name="brokenbar" unicode="&#xa6;" horiz-adv-x="248" 
d="M155 781v-400h-62v400h62zM155 231v-400h-62v400h62z" />
    <glyph glyph-name="slash" unicode="/" horiz-adv-x="517" 
d="M490 690l-393 -756h-70l393 756h70z" />
    <glyph glyph-name="backslash" unicode="\" horiz-adv-x="518" 
d="M98 690l393 -756h-71l-393 756h71z" />
    <glyph glyph-name="bar" unicode="|" horiz-adv-x="246" 
d="M154 781v-950h-62v950h62z" />
    <glyph glyph-name="asterisk" unicode="*" horiz-adv-x="450" 
d="M251 691l-8 -161l100 -129l-41 -30l-77 123l-77 -122l-42 30l100 128l-7 161h52zM71 601l119 -46l-1 -22l-11 -14l-124 33zM380 601l17 -50l-125 -32l-12 14v22z" />
    <glyph glyph-name="dagger" unicode="&#x2020;" horiz-adv-x="501" 
d="M275 690q10 0 10 -10v-69q0 -30 -2 -58t-7 -55h-51q-4 27 -7 55t-3 58v69q0 10 10 10h50zM45 479q0 10 10 10h46q27 0 50.5 -2.5t48.5 -7.5v-50q-25 -5 -48.5 -7.5t-50.5 -2.5h-46q-10 0 -10 10v50zM301 479q25 5 48.5 7.5t49.5 2.5h47q10 0 10 -10v-50q0 -10 -10 -10
h-47q-26 0 -49.5 2.5t-48.5 7.5v50zM216 297q0 32 2.5 59t6.5 53h51q5 -26 6.5 -53t1.5 -59v-225l-7 -197h-53l-8 197v225z" />
    <glyph glyph-name="daggerdbl" unicode="&#x2021;" horiz-adv-x="501" 
d="M275 690q10 0 10 -10v-69q0 -30 -2 -58t-7 -55h-51q-4 27 -7 55t-3 58v69q0 10 10 10h50zM45 479q0 10 10 10h46q27 0 50.5 -2.5t48.5 -7.5v-50q-25 -5 -48.5 -7.5t-50.5 -2.5h-46q-10 0 -10 10v50zM301 479q25 5 48.5 7.5t49.5 2.5h47q10 0 10 -10v-50q0 -10 -10 -10
h-47q-26 0 -49.5 2.5t-48.5 7.5v50zM225 -125q-10 0 -10 10v70q0 30 3 57.5t7 54.5h51q5 -27 7 -54.5t2 -57.5v-70q0 -10 -10 -10h-50zM456 87q0 -10 -10 -10h-47q-26 0 -49.5 2.5t-48.5 6.5v51q25 5 48.5 7t49.5 2h47q10 0 10 -10v-49zM55 146h46q27 0 50.5 -2t48.5 -7v-51
q-25 -4 -48.5 -6.5t-50.5 -2.5h-46q-10 0 -10 10v49q0 10 10 10zM225 409h51q4 -25 5.5 -44.5t2.5 -46.5v-70q-1 -26 -2.5 -47t-5.5 -44h-51q-4 23 -6 44t-3 47v70q1 28 3 47t6 44z" />
    <glyph glyph-name="periodcentered" unicode="&#xb7;" horiz-adv-x="236" 
d="M132 317q18 0 25 -7t7 -25v-54q0 -18 -7 -25t-25 -7h-28q-17 0 -24.5 7t-7.5 25v54q0 18 7.5 25t24.5 7h28z" />
    <glyph glyph-name="bullet" unicode="&#x2022;" horiz-adv-x="363" 
d="M189 358q47 0 65 -18t18 -65v-12q0 -49 -18 -67.5t-65 -18.5h-12q-49 0 -67.5 18.5t-18.5 67.5v12q0 47 18.5 65t67.5 18h12z" />
    <glyph glyph-name="quotesingle" unicode="'" horiz-adv-x="209" 
d="M140 690l-6 -215h-59l-5 215h70z" />
    <glyph glyph-name="quotedbl" unicode="&#x22;" horiz-adv-x="353" 
d="M283 690l-5 -215h-58l-6 215h69zM140 690l-6 -215h-59l-5 215h70z" />
    <glyph glyph-name="Agrave" unicode="&#xc0;" horiz-adv-x="622" 
d="M357 690q12 0 21 -6.5t12 -17.5l222 -666h-91l-179 566q-4 14 -8.5 28.5t-8.5 27.5h-28q-4 -13 -8 -27.5t-9 -28.5l-179 -566h-91l222 666q3 11 12 17.5t21 6.5h92zM485 292v-76h-350v76h350zM197 906l172 -146l-29 -39l-192 120z" />
    <glyph glyph-name="Aacute" unicode="&#xc1;" horiz-adv-x="622" 
d="M357 690q12 0 21 -6.5t12 -17.5l222 -666h-91l-179 566q-4 14 -8.5 28.5t-8.5 27.5h-28q-4 -13 -8 -27.5t-9 -28.5l-179 -566h-91l222 666q3 11 12 17.5t21 6.5h92zM485 292v-76h-350v76h350zM412 914l49 -66l-192 -120l-29 39z" />
    <glyph glyph-name="Acircumflex" unicode="&#xc2;" horiz-adv-x="622" 
d="M357 690q12 0 21 -6.5t12 -17.5l222 -666h-91l-179 566q-4 14 -8.5 28.5t-8.5 27.5h-28q-4 -13 -8 -27.5t-9 -28.5l-179 -566h-91l222 666q3 11 12 17.5t21 6.5h92zM485 292v-76h-350v76h350zM342 889l133 -127l-30 -37l-129 97h-8l-130 -97l-29 37l132 127h61z" />
    <glyph glyph-name="Atilde" unicode="&#xc3;" horiz-adv-x="622" 
d="M357 690q12 0 21 -6.5t12 -17.5l222 -666h-91l-179 566q-4 14 -8.5 28.5t-8.5 27.5h-28q-4 -13 -8 -27.5t-9 -28.5l-179 -566h-91l222 666q3 11 12 17.5t21 6.5h92zM485 292v-76h-350v76h350zM231 872q23 -2 41.5 -9.5t35 -17t34 -17.5t38.5 -11q29 -4 39 9t10 41h40
q6 -56 -16.5 -85.5t-61.5 -26.5q-34 3 -58.5 16t-46 26t-46.5 15q-28 3 -37.5 -10.5t-9.5 -43.5h-40q-4 40 5.5 66t29 38t43.5 10z" />
    <glyph glyph-name="Adieresis" unicode="&#xc4;" horiz-adv-x="622" 
d="M357 690q12 0 21 -6.5t12 -17.5l222 -666h-91l-179 566q-4 14 -8.5 28.5t-8.5 27.5h-28q-4 -13 -8 -27.5t-9 -28.5l-179 -566h-91l222 666q3 11 12 17.5t21 6.5h92zM485 292v-76h-350v76h350zM414 863q24 0 24 -24v-55q0 -24 -24 -24h-28q-24 0 -24 24v55q0 24 24 24h28z
M237 863q23 0 23 -24v-55q0 -24 -23 -24h-29q-23 0 -23 24v55q0 24 23 24h29z" />
    <glyph glyph-name="Aring" unicode="&#xc5;" horiz-adv-x="622" 
d="M357 690q12 0 21 -6.5t12 -17.5l222 -666h-91l-179 566q-4 14 -8.5 28.5t-8.5 27.5h-28q-4 -13 -8 -27.5t-9 -28.5l-179 -566h-91l222 666q3 11 12 17.5t21 6.5h92zM485 292v-76h-350v76h350zM311 924q29 0 53.5 -14t39 -37.5t14.5 -53.5q0 -29 -14.5 -53t-38.5 -38
t-54 -14q-29 0 -53.5 14t-39 37.5t-14.5 53.5t14.5 53.5t39 37.5t53.5 14zM311 880q-25 0 -42 -16.5t-17 -44.5t17 -44.5t42 -16.5q26 0 43 16.5t17 44.5t-17 44.5t-43 16.5z" />
    <glyph glyph-name="Amacron" unicode="&#x100;" horiz-adv-x="622" 
d="M357 690q12 0 21 -6.5t12 -17.5l222 -666h-91l-179 566q-4 14 -8.5 28.5t-8.5 27.5h-28q-4 -13 -8 -27.5t-9 -28.5l-179 -566h-91l222 666q3 11 12 17.5t21 6.5h92zM485 292v-76h-350v76h350zM450 842v-63h-278v63h278z" />
    <glyph glyph-name="Abreve" unicode="&#x102;" horiz-adv-x="622" 
d="M357 690q12 0 21 -6.5t12 -17.5l222 -666h-91l-179 566q-4 14 -8.5 28.5t-8.5 27.5h-28q-4 -13 -8 -27.5t-9 -28.5l-179 -566h-91l222 666q3 11 12 17.5t21 6.5h92zM485 292v-76h-350v76h350zM417 876l44 -6q3 -39 -15 -68.5t-52 -46.5t-83 -17q-48 0 -82.5 17t-52 46.5
t-15.5 68.5l44 6q-1 -35 27 -55t80 -20q50 0 77.5 20t27.5 55z" />
    <glyph glyph-name="Aogonek" unicode="&#x104;" horiz-adv-x="622" 
d="M357 690q12 0 21 -6.5t12 -17.5l222 -666h-91l-179 566q-4 14 -8.5 28.5t-8.5 27.5h-28q-4 -13 -8 -27.5t-9 -28.5l-179 -566h-91l222 666q3 11 12 17.5t21 6.5h92zM485 292v-76h-350v76h350zM573 2l38 -2q-22 -25 -41.5 -52.5t-32.5 -61.5q-15 -37 8 -48t70 4l10 -35
q-47 -20 -79.5 -20.5t-51 12.5t-22.5 35.5t5 48.5q8 25 30.5 55t65.5 64z" />
    <glyph glyph-name="AE" unicode="&#xc6;" horiz-adv-x="913" 
d="M567 691q93 0 161 -1t134 -5l-3 -70h-255q-31 0 -49.5 -18.5t-18.5 -50.5v-405q0 -34 16.5 -50.5t51.5 -16.5h255l3 -69q-71 -4 -145 -5t-148 -1q-52 0 -84 34t-32 86v439q0 21 9.5 42t22.5 30h-8q-13 -7 -28.5 -23.5t-29.5 -39.5l-328 -567h-92l343 582q18 32 38.5 53.5
t46.5 33.5t60.5 17t79.5 5zM477 298v-73h-300l8 73h292zM467 401l352 -1v-71l-352 -1v73z" />
    <glyph glyph-name="Ccedilla" unicode="&#xc7;" horiz-adv-x="570" 
d="M332 702q44 0 75.5 -2t58 -6.5t54.5 -11.5l-9 -67q-30 3 -55.5 5t-54.5 3t-69 1q-67 0 -106 -26t-55.5 -87t-16.5 -166t16.5 -166t55.5 -87t106 -26q64 0 107.5 2.5t85.5 8.5l9 -66q-43 -12 -88.5 -17.5t-113.5 -5.5q-99 0 -158.5 34.5t-86 112.5t-26.5 210t26.5 210
t86 112.5t158.5 34.5zM282 -55q39 4 63.5 -0.5t36.5 -19.5t11 -45q-1 -42 -23 -71.5t-59 -42.5t-85 -7l13 45q41 -1 66.5 18.5t26.5 50.5q1 18 -11 24.5t-48 7.5z" />
    <glyph glyph-name="Cacute" unicode="&#x106;" horiz-adv-x="570" 
d="M332 702q44 0 75.5 -2t58 -6.5t54.5 -11.5l-9 -67q-30 3 -55.5 5t-54.5 3t-69 1q-67 0 -106 -26t-55.5 -87t-16.5 -166t16.5 -166t55.5 -87t106 -26q64 0 107.5 2.5t85.5 8.5l9 -66q-43 -12 -88.5 -17.5t-113.5 -5.5q-99 0 -158.5 34.5t-86 112.5t-26.5 210t26.5 210
t86 112.5t158.5 34.5zM421 921l49 -66l-192 -120l-29 39z" />
    <glyph glyph-name="Ccircumflex" unicode="&#x108;" horiz-adv-x="570" 
d="M332 702q44 0 75.5 -2t58 -6.5t54.5 -11.5l-9 -67q-30 3 -55.5 5t-54.5 3t-69 1q-67 0 -106 -26t-55.5 -87t-16.5 -166t16.5 -166t55.5 -87t106 -26q64 0 107.5 2.5t85.5 8.5l9 -66q-43 -12 -88.5 -17.5t-113.5 -5.5q-99 0 -158.5 34.5t-86 112.5t-26.5 210t26.5 210
t86 112.5t158.5 34.5zM351 896l133 -127l-30 -37l-129 97h-8l-130 -97l-29 37l132 127h61z" />
    <glyph glyph-name="Cdotaccent" unicode="&#x10a;" horiz-adv-x="570" 
d="M332 702q44 0 75.5 -2t58 -6.5t54.5 -11.5l-9 -67q-30 3 -55.5 5t-54.5 3t-69 1q-67 0 -106 -26t-55.5 -87t-16.5 -166t16.5 -166t55.5 -87t106 -26q64 0 107.5 2.5t85.5 8.5l9 -66q-43 -12 -88.5 -17.5t-113.5 -5.5q-99 0 -158.5 34.5t-86 112.5t-26.5 210t26.5 210
t86 112.5t158.5 34.5zM334 867q26 0 26 -25v-57q0 -26 -26 -26h-27q-26 0 -26 26v57q0 25 26 25h27z" />
    <glyph glyph-name="Ccaron" unicode="&#x10c;" horiz-adv-x="570" 
d="M332 702q44 0 75.5 -2t58 -6.5t54.5 -11.5l-9 -67q-30 3 -55.5 5t-54.5 3t-69 1q-67 0 -106 -26t-55.5 -87t-16.5 -166t16.5 -166t55.5 -87t106 -26q64 0 107.5 2.5t85.5 8.5l9 -66q-43 -12 -88.5 -17.5t-113.5 -5.5q-99 0 -158.5 34.5t-86 112.5t-26.5 210t26.5 210
t86 112.5t158.5 34.5zM455 911l30 -36l-143 -128h-40l-143 128l29 36l130 -87h8z" />
    <glyph glyph-name="Eth" unicode="&#xd0;" horiz-adv-x="669" 
d="M331 391v-49h-309v49h309zM337 699q74 0 125.5 -18t83 -59t46 -109t14.5 -168t-14.5 -168t-46 -109t-83 -59t-125.5 -18q-71 0 -131.5 2.5t-114.5 6.5l38 72q42 -1 93.5 -2.5t114.5 -1.5q66 0 105 25.5t55.5 86t16.5 165.5t-16.5 165.5t-55.5 86.5t-105 26
q-62 0 -111.5 -1t-96.5 -2l-38 70q54 4 114.5 6.5t131.5 2.5zM179 690v-690h-88v690h88z" />
    <glyph glyph-name="Dcaron" unicode="&#x10e;" horiz-adv-x="664" 
d="M333 699q74 0 125.5 -18t83 -59t46 -109t14.5 -168t-14.5 -168t-46 -109t-83 -59t-125.5 -18q-71 0 -131.5 2.5t-114.5 6.5l38 72q42 -1 93.5 -2.5t114.5 -1.5q66 0 105 25.5t55.5 86t16.5 165.5t-16.5 165.5t-55.5 86.5t-105 26q-62 0 -111.5 -1t-96.5 -2l-38 70
q54 4 114.5 6.5t131.5 2.5zM175 690v-690h-88v690h88zM453 911l30 -36l-143 -128h-40l-143 128l29 36l130 -87h8z" />
    <glyph glyph-name="Dcroat" unicode="&#x110;" horiz-adv-x="669" 
d="M331 391v-49h-309v49h309zM337 699q74 0 125.5 -18t83 -59t46 -109t14.5 -168t-14.5 -168t-46 -109t-83 -59t-125.5 -18q-71 0 -131.5 2.5t-114.5 6.5l38 72q42 -1 93.5 -2.5t114.5 -1.5q66 0 105 25.5t55.5 86t16.5 165.5t-16.5 165.5t-55.5 86.5t-105 26
q-62 0 -111.5 -1t-96.5 -2l-38 70q54 4 114.5 6.5t131.5 2.5zM179 690v-690h-88v690h88z" />
    <glyph glyph-name="Egrave" unicode="&#xc8;" horiz-adv-x="560" 
d="M214 691h100.5t100 -1.5t95.5 -4.5l-4 -69h-277q-31 0 -45.5 -15.5t-14.5 -50.5v-410q0 -35 14.5 -51t45.5 -16h277l4 -68q-46 -3 -95.5 -4t-100 -1.5t-100.5 -0.5q-61 0 -96.5 32.5t-36.5 87.5v452q1 56 36.5 88t96.5 32zM99 400h368v-71h-368v71zM195 927l172 -146
l-29 -39l-192 120z" />
    <glyph glyph-name="Eacute" unicode="&#xc9;" horiz-adv-x="560" 
d="M214 691h100.5t100 -1.5t95.5 -4.5l-4 -69h-277q-31 0 -45.5 -15.5t-14.5 -50.5v-410q0 -35 14.5 -51t45.5 -16h277l4 -68q-46 -3 -95.5 -4t-100 -1.5t-100.5 -0.5q-61 0 -96.5 32.5t-36.5 87.5v452q1 56 36.5 88t96.5 32zM99 400h368v-71h-368v71zM411 935l49 -66
l-192 -120l-29 39z" />
    <glyph glyph-name="Ecircumflex" unicode="&#xca;" horiz-adv-x="560" 
d="M214 691h100.5t100 -1.5t95.5 -4.5l-4 -69h-277q-31 0 -45.5 -15.5t-14.5 -50.5v-410q0 -35 14.5 -51t45.5 -16h277l4 -68q-46 -3 -95.5 -4t-100 -1.5t-100.5 -0.5q-61 0 -96.5 32.5t-36.5 87.5v452q1 56 36.5 88t96.5 32zM99 400h368v-71h-368v71zM340 910l133 -127
l-30 -37l-129 97h-8l-130 -97l-29 37l132 127h61z" />
    <glyph glyph-name="Edieresis" unicode="&#xcb;" horiz-adv-x="560" 
d="M214 691h100.5t100 -1.5t95.5 -4.5l-4 -69h-277q-31 0 -45.5 -15.5t-14.5 -50.5v-410q0 -35 14.5 -51t45.5 -16h277l4 -68q-46 -3 -95.5 -4t-100 -1.5t-100.5 -0.5q-61 0 -96.5 32.5t-36.5 87.5v452q1 56 36.5 88t96.5 32zM99 400h368v-71h-368v71zM412 883q24 0 24 -24
v-55q0 -24 -24 -24h-28q-24 0 -24 24v55q0 24 24 24h28zM235 883q23 0 23 -24v-55q0 -24 -23 -24h-29q-23 0 -23 24v55q0 24 23 24h29z" />
    <glyph glyph-name="Emacron" unicode="&#x112;" horiz-adv-x="560" 
d="M214 691h100.5t100 -1.5t95.5 -4.5l-4 -69h-277q-31 0 -45.5 -15.5t-14.5 -50.5v-410q0 -35 14.5 -51t45.5 -16h277l4 -68q-46 -3 -95.5 -4t-100 -1.5t-100.5 -0.5q-61 0 -96.5 32.5t-36.5 87.5v452q1 56 36.5 88t96.5 32zM99 400h368v-71h-368v71zM449 862v-63h-278v63
h278z" />
    <glyph glyph-name="Ebreve" unicode="&#x114;" horiz-adv-x="560" 
d="M214 691h100.5t100 -1.5t95.5 -4.5l-4 -69h-277q-31 0 -45.5 -15.5t-14.5 -50.5v-410q0 -35 14.5 -51t45.5 -16h277l4 -68q-46 -3 -95.5 -4t-100 -1.5t-100.5 -0.5q-61 0 -96.5 32.5t-36.5 87.5v452q1 56 36.5 88t96.5 32zM99 400h368v-71h-368v71zM415 897l44 -6
q3 -39 -15 -68.5t-52 -46.5t-83 -17q-48 0 -82.5 17t-52 46.5t-15.5 68.5l44 6q-1 -35 27 -55t80 -20q50 0 77.5 20t27.5 55z" />
    <glyph glyph-name="Edotaccent" unicode="&#x116;" horiz-adv-x="560" 
d="M214 691h100.5t100 -1.5t95.5 -4.5l-4 -69h-277q-31 0 -45.5 -15.5t-14.5 -50.5v-410q0 -35 14.5 -51t45.5 -16h277l4 -68q-46 -3 -95.5 -4t-100 -1.5t-100.5 -0.5q-61 0 -96.5 32.5t-36.5 87.5v452q1 56 36.5 88t96.5 32zM99 400h368v-71h-368v71zM324 880q26 0 26 -25
v-57q0 -26 -26 -26h-27q-26 0 -26 26v57q0 25 26 25h27z" />
    <glyph glyph-name="Eogonek" unicode="&#x118;" horiz-adv-x="560" 
d="M214 691h100.5t100 -1.5t95.5 -4.5l-4 -69h-277q-31 0 -45.5 -15.5t-14.5 -50.5v-410q0 -35 14.5 -51t45.5 -16h277l4 -68q-46 -3 -95.5 -4t-100 -1.5t-100.5 -0.5q-61 0 -96.5 32.5t-36.5 87.5v452q1 56 36.5 88t96.5 32zM99 400h368v-71h-368v71zM472 7l38 -2
q-22 -25 -41.5 -52.5t-32.5 -61.5q-15 -37 8 -48t70 4l10 -35q-47 -20 -79.5 -20.5t-51 12.5t-22.5 35.5t5 48.5q8 25 30.5 55t65.5 64z" />
    <glyph glyph-name="Ecaron" unicode="&#x11a;" horiz-adv-x="560" 
d="M214 691h100.5t100 -1.5t95.5 -4.5l-4 -69h-277q-31 0 -45.5 -15.5t-14.5 -50.5v-410q0 -35 14.5 -51t45.5 -16h277l4 -68q-46 -3 -95.5 -4t-100 -1.5t-100.5 -0.5q-61 0 -96.5 32.5t-36.5 87.5v452q1 56 36.5 88t96.5 32zM99 400h368v-71h-368v71zM444 924l30 -36
l-143 -128h-40l-143 128l29 36l130 -87h8z" />
    <glyph glyph-name="Gcircumflex" unicode="&#x11c;" horiz-adv-x="628" 
d="M350 703q35 0 68 -2t64 -6.5t60 -12.5l-9 -66q-31 3 -62.5 5t-60.5 2.5t-55 0.5q-56 0 -94.5 -10.5t-61.5 -40.5t-33.5 -86t-10.5 -146q0 -102 14 -162.5t47 -87.5t88 -27q38 0 69.5 11t59 28.5t53.5 36.5l12 -54q-18 -21 -49.5 -44t-73.5 -39t-95 -16q-77 0 -125.5 38.5
t-70.5 118t-22 203.5q0 137 27.5 214.5t91 109.5t169.5 32zM560 399v-399h-64l-14 102l-8 20v277h86zM358 904l133 -127l-30 -37l-129 97h-8l-130 -97l-29 37l132 127h61z" />
    <glyph glyph-name="Gbreve" unicode="&#x11e;" horiz-adv-x="628" 
d="M350 703q35 0 68 -2t64 -6.5t60 -12.5l-9 -66q-31 3 -62.5 5t-60.5 2.5t-55 0.5q-56 0 -94.5 -10.5t-61.5 -40.5t-33.5 -86t-10.5 -146q0 -102 14 -162.5t47 -87.5t88 -27q38 0 69.5 11t59 28.5t53.5 36.5l12 -54q-18 -21 -49.5 -44t-73.5 -39t-95 -16q-77 0 -125.5 38.5
t-70.5 118t-22 203.5q0 137 27.5 214.5t91 109.5t169.5 32zM560 399v-399h-64l-14 102l-8 20v277h86zM433 891l44 -6q3 -39 -15 -68.5t-52 -46.5t-83 -17q-48 0 -82.5 17t-52 46.5t-15.5 68.5l44 6q-1 -35 27 -55t80 -20q50 0 77.5 20t27.5 55z" />
    <glyph glyph-name="Gdotaccent" unicode="&#x120;" horiz-adv-x="628" 
d="M350 703q35 0 68 -2t64 -6.5t60 -12.5l-9 -66q-31 3 -62.5 5t-60.5 2.5t-55 0.5q-56 0 -94.5 -10.5t-61.5 -40.5t-33.5 -86t-10.5 -146q0 -102 14 -162.5t47 -87.5t88 -27q38 0 69.5 11t59 28.5t53.5 36.5l12 -54q-18 -21 -49.5 -44t-73.5 -39t-95 -16q-77 0 -125.5 38.5
t-70.5 118t-22 203.5q0 137 27.5 214.5t91 109.5t169.5 32zM560 399v-399h-64l-14 102l-8 20v277h86zM341 874q26 0 26 -25v-57q0 -26 -26 -26h-27q-26 0 -26 26v57q0 25 26 25h27z" />
    <glyph glyph-name="uni0122" unicode="&#x122;" horiz-adv-x="628" 
d="M350 703q35 0 68 -2t64 -6.5t60 -12.5l-9 -66q-31 3 -62.5 5t-60.5 2.5t-55 0.5q-56 0 -94.5 -10.5t-61.5 -40.5t-33.5 -86t-10.5 -146q0 -102 14 -162.5t47 -87.5t88 -27q38 0 69.5 11t59 28.5t53.5 36.5l12 -54q-18 -21 -49.5 -44t-73.5 -39t-95 -16q-77 0 -125.5 38.5
t-70.5 118t-22 203.5q0 137 27.5 214.5t91 109.5t169.5 32zM560 399v-399h-64l-14 102l-8 20v277h86zM336.442 -58.7666q16.3623 0 22.2705 -6.00488q5.9082 -6.00586 5.9082 -21.4482v-54.9062q0 -24.0215 -4.08984 -47.1846q-4.09082 -23.1641 -10.9082 -44.1826
t-16.8164 -40.751l-36.3604 10.2949q4.5459 26.5957 6.81836 48.9004q2.27246 22.3066 2.27246 54.0488q-21.8164 0 -21.8164 24.0215v49.7588q0.90918 15.4424 8.18066 21.4482q7.27246 6.00488 21.8164 6.00488h22.7246z" />
    <glyph glyph-name="Hcircumflex" unicode="&#x124;" 
d="M175 690v-690h-88v690h88zM504 407v-76h-337v76h337zM581 690v-690h-88v690h88zM365 904l133 -127l-30 -37l-129 97h-8l-130 -97l-29 37l132 127h61z" />
    <glyph glyph-name="Hbar" unicode="&#x126;" horiz-adv-x="676" 
d="M655 566v-47h-635v47h635zM179 690v-690h-88v690h88zM508 407v-76h-337v76h337zM585 690v-690h-88v690h88z" />
    <glyph glyph-name="Igrave" unicode="&#xcc;" horiz-adv-x="262" 
d="M175 690v-690h-88v690h88zM16 913l172 -146l-29 -39l-192 120z" />
    <glyph glyph-name="Iacute" unicode="&#xcd;" horiz-adv-x="262" 
d="M175 690v-690h-88v690h88zM232 921l49 -66l-192 -120l-29 39z" />
    <glyph glyph-name="Icircumflex" unicode="&#xce;" horiz-adv-x="262" 
d="M175 690v-690h-88v690h88zM161 896l133 -127l-30 -37l-129 97h-8l-130 -97l-29 37l132 127h61z" />
    <glyph glyph-name="Itilde" unicode="&#x128;" horiz-adv-x="262" 
d="M175 690v-690h-88v690h88zM51 879q23 -2 41.5 -9.5t35 -17t34 -17.5t38.5 -11q29 -4 39 9t10 41h40q6 -56 -16.5 -85.5t-61.5 -26.5q-34 3 -58.5 16t-46 26t-46.5 15q-28 3 -37.5 -10.5t-9.5 -43.5h-40q-4 40 5.5 66t29 38t43.5 10z" />
    <glyph glyph-name="Idieresis" unicode="&#xcf;" horiz-adv-x="262" 
d="M175 690v-690h-88v690h88zM233 870q24 0 24 -24v-55q0 -24 -24 -24h-28q-24 0 -24 24v55q0 24 24 24h28zM56 870q23 0 23 -24v-55q0 -24 -23 -24h-29q-23 0 -23 24v55q0 24 23 24h29z" />
    <glyph glyph-name="Imacron" unicode="&#x12a;" horiz-adv-x="262" 
d="M175 690v-690h-88v690h88zM270 849v-63h-278v63h278z" />
    <glyph glyph-name="Ibreve" unicode="&#x12c;" horiz-adv-x="262" 
d="M175 690v-690h-88v690h88zM236 883l44 -6q3 -39 -15 -68.5t-52 -46.5t-83 -17q-48 0 -82.5 17t-52 46.5t-15.5 68.5l44 6q-1 -35 27 -55t80 -20q50 0 77.5 20t27.5 55z" />
    <glyph glyph-name="Iogonek" unicode="&#x12e;" horiz-adv-x="262" 
d="M175 690v-690h-88v690h88zM127 2l38 -2q-22 -25 -41.5 -52.5t-32.5 -61.5q-15 -37 8 -48t70 4l10 -35q-47 -20 -79.5 -20.5t-51 12.5t-22.5 35.5t5 48.5q8 25 30.5 55t65.5 64z" />
    <glyph glyph-name="Idotaccent" unicode="&#x130;" horiz-adv-x="262" 
d="M175 690v-690h-88v690h88zM145 867q26 0 26 -25v-57q0 -26 -26 -26h-27q-26 0 -26 26v57q0 25 26 25h27z" />
    <glyph glyph-name="IJ" unicode="&#x132;" horiz-adv-x="602" 
d="M175 690v-690h-88v690h88zM518 690v-545q0 -76 -34.5 -115t-99.5 -39q-13 0 -30.5 1.5t-34 4.5t-27.5 7l10 62h50q78 0 78 76v548h88z" />
    <glyph glyph-name="Jcircumflex" unicode="&#x134;" horiz-adv-x="340" 
d="M256 690v-545q0 -76 -34.5 -115t-99.5 -39q-13 0 -30.5 1.5t-34 4.5t-27.5 7l10 62h50q78 0 78 76v548h88zM242 898l133 -127l-30 -37l-129 97h-8l-130 -97l-29 37l132 127h61z" />
    <glyph glyph-name="uni0136" unicode="&#x136;" horiz-adv-x="591" 
d="M558 690l-201 -286q-9 -13 -17.5 -22.5t-20.5 -21.5v-2q13 -12 24 -24t19 -24l210 -310h-99l-245 361l234 329h96zM174 690v-216q0 -30 -3 -57t-9 -56q5 -28 8.5 -56t3.5 -54v-251h-87v690h87zM276 395v-71h-133v71h133zM326.442 -58.7666q16.3623 0 22.2705 -6.00488
q5.9082 -6.00586 5.9082 -21.4482v-54.9062q0 -24.0215 -4.08984 -47.1846q-4.09082 -23.1641 -10.9082 -44.1826t-16.8164 -40.751l-36.3604 10.2949q4.5459 26.5957 6.81836 48.9004q2.27246 22.3066 2.27246 54.0488q-21.8164 0 -21.8164 24.0215v49.7588
q0.90918 15.4424 8.18066 21.4482q7.27246 6.00488 21.8164 6.00488h22.7246z" />
    <glyph glyph-name="Lacute" unicode="&#x139;" horiz-adv-x="514" 
d="M172 690v-550q0 -34 16.5 -50t50.5 -16h249l4 -68q-65 -5 -132.5 -6t-134.5 -1q-76 0 -108 37t-32 93v561h87zM231 923l49 -66l-192 -120l-29 39z" />
    <glyph glyph-name="uni013B" unicode="&#x13b;" horiz-adv-x="514" 
d="M172 690v-550q0 -34 16.5 -50t50.5 -16h249l4 -68q-65 -5 -132.5 -6t-134.5 -1q-76 0 -108 37t-32 93v561h87zM307.442 -60.7666q16.3623 0 22.2705 -6.00488q5.9082 -6.00586 5.9082 -21.4482v-54.9062q0 -24.0215 -4.08984 -47.1846
q-4.09082 -23.1641 -10.9082 -44.1826t-16.8164 -40.751l-36.3604 10.2949q4.5459 26.5957 6.81836 48.9004q2.27246 22.3066 2.27246 54.0488q-21.8164 0 -21.8164 24.0215v49.7588q0.90918 15.4424 8.18066 21.4482q7.27246 6.00488 21.8164 6.00488h22.7246z" />
    <glyph glyph-name="Lcaron" unicode="&#x13d;" horiz-adv-x="514" 
d="M172 690v-550q0 -34 16.5 -50t50.5 -16h249l4 -68q-65 -5 -132.5 -6t-134.5 -1q-76 0 -108 37t-32 93v561h87zM352 689q17 0 22.5 -6t5.5 -20v-54q1 -35 -8 -67t-23 -61l-37 9q5 26 7 48t2 53q-21 0 -21 22v50q0 14 7 20t23 6h22z" />
    <glyph glyph-name="Ldot" unicode="&#x13f;" horiz-adv-x="514" 
d="M172 690v-550q0 -34 16.5 -50t50.5 -16h249l4 -68q-65 -5 -132.5 -6t-134.5 -1q-76 0 -108 37t-32 93v561h87zM335 352q-26 0 -26 25v57q0 26 26 26h27q26 0 26 -26v-57q0 -25 -26 -25h-27z" />
    <glyph glyph-name="Lslash" unicode="&#x141;" horiz-adv-x="520" 
d="M294 474v-54l-274 -115v55zM178 690v-550q0 -34 16.5 -50t50.5 -16h249l4 -68q-65 -5 -132.5 -6t-134.5 -1q-76 0 -108 37t-32 93v561h87z" />
    <glyph glyph-name="Ntilde" unicode="&#xd1;" horiz-adv-x="705" 
d="M618 690v-655q0 -35 -34 -35h-86q-15 0 -24 7t-15 21l-233 489q-9 20 -21 45t-18 46h-16q2 -22 3 -45t1 -46v-517h-88v655q0 35 35 35h83q15 0 24 -7t15 -21l226 -477q11 -21 23.5 -47.5t23.5 -52.5h17q-1 27 -2 53t-1 52v500h87zM284 879q23 -2 41.5 -9.5t35 -17
t34 -17.5t38.5 -11q29 -4 39 9t10 41h40q6 -56 -16.5 -85.5t-61.5 -26.5q-34 3 -58.5 16t-46 26t-46.5 15q-28 3 -37.5 -10.5t-9.5 -43.5h-40q-4 40 5.5 66t29 38t43.5 10z" />
    <glyph glyph-name="Nacute" unicode="&#x143;" horiz-adv-x="705" 
d="M618 690v-655q0 -35 -34 -35h-86q-15 0 -24 7t-15 21l-233 489q-9 20 -21 45t-18 46h-16q2 -22 3 -45t1 -46v-517h-88v655q0 35 35 35h83q15 0 24 -7t15 -21l226 -477q11 -21 23.5 -47.5t23.5 -52.5h17q-1 27 -2 53t-1 52v500h87zM464 921l49 -66l-192 -120l-29 39z" />
    <glyph glyph-name="uni0145" unicode="&#x145;" horiz-adv-x="705" 
d="M618 690v-655q0 -35 -34 -35h-86q-15 0 -24 7t-15 21l-233 489q-9 20 -21 45t-18 46h-16q2 -22 3 -45t1 -46v-517h-88v655q0 35 35 35h83q15 0 24 -7t15 -21l226 -477q11 -21 23.5 -47.5t23.5 -52.5h17q-1 27 -2 53t-1 52v500h87zM351.442 -58.7666
q16.3623 0 22.2705 -6.00488q5.9082 -6.00586 5.9082 -21.4482v-54.9062q0 -24.0215 -4.08984 -47.1846q-4.09082 -23.1641 -10.9082 -44.1826t-16.8164 -40.751l-36.3604 10.2949q4.5459 26.5957 6.81836 48.9004q2.27246 22.3066 2.27246 54.0488
q-21.8164 0 -21.8164 24.0215v49.7588q0.90918 15.4424 8.18066 21.4482q7.27246 6.00488 21.8164 6.00488h22.7246z" />
    <glyph glyph-name="Ncaron" unicode="&#x147;" horiz-adv-x="705" 
d="M618 690v-655q0 -35 -34 -35h-86q-15 0 -24 7t-15 21l-233 489q-9 20 -21 45t-18 46h-16q2 -22 3 -45t1 -46v-517h-88v655q0 35 35 35h83q15 0 24 -7t15 -21l226 -477q11 -21 23.5 -47.5t23.5 -52.5h17q-1 27 -2 53t-1 52v500h87zM498 911l30 -36l-143 -128h-40l-143 128
l29 36l130 -87h8z" />
    <glyph glyph-name="Eng" unicode="&#x14a;" horiz-adv-x="705" 
d="M618 690v-769q0 -67 -36.5 -102.5t-98.5 -34.5q-18 0 -44 3t-44 9l9 56h49q82 0 82 76v72h-35q-9 0 -15 7.5t-11 17.5l-248 477q-10 19 -21 44.5t-20 47.5h-14q3 -23 3.5 -46.5t0.5 -46.5v-501h-88v655q0 35 35 35h67q15 0 24 -7t16 -21l241 -462q11 -20 23.5 -47
t23.5 -53h17q-1 26 -2.5 51.5t-1.5 50.5v488h88z" />
    <glyph glyph-name="Ograve" unicode="&#xd2;" 
d="M334 703q75 0 127.5 -18t84 -59.5t46 -110.5t14.5 -170t-14.5 -170t-46 -110.5t-84 -59.5t-127.5 -18t-127.5 18t-84.5 59.5t-46.5 110.5t-14.5 170t14.5 170t46.5 110.5t84.5 59.5t127.5 18zM334 624q-68 0 -107.5 -26t-56 -86.5t-16.5 -166.5q0 -105 16.5 -166t56 -87
t107.5 -26t107.5 26t56 87t16.5 166q0 106 -16.5 166.5t-56 86.5t-107.5 26zM221 913l172 -146l-29 -39l-192 120z" />
    <glyph glyph-name="Oacute" unicode="&#xd3;" 
d="M334 703q75 0 127.5 -18t84 -59.5t46 -110.5t14.5 -170t-14.5 -170t-46 -110.5t-84 -59.5t-127.5 -18t-127.5 18t-84.5 59.5t-46.5 110.5t-14.5 170t14.5 170t46.5 110.5t84.5 59.5t127.5 18zM334 624q-68 0 -107.5 -26t-56 -86.5t-16.5 -166.5q0 -105 16.5 -166t56 -87
t107.5 -26t107.5 26t56 87t16.5 166q0 106 -16.5 166.5t-56 86.5t-107.5 26zM436 921l49 -66l-192 -120l-29 39z" />
    <glyph glyph-name="Ocircumflex" unicode="&#xd4;" 
d="M334 703q75 0 127.5 -18t84 -59.5t46 -110.5t14.5 -170t-14.5 -170t-46 -110.5t-84 -59.5t-127.5 -18t-127.5 18t-84.5 59.5t-46.5 110.5t-14.5 170t14.5 170t46.5 110.5t84.5 59.5t127.5 18zM334 624q-68 0 -107.5 -26t-56 -86.5t-16.5 -166.5q0 -105 16.5 -166t56 -87
t107.5 -26t107.5 26t56 87t16.5 166q0 106 -16.5 166.5t-56 86.5t-107.5 26zM366 896l133 -127l-30 -37l-129 97h-8l-130 -97l-29 37l132 127h61z" />
    <glyph glyph-name="Otilde" unicode="&#xd5;" 
d="M334 703q75 0 127.5 -18t84 -59.5t46 -110.5t14.5 -170t-14.5 -170t-46 -110.5t-84 -59.5t-127.5 -18t-127.5 18t-84.5 59.5t-46.5 110.5t-14.5 170t14.5 170t46.5 110.5t84.5 59.5t127.5 18zM334 624q-68 0 -107.5 -26t-56 -86.5t-16.5 -166.5q0 -105 16.5 -166t56 -87
t107.5 -26t107.5 26t56 87t16.5 166q0 106 -16.5 166.5t-56 86.5t-107.5 26zM255 879q23 -2 41.5 -9.5t35 -17t34 -17.5t38.5 -11q29 -4 39 9t10 41h40q6 -56 -16.5 -85.5t-61.5 -26.5q-34 3 -58.5 16t-46 26t-46.5 15q-28 3 -37.5 -10.5t-9.5 -43.5h-40q-4 40 5.5 66t29 38
t43.5 10z" />
    <glyph glyph-name="Odieresis" unicode="&#xd6;" 
d="M334 703q75 0 127.5 -18t84 -59.5t46 -110.5t14.5 -170t-14.5 -170t-46 -110.5t-84 -59.5t-127.5 -18t-127.5 18t-84.5 59.5t-46.5 110.5t-14.5 170t14.5 170t46.5 110.5t84.5 59.5t127.5 18zM334 624q-68 0 -107.5 -26t-56 -86.5t-16.5 -166.5q0 -105 16.5 -166t56 -87
t107.5 -26t107.5 26t56 87t16.5 166q0 106 -16.5 166.5t-56 86.5t-107.5 26zM438 870q24 0 24 -24v-55q0 -24 -24 -24h-28q-24 0 -24 24v55q0 24 24 24h28zM261 870q23 0 23 -24v-55q0 -24 -23 -24h-29q-23 0 -23 24v55q0 24 23 24h29z" />
    <glyph glyph-name="Omacron" unicode="&#x14c;" 
d="M334 703q75 0 127.5 -18t84 -59.5t46 -110.5t14.5 -170t-14.5 -170t-46 -110.5t-84 -59.5t-127.5 -18t-127.5 18t-84.5 59.5t-46.5 110.5t-14.5 170t14.5 170t46.5 110.5t84.5 59.5t127.5 18zM334 624q-68 0 -107.5 -26t-56 -86.5t-16.5 -166.5q0 -105 16.5 -166t56 -87
t107.5 -26t107.5 26t56 87t16.5 166q0 106 -16.5 166.5t-56 86.5t-107.5 26zM475 849v-63h-278v63h278z" />
    <glyph glyph-name="Obreve" unicode="&#x14e;" 
d="M334 703q75 0 127.5 -18t84 -59.5t46 -110.5t14.5 -170t-14.5 -170t-46 -110.5t-84 -59.5t-127.5 -18t-127.5 18t-84.5 59.5t-46.5 110.5t-14.5 170t14.5 170t46.5 110.5t84.5 59.5t127.5 18zM334 624q-68 0 -107.5 -26t-56 -86.5t-16.5 -166.5q0 -105 16.5 -166t56 -87
t107.5 -26t107.5 26t56 87t16.5 166q0 106 -16.5 166.5t-56 86.5t-107.5 26zM441 883l44 -6q3 -39 -15 -68.5t-52 -46.5t-83 -17q-48 0 -82.5 17t-52 46.5t-15.5 68.5l44 6q-1 -35 27 -55t80 -20q50 0 77.5 20t27.5 55z" />
    <glyph glyph-name="Ohungarumlaut" unicode="&#x150;" 
d="M334 703q75 0 127.5 -18t84 -59.5t46 -110.5t14.5 -170t-14.5 -170t-46 -110.5t-84 -59.5t-127.5 -18t-127.5 18t-84.5 59.5t-46.5 110.5t-14.5 170t14.5 170t46.5 110.5t84.5 59.5t127.5 18zM334 624q-68 0 -107.5 -26t-56 -86.5t-16.5 -166.5q0 -105 16.5 -166t56 -87
t107.5 -26t107.5 26t56 87t16.5 166q0 106 -16.5 166.5t-56 86.5t-107.5 26zM307 931l62 -42l-134 -160l-38 28zM471 931l62 -42l-134 -160l-38 28z" />
    <glyph glyph-name="Oslash" unicode="&#xd8;" 
d="M493 750l46 -19l-370 -789l-45 20zM334 703q75 0 127.5 -18t84 -59.5t46 -110.5t14.5 -170t-14.5 -170t-46 -110.5t-84 -59.5t-127.5 -18t-127.5 18t-84.5 59.5t-46.5 110.5t-14.5 170t14.5 170t46.5 110.5t84.5 59.5t127.5 18zM334 624q-68 0 -107.5 -26t-56 -86.5
t-16.5 -166.5q0 -105 16.5 -166t56 -87t107.5 -26t107.5 26t56 87t16.5 166q0 106 -16.5 166.5t-56 86.5t-107.5 26z" />
    <glyph glyph-name="OE" unicode="&#x152;" horiz-adv-x="913" 
d="M334 703q38 0 65.5 -3.5t53 -11t54.5 -19.5l-32 -66q-23 7 -42.5 11.5t-42.5 7t-56 2.5q-68 0 -107.5 -25.5t-56 -86t-16.5 -167.5q0 -105 16.5 -166t56 -87t107.5 -26q35 0 58 2.5t42.5 8t43.5 12.5l31 -63q-29 -14 -54.5 -22.5t-53.5 -12.5t-67 -4q-75 0 -127.5 18
t-84.5 59.5t-46.5 110.5t-14.5 170t14.5 170t46.5 110.5t84.5 59.5t127.5 18zM573 691h98t97.5 -1.5t93.5 -4.5l-3 -69h-257q-34 0 -50.5 -15.5t-16.5 -50.5v-410q0 -35 16.5 -51t50.5 -16h257l3 -68q-46 -3 -95.5 -4t-100 -1.5t-100.5 -0.5q-52 0 -85.5 36t-33.5 94v432
q0 58 35.5 94t90.5 36zM464 401l355 -1v-71l-355 -1v73z" />
    <glyph glyph-name="Racute" unicode="&#x154;" horiz-adv-x="618" 
d="M325 699q80 0 129 -17.5t71.5 -60.5t22.5 -121q0 -56 -13 -93.5t-40.5 -58t-73.5 -26.5v-5q17 -4 33.5 -16.5t30.5 -33t21 -49.5l67 -218h-94l-61 216q-13 39 -35 55.5t-57 16.5q-61 0 -106 0.5t-75 1.5t-48 1l3 73h223q51 1 80.5 12t42.5 39.5t13 79.5t-13 78.5
t-42.5 38.5t-80.5 11q-82 0 -141.5 -1t-80.5 -1l-14 69q38 4 71 6t72.5 2.5t94.5 0.5zM174 690v-690h-87v690h87zM404 921l49 -66l-192 -120l-29 39z" />
    <glyph glyph-name="uni0156" unicode="&#x156;" horiz-adv-x="618" 
d="M325 699q80 0 129 -17.5t71.5 -60.5t22.5 -121q0 -56 -13 -93.5t-40.5 -58t-73.5 -26.5v-5q17 -4 33.5 -16.5t30.5 -33t21 -49.5l67 -218h-94l-61 216q-13 39 -35 55.5t-57 16.5q-61 0 -106 0.5t-75 1.5t-48 1l3 73h223q51 1 80.5 12t42.5 39.5t13 79.5t-13 78.5
t-42.5 38.5t-80.5 11q-82 0 -141.5 -1t-80.5 -1l-14 69q38 4 71 6t72.5 2.5t94.5 0.5zM174 690v-690h-87v690h87zM339.442 -58.7666q16.3623 0 22.2705 -6.00488q5.9082 -6.00586 5.9082 -21.4482v-54.9062q0 -24.0215 -4.08984 -47.1846
q-4.09082 -23.1641 -10.9082 -44.1826t-16.8164 -40.751l-36.3604 10.2949q4.5459 26.5957 6.81836 48.9004q2.27246 22.3066 2.27246 54.0488q-21.8164 0 -21.8164 24.0215v49.7588q0.90918 15.4424 8.18066 21.4482q7.27246 6.00488 21.8164 6.00488h22.7246z" />
    <glyph glyph-name="Rcaron" unicode="&#x158;" horiz-adv-x="618" 
d="M325 699q80 0 129 -17.5t71.5 -60.5t22.5 -121q0 -56 -13 -93.5t-40.5 -58t-73.5 -26.5v-5q17 -4 33.5 -16.5t30.5 -33t21 -49.5l67 -218h-94l-61 216q-13 39 -35 55.5t-57 16.5q-61 0 -106 0.5t-75 1.5t-48 1l3 73h223q51 1 80.5 12t42.5 39.5t13 79.5t-13 78.5
t-42.5 38.5t-80.5 11q-82 0 -141.5 -1t-80.5 -1l-14 69q38 4 71 6t72.5 2.5t94.5 0.5zM174 690v-690h-87v690h87zM437 911l30 -36l-143 -128h-40l-143 128l29 36l130 -87h8z" />
    <glyph glyph-name="Sacute" unicode="&#x15a;" horiz-adv-x="561" 
d="M279 702q49 -1 101 -5t104 -15l-6 -64q-43 2 -95 3.5t-100 1.5q-37 0 -63.5 -2.5t-43.5 -12t-24.5 -31t-7.5 -59.5q0 -57 20.5 -79.5t66.5 -33.5l140 -35q80 -19 109.5 -66.5t29.5 -127.5q0 -60 -13.5 -97t-41.5 -56.5t-72 -27t-104 -7.5q-34 0 -88.5 3t-125.5 16l6 65
q59 -2 95 -3.5t62 -1.5h54q53 0 83.5 8t43 32t12.5 71q0 40 -9 62t-28.5 33.5t-49.5 18.5l-143 36q-75 19 -105.5 66t-30.5 126q0 60 13.5 96.5t41 55t69.5 24.5t100 6zM386 921l49 -66l-192 -120l-29 39z" />
    <glyph glyph-name="Scircumflex" unicode="&#x15c;" horiz-adv-x="561" 
d="M279 702q49 -1 101 -5t104 -15l-6 -64q-43 2 -95 3.5t-100 1.5q-37 0 -63.5 -2.5t-43.5 -12t-24.5 -31t-7.5 -59.5q0 -57 20.5 -79.5t66.5 -33.5l140 -35q80 -19 109.5 -66.5t29.5 -127.5q0 -60 -13.5 -97t-41.5 -56.5t-72 -27t-104 -7.5q-34 0 -88.5 3t-125.5 16l6 65
q59 -2 95 -3.5t62 -1.5h54q53 0 83.5 8t43 32t12.5 71q0 40 -9 62t-28.5 33.5t-49.5 18.5l-143 36q-75 19 -105.5 66t-30.5 126q0 60 13.5 96.5t41 55t69.5 24.5t100 6zM315 896l133 -127l-30 -37l-129 97h-8l-130 -97l-29 37l132 127h61z" />
    <glyph glyph-name="Scedilla" unicode="&#x15e;" horiz-adv-x="561" 
d="M279 702q49 -1 101 -5t104 -15l-6 -64q-43 2 -95 3.5t-100 1.5q-37 0 -63.5 -2.5t-43.5 -12t-24.5 -31t-7.5 -59.5q0 -57 20.5 -79.5t66.5 -33.5l140 -35q80 -19 109.5 -66.5t29.5 -127.5q0 -60 -13.5 -97t-41.5 -56.5t-72 -27t-104 -7.5q-34 0 -88.5 3t-125.5 16l6 65
q59 -2 95 -3.5t62 -1.5h54q53 0 83.5 8t43 32t12.5 71q0 40 -9 62t-28.5 33.5t-49.5 18.5l-143 36q-75 19 -105.5 66t-30.5 126q0 60 13.5 96.5t41 55t69.5 24.5t100 6zM241 -55q39 4 63.5 -0.5t36.5 -19.5t11 -45q-1 -42 -23 -71.5t-59 -42.5t-85 -7l13 45q41 -1 66.5 18.5
t26.5 50.5q1 18 -11 24.5t-48 7.5z" />
    <glyph glyph-name="Scaron" unicode="&#x160;" horiz-adv-x="561" 
d="M279 702q49 -1 101 -5t104 -15l-6 -64q-43 2 -95 3.5t-100 1.5q-37 0 -63.5 -2.5t-43.5 -12t-24.5 -31t-7.5 -59.5q0 -57 20.5 -79.5t66.5 -33.5l140 -35q80 -19 109.5 -66.5t29.5 -127.5q0 -60 -13.5 -97t-41.5 -56.5t-72 -27t-104 -7.5q-34 0 -88.5 3t-125.5 16l6 65
q59 -2 95 -3.5t62 -1.5h54q53 0 83.5 8t43 32t12.5 71q0 40 -9 62t-28.5 33.5t-49.5 18.5l-143 36q-75 19 -105.5 66t-30.5 126q0 60 13.5 96.5t41 55t69.5 24.5t100 6zM420 911l30 -36l-143 -128h-40l-143 128l29 36l130 -87h8z" />
    <glyph glyph-name="uni0218" unicode="&#x218;" horiz-adv-x="561" 
d="M279 702q49 -1 101 -5t104 -15l-6 -64q-43 2 -95 3.5t-100 1.5q-37 0 -63.5 -2.5t-43.5 -12t-24.5 -31t-7.5 -59.5q0 -57 20.5 -79.5t66.5 -33.5l140 -35q80 -19 109.5 -66.5t29.5 -127.5q0 -60 -13.5 -97t-41.5 -56.5t-72 -27t-104 -7.5q-34 0 -88.5 3t-125.5 16l6 65
q59 -2 95 -3.5t62 -1.5h54q53 0 83.5 8t43 32t12.5 71q0 40 -9 62t-28.5 33.5t-49.5 18.5l-143 36q-75 19 -105.5 66t-30.5 126q0 60 13.5 96.5t41 55t69.5 24.5t100 6zM297.442 -58.7666q16.3623 0 22.2705 -6.00488q5.9082 -6.00586 5.9082 -21.4482v-54.9062
q0 -24.0215 -4.08984 -47.1846q-4.09082 -23.1641 -10.9082 -44.1826t-16.8164 -40.751l-36.3604 10.2949q4.5459 26.5957 6.81836 48.9004q2.27246 22.3066 2.27246 54.0488q-21.8164 0 -21.8164 24.0215v49.7588q0.90918 15.4424 8.18066 21.4482
q7.27246 6.00488 21.8164 6.00488h22.7246z" />
    <glyph glyph-name="uni021A" unicode="&#x21a;" horiz-adv-x="581" 
d="M334 690v-690h-88v690h88zM557 690v-78h-533v78h533zM290.442 -58.7666q16.3623 0 22.2705 -6.00488q5.9082 -6.00586 5.9082 -21.4482v-54.9062q0 -24.0215 -4.08984 -47.1846q-4.09082 -23.1641 -10.9082 -44.1826t-16.8164 -40.751l-36.3604 10.2949
q4.5459 26.5957 6.81836 48.9004q2.27246 22.3066 2.27246 54.0488q-21.8164 0 -21.8164 24.0215v49.7588q0.90918 15.4424 8.18066 21.4482q7.27246 6.00488 21.8164 6.00488h22.7246z" />
    <glyph glyph-name="Tcaron" unicode="&#x164;" horiz-adv-x="581" 
d="M334 690v-690h-88v690h88zM557 690v-78h-533v78h533zM425 911l30 -36l-143 -128h-40l-143 128l29 36l130 -87h8z" />
    <glyph glyph-name="Tbar" unicode="&#x166;" horiz-adv-x="581" 
d="M474 401v-50h-369v50h369zM334 690v-690h-88v690h88zM557 690v-78h-533v78h533z" />
    <glyph glyph-name="uni0162" unicode="&#x162;" horiz-adv-x="581" 
d="M334 690v-690h-88v690h88zM557 690v-78h-533v78h533zM247 -43q39 4 63.5 -0.5t36.5 -19.5t11 -45q-1 -42 -23 -71.5t-59 -42.5t-85 -7l13 45q41 -1 66.5 18.5t26.5 50.5q1 18 -11 24.5t-48 7.5z" />
    <glyph glyph-name="Thorn" unicode="&#xde;" horiz-adv-x="592" 
d="M325 567q83 0 131 -19t69 -66t21 -133t-20.5 -133.5t-67 -66t-124.5 -18.5q-42 0 -80.5 2t-70.5 5.5t-54.5 7.5t-31.5 7l3 54h110h113q50 1 79.5 12.5t42 42t12.5 87.5q0 58 -12.5 88.5t-42 42.5t-79.5 12q-82 0 -141.5 -1t-80.5 -3l-14 71q38 4 71 5.5t72 2t95 0.5z
M175 690v-690h-88v690h88z" />
    <glyph glyph-name="Ugrave" unicode="&#xd9;" horiz-adv-x="666" 
d="M584 690v-426q0 -100 -24 -161t-78 -88.5t-145 -27.5q-93 0 -149 27.5t-81 88.5t-25 161v426h88v-426q0 -74 15.5 -117.5t51.5 -62t96 -18.5t95.5 18.5t51.5 62t16 117.5v426h88zM219 913l172 -146l-29 -39l-192 120z" />
    <glyph glyph-name="Uacute" unicode="&#xda;" horiz-adv-x="666" 
d="M584 690v-426q0 -100 -24 -161t-78 -88.5t-145 -27.5q-93 0 -149 27.5t-81 88.5t-25 161v426h88v-426q0 -74 15.5 -117.5t51.5 -62t96 -18.5t95.5 18.5t51.5 62t16 117.5v426h88zM435 921l49 -66l-192 -120l-29 39z" />
    <glyph glyph-name="Ucircumflex" unicode="&#xdb;" horiz-adv-x="666" 
d="M584 690v-426q0 -100 -24 -161t-78 -88.5t-145 -27.5q-93 0 -149 27.5t-81 88.5t-25 161v426h88v-426q0 -74 15.5 -117.5t51.5 -62t96 -18.5t95.5 18.5t51.5 62t16 117.5v426h88zM364 896l133 -127l-30 -37l-129 97h-8l-130 -97l-29 37l132 127h61z" />
    <glyph glyph-name="Utilde" unicode="&#x168;" horiz-adv-x="666" 
d="M584 690v-426q0 -100 -24 -161t-78 -88.5t-145 -27.5q-93 0 -149 27.5t-81 88.5t-25 161v426h88v-426q0 -74 15.5 -117.5t51.5 -62t96 -18.5t95.5 18.5t51.5 62t16 117.5v426h88zM254 879q23 -2 41.5 -9.5t35 -17t34 -17.5t38.5 -11q29 -4 39 9t10 41h40
q6 -56 -16.5 -85.5t-61.5 -26.5q-34 3 -58.5 16t-46 26t-46.5 15q-28 3 -37.5 -10.5t-9.5 -43.5h-40q-4 40 5.5 66t29 38t43.5 10z" />
    <glyph glyph-name="Udieresis" unicode="&#xdc;" horiz-adv-x="666" 
d="M584 690v-426q0 -100 -24 -161t-78 -88.5t-145 -27.5q-93 0 -149 27.5t-81 88.5t-25 161v426h88v-426q0 -74 15.5 -117.5t51.5 -62t96 -18.5t95.5 18.5t51.5 62t16 117.5v426h88zM437 870q24 0 24 -24v-55q0 -24 -24 -24h-28q-24 0 -24 24v55q0 24 24 24h28zM260 870
q23 0 23 -24v-55q0 -24 -23 -24h-29q-23 0 -23 24v55q0 24 23 24h29z" />
    <glyph glyph-name="Umacron" unicode="&#x16a;" horiz-adv-x="666" 
d="M584 690v-426q0 -100 -24 -161t-78 -88.5t-145 -27.5q-93 0 -149 27.5t-81 88.5t-25 161v426h88v-426q0 -74 15.5 -117.5t51.5 -62t96 -18.5t95.5 18.5t51.5 62t16 117.5v426h88zM473 849v-63h-278v63h278z" />
    <glyph glyph-name="Ubreve" unicode="&#x16c;" horiz-adv-x="666" 
d="M584 690v-426q0 -100 -24 -161t-78 -88.5t-145 -27.5q-93 0 -149 27.5t-81 88.5t-25 161v426h88v-426q0 -74 15.5 -117.5t51.5 -62t96 -18.5t95.5 18.5t51.5 62t16 117.5v426h88zM440 883l44 -6q3 -39 -15 -68.5t-52 -46.5t-83 -17q-48 0 -82.5 17t-52 46.5t-15.5 68.5
l44 6q-1 -35 27 -55t80 -20q50 0 77.5 20t27.5 55z" />
    <glyph glyph-name="Uring" unicode="&#x16e;" horiz-adv-x="666" 
d="M584 690v-426q0 -100 -24 -161t-78 -88.5t-145 -27.5q-93 0 -149 27.5t-81 88.5t-25 161v426h88v-426q0 -74 15.5 -117.5t51.5 -62t96 -18.5t95.5 18.5t51.5 62t16 117.5v426h88zM334 932q29 0 53.5 -14t39 -37.5t14.5 -53.5q0 -29 -14.5 -53t-38.5 -38t-54 -14
q-29 0 -53.5 14t-39 37.5t-14.5 53.5t14.5 53.5t39 37.5t53.5 14zM334 888q-25 0 -42 -16.5t-17 -44.5t17 -44.5t42 -16.5q26 0 43 16.5t17 44.5t-17 44.5t-43 16.5z" />
    <glyph glyph-name="Uhungarumlaut" unicode="&#x170;" horiz-adv-x="666" 
d="M584 690v-426q0 -100 -24 -161t-78 -88.5t-145 -27.5q-93 0 -149 27.5t-81 88.5t-25 161v426h88v-426q0 -74 15.5 -117.5t51.5 -62t96 -18.5t95.5 18.5t51.5 62t16 117.5v426h88zM305 931l62 -42l-134 -160l-38 28zM469 931l62 -42l-134 -160l-38 28z" />
    <glyph glyph-name="Uogonek" unicode="&#x172;" horiz-adv-x="666" 
d="M584 690v-426q0 -100 -24 -161t-78 -88.5t-145 -27.5q-93 0 -149 27.5t-81 88.5t-25 161v426h88v-426q0 -74 15.5 -117.5t51.5 -62t96 -18.5t95.5 18.5t51.5 62t16 117.5v426h88zM336 -7l38 -2q-22 -25 -41.5 -52.5t-32.5 -61.5q-15 -37 8 -48t70 4l10 -35
q-47 -20 -79.5 -20.5t-51 12.5t-22.5 35.5t5 48.5q8 25 30.5 55t65.5 64z" />
    <glyph glyph-name="Wgrave" unicode="&#x1e80;" horiz-adv-x="948" 
d="M917 690l-140 -664q-3 -11 -12 -18.5t-23 -7.5h-100q-13 0 -22.5 7.5t-11.5 19.5l-108 519q-4 20 -8 39.5t-8 38.5h-21q-4 -19 -7.5 -39t-7.5 -39l-107 -519q-3 -12 -12.5 -19.5t-22.5 -7.5h-101q-13 0 -22.5 7.5t-11.5 18.5l-140 664h93l108 -538q4 -19 7 -40.5t7 -44.5
h23q4 23 8 44t8 41l107 509q2 13 11.5 21t22.5 8h96q13 0 22 -8t12 -21l107 -509q5 -22 8.5 -43t5.5 -42h25q3 21 6 42.5t7 41.5l109 539h93zM360 913l172 -146l-29 -39l-192 120z" />
    <glyph glyph-name="Wacute" unicode="&#x1e82;" horiz-adv-x="948" 
d="M917 690l-140 -664q-3 -11 -12 -18.5t-23 -7.5h-100q-13 0 -22.5 7.5t-11.5 19.5l-108 519q-4 20 -8 39.5t-8 38.5h-21q-4 -19 -7.5 -39t-7.5 -39l-107 -519q-3 -12 -12.5 -19.5t-22.5 -7.5h-101q-13 0 -22.5 7.5t-11.5 18.5l-140 664h93l108 -538q4 -19 7 -40.5t7 -44.5
h23q4 23 8 44t8 41l107 509q2 13 11.5 21t22.5 8h96q13 0 22 -8t12 -21l107 -509q5 -22 8.5 -43t5.5 -42h25q3 21 6 42.5t7 41.5l109 539h93zM575 921l49 -66l-192 -120l-29 39z" />
    <glyph glyph-name="Wcircumflex" unicode="&#x174;" horiz-adv-x="948" 
d="M917 690l-140 -664q-3 -11 -12 -18.5t-23 -7.5h-100q-13 0 -22.5 7.5t-11.5 19.5l-108 519q-4 20 -8 39.5t-8 38.5h-21q-4 -19 -7.5 -39t-7.5 -39l-107 -519q-3 -12 -12.5 -19.5t-22.5 -7.5h-101q-13 0 -22.5 7.5t-11.5 18.5l-140 664h93l108 -538q4 -19 7 -40.5t7 -44.5
h23q4 23 8 44t8 41l107 509q2 13 11.5 21t22.5 8h96q13 0 22 -8t12 -21l107 -509q5 -22 8.5 -43t5.5 -42h25q3 21 6 42.5t7 41.5l109 539h93zM505 896l133 -127l-30 -37l-129 97h-8l-130 -97l-29 37l132 127h61z" />
    <glyph glyph-name="Wdieresis" unicode="&#x1e84;" horiz-adv-x="948" 
d="M917 690l-140 -664q-3 -11 -12 -18.5t-23 -7.5h-100q-13 0 -22.5 7.5t-11.5 19.5l-108 519q-4 20 -8 39.5t-8 38.5h-21q-4 -19 -7.5 -39t-7.5 -39l-107 -519q-3 -12 -12.5 -19.5t-22.5 -7.5h-101q-13 0 -22.5 7.5t-11.5 18.5l-140 664h93l108 -538q4 -19 7 -40.5t7 -44.5
h23q4 23 8 44t8 41l107 509q2 13 11.5 21t22.5 8h96q13 0 22 -8t12 -21l107 -509q5 -22 8.5 -43t5.5 -42h25q3 21 6 42.5t7 41.5l109 539h93zM577 869q24 0 24 -24v-55q0 -24 -24 -24h-28q-24 0 -24 24v55q0 24 24 24h28zM400 869q23 0 23 -24v-55q0 -24 -23 -24h-29
q-23 0 -23 24v55q0 24 23 24h29z" />
    <glyph glyph-name="Ygrave" unicode="&#x1ef2;" horiz-adv-x="569" 
d="M557 690l-233 -456h-79l-234 456h94l145 -291q9 -19 16.5 -39t14.5 -39h7q7 19 15 39t16 38l145 292h93zM328 296v-296h-88v296h88zM171 903l172 -146l-29 -39l-192 120z" />
    <glyph glyph-name="Yacute" unicode="&#xdd;" horiz-adv-x="569" 
d="M557 690l-233 -456h-79l-234 456h94l145 -291q9 -19 16.5 -39t14.5 -39h7q7 19 15 39t16 38l145 292h93zM328 296v-296h-88v296h88zM386 911l49 -66l-192 -120l-29 39z" />
    <glyph glyph-name="Ycircumflex" unicode="&#x176;" horiz-adv-x="569" 
d="M557 690l-233 -456h-79l-234 456h94l145 -291q9 -19 16.5 -39t14.5 -39h7q7 19 15 39t16 38l145 292h93zM328 296v-296h-88v296h88zM316 886l133 -127l-30 -37l-129 97h-8l-130 -97l-29 37l132 127h61z" />
    <glyph glyph-name="Ydieresis" unicode="&#x178;" horiz-adv-x="569" 
d="M557 690l-233 -456h-79l-234 456h94l145 -291q9 -19 16.5 -39t14.5 -39h7q7 19 15 39t16 38l145 292h93zM328 296v-296h-88v296h88zM388 860q24 0 24 -24v-55q0 -24 -24 -24h-28q-24 0 -24 24v55q0 24 24 24h28zM211 860q23 0 23 -24v-55q0 -24 -23 -24h-29q-23 0 -23 24
v55q0 24 23 24h29z" />
    <glyph glyph-name="Zacute" unicode="&#x179;" horiz-adv-x="566" 
d="M416 616l96 -1l-367 -541l-97 1zM519 75v-75h-471v75h471zM512 690v-75h-458v75h458zM382 921l49 -66l-192 -120l-29 39z" />
    <glyph glyph-name="Zdotaccent" unicode="&#x17b;" horiz-adv-x="566" 
d="M416 616l96 -1l-367 -541l-97 1zM519 75v-75h-471v75h471zM512 690v-75h-458v75h458zM295 867q26 0 26 -25v-57q0 -26 -26 -26h-27q-26 0 -26 26v57q0 25 26 25h27z" />
    <glyph glyph-name="Zcaron" unicode="&#x17d;" horiz-adv-x="566" 
d="M416 616l96 -1l-367 -541l-97 1zM519 75v-75h-471v75h471zM512 690v-75h-458v75h458zM416 911l30 -36l-143 -128h-40l-143 128l29 36l130 -87h8z" />
    <glyph glyph-name="Oslashacute" unicode="&#x1fe;" 
d="M493 750l46 -19l-370 -789l-45 20zM334 703q75 0 127.5 -18t84 -59.5t46 -110.5t14.5 -170t-14.5 -170t-46 -110.5t-84 -59.5t-127.5 -18t-127.5 18t-84.5 59.5t-46.5 110.5t-14.5 170t14.5 170t46.5 110.5t84.5 59.5t127.5 18zM334 624q-68 0 -107.5 -26t-56 -86.5
t-16.5 -166.5q0 -105 16.5 -166t56 -87t107.5 -26t107.5 26t56 87t16.5 166q0 106 -16.5 166.5t-56 86.5t-107.5 26zM436 920l48 -65l-191 -120l-30 39z" />
    <glyph glyph-name="Aringacute" unicode="&#x1fa;" horiz-adv-x="622" 
d="M357 630q12 0 20.5 -6.5t12.5 -17.5l222 -606h-91l-179 506q-5 14 -9 28.5t-8 27.5h-28q-4 -13 -8 -27.5t-9 -28.5l-179 -506h-91l222 606q5 11 13 17.5t20 6.5h92zM488 251v-76h-355v76h355zM372 1023l45 -64l-163 -90l-27 38zM312 862q29 0 53.5 -14t39 -37.5
t14.5 -53.5q0 -29 -14.5 -53t-38.5 -38t-54 -14q-29 0 -53.5 14t-39 37.5t-14.5 53.5t14.5 53.5t39 37.5t53.5 14zM312 818q-25 0 -42 -16.5t-17 -44.5t17 -44.5t42 -16.5q26 0 43 16.5t17 44.5t-17 44.5t-43 16.5z" />
    <glyph glyph-name="AEacute" unicode="&#x1fc;" horiz-adv-x="913" 
d="M567 691q93 0 161 -1t134 -5l-3 -70h-255q-31 0 -49.5 -18.5t-18.5 -50.5v-405q0 -34 16.5 -50.5t51.5 -16.5h255l3 -69q-71 -4 -145 -5t-148 -1q-52 0 -84 34t-32 86v439q0 21 9.5 42t22.5 30h-8q-13 -7 -28.5 -23.5t-29.5 -39.5l-328 -567h-92l343 582q18 32 38.5 53.5
t46.5 33.5t60.5 17t79.5 5zM477 298v-73h-300l8 73h292zM467 401l352 -1v-71l-352 -1v73zM672 913l48 -65l-191 -120l-30 39z" />
    <glyph glyph-name="uni018F" unicode="&#x18f;" horiz-adv-x="633" 
d="M313 -12q-94 0 -150.5 28t-81.5 77.5t-25 113.5q-1 90 41.5 136t126.5 46h318v-80h-313q-46 0 -64 -31.5t-17 -71.5q1 -63 35 -101.5t123 -38.5q69 0 106.5 30t52.5 90.5t15 150.5q0 80 -8.5 135t-29.5 88.5t-57.5 48.5t-93.5 15q-54 0 -104.5 -4.5t-103.5 -12.5l-11 61
q33 12 70 19.5t76.5 11.5t78.5 4q111 0 170.5 -37.5t82 -117t22.5 -205.5q0 -124 -23 -202.5t-79 -115.5t-157 -37z" />
    <glyph glyph-name="agrave" unicode="&#xe0;" horiz-adv-x="549" 
d="M308 499q54 0 91.5 -14.5t56.5 -48.5t19 -93v-343h-67l-13 106l-6 11v226q0 45 -20.5 64.5t-78.5 19.5q-38 0 -95.5 -4t-113.5 -9l-8 63q34 6 74.5 11t82.5 8t78 3zM435 300l-1 -64l-233 -1q-35 -1 -49 -18.5t-14 -48.5v-31q0 -38 18 -55.5t58 -17.5q28 0 63.5 10.5
t71.5 32.5t66 56v-63q-11 -14 -31.5 -32.5t-49 -36t-63 -29t-74.5 -11.5q-43 0 -76 15.5t-51.5 46t-18.5 74.5v53q0 57 35.5 88.5t99.5 31.5h249zM159 733l172 -146l-29 -39l-192 120z" />
    <glyph glyph-name="aacute" unicode="&#xe1;" horiz-adv-x="549" 
d="M308 499q54 0 91.5 -14.5t56.5 -48.5t19 -93v-343h-67l-13 106l-6 11v226q0 45 -20.5 64.5t-78.5 19.5q-38 0 -95.5 -4t-113.5 -9l-8 63q34 6 74.5 11t82.5 8t78 3zM435 300l-1 -64l-233 -1q-35 -1 -49 -18.5t-14 -48.5v-31q0 -38 18 -55.5t58 -17.5q28 0 63.5 10.5
t71.5 32.5t66 56v-63q-11 -14 -31.5 -32.5t-49 -36t-63 -29t-74.5 -11.5q-43 0 -76 15.5t-51.5 46t-18.5 74.5v53q0 57 35.5 88.5t99.5 31.5h249zM374 741l49 -66l-192 -120l-29 39z" />
    <glyph glyph-name="acircumflex" unicode="&#xe2;" horiz-adv-x="549" 
d="M308 499q54 0 91.5 -14.5t56.5 -48.5t19 -93v-343h-67l-13 106l-6 11v226q0 45 -20.5 64.5t-78.5 19.5q-38 0 -95.5 -4t-113.5 -9l-8 63q34 6 74.5 11t82.5 8t78 3zM435 300l-1 -64l-233 -1q-35 -1 -49 -18.5t-14 -48.5v-31q0 -38 18 -55.5t58 -17.5q28 0 63.5 10.5
t71.5 32.5t66 56v-63q-11 -14 -31.5 -32.5t-49 -36t-63 -29t-74.5 -11.5q-43 0 -76 15.5t-51.5 46t-18.5 74.5v53q0 57 35.5 88.5t99.5 31.5h249zM304 716l133 -127l-30 -37l-129 97h-8l-130 -97l-29 37l132 127h61z" />
    <glyph glyph-name="atilde" unicode="&#xe3;" horiz-adv-x="549" 
d="M308 499q54 0 91.5 -14.5t56.5 -48.5t19 -93v-343h-67l-13 106l-6 11v226q0 45 -20.5 64.5t-78.5 19.5q-38 0 -95.5 -4t-113.5 -9l-8 63q34 6 74.5 11t82.5 8t78 3zM435 300l-1 -64l-233 -1q-35 -1 -49 -18.5t-14 -48.5v-31q0 -38 18 -55.5t58 -17.5q28 0 63.5 10.5
t71.5 32.5t66 56v-63q-11 -14 -31.5 -32.5t-49 -36t-63 -29t-74.5 -11.5q-43 0 -76 15.5t-51.5 46t-18.5 74.5v53q0 57 35.5 88.5t99.5 31.5h249zM193 699q23 -2 41.5 -9.5t35 -17t34 -17.5t38.5 -11q29 -4 39 9t10 41h40q6 -56 -16.5 -85.5t-61.5 -26.5q-34 3 -58.5 16
t-46 26t-46.5 15q-28 3 -37.5 -10.5t-9.5 -43.5h-40q-4 40 5.5 66t29 38t43.5 10z" />
    <glyph glyph-name="adieresis" unicode="&#xe4;" horiz-adv-x="549" 
d="M308 499q54 0 91.5 -14.5t56.5 -48.5t19 -93v-343h-67l-13 106l-6 11v226q0 45 -20.5 64.5t-78.5 19.5q-38 0 -95.5 -4t-113.5 -9l-8 63q34 6 74.5 11t82.5 8t78 3zM435 300l-1 -64l-233 -1q-35 -1 -49 -18.5t-14 -48.5v-31q0 -38 18 -55.5t58 -17.5q28 0 63.5 10.5
t71.5 32.5t66 56v-63q-11 -14 -31.5 -32.5t-49 -36t-63 -29t-74.5 -11.5q-43 0 -76 15.5t-51.5 46t-18.5 74.5v53q0 57 35.5 88.5t99.5 31.5h249zM376 690q24 0 24 -24v-55q0 -24 -24 -24h-28q-24 0 -24 24v55q0 24 24 24h28zM199 690q23 0 23 -24v-55q0 -24 -23 -24h-29
q-23 0 -23 24v55q0 24 23 24h29z" />
    <glyph glyph-name="aring" unicode="&#xe5;" horiz-adv-x="549" 
d="M308 499q54 0 91.5 -14.5t56.5 -48.5t19 -93v-343h-67l-13 106l-6 11v226q0 45 -20.5 64.5t-78.5 19.5q-38 0 -95.5 -4t-113.5 -9l-8 63q34 6 74.5 11t82.5 8t78 3zM435 300l-1 -64l-233 -1q-35 -1 -49 -18.5t-14 -48.5v-31q0 -38 18 -55.5t58 -17.5q28 0 63.5 10.5
t71.5 32.5t66 56v-63q-11 -14 -31.5 -32.5t-49 -36t-63 -29t-74.5 -11.5q-43 0 -76 15.5t-51.5 46t-18.5 74.5v53q0 57 35.5 88.5t99.5 31.5h249zM273 751q29 0 53.5 -14t39 -37.5t14.5 -53.5q0 -29 -14.5 -53t-38.5 -38t-54 -14q-29 0 -53.5 14t-39 37.5t-14.5 53.5
t14.5 53.5t39 37.5t53.5 14zM273 707q-25 0 -42 -16.5t-17 -44.5t17 -44.5t42 -16.5q26 0 43 16.5t17 44.5t-17 44.5t-43 16.5z" />
    <glyph glyph-name="amacron" unicode="&#x101;" horiz-adv-x="549" 
d="M308 499q54 0 91.5 -14.5t56.5 -48.5t19 -93v-343h-67l-13 106l-6 11v226q0 45 -20.5 64.5t-78.5 19.5q-38 0 -95.5 -4t-113.5 -9l-8 63q34 6 74.5 11t82.5 8t78 3zM435 300l-1 -64l-233 -1q-35 -1 -49 -18.5t-14 -48.5v-31q0 -38 18 -55.5t58 -17.5q28 0 63.5 10.5
t71.5 32.5t66 56v-63q-11 -14 -31.5 -32.5t-49 -36t-63 -29t-74.5 -11.5q-43 0 -76 15.5t-51.5 46t-18.5 74.5v53q0 57 35.5 88.5t99.5 31.5h249zM413 668v-63h-278v63h278z" />
    <glyph glyph-name="abreve" unicode="&#x103;" horiz-adv-x="549" 
d="M308 499q54 0 91.5 -14.5t56.5 -48.5t19 -93v-343h-67l-13 106l-6 11v226q0 45 -20.5 64.5t-78.5 19.5q-38 0 -95.5 -4t-113.5 -9l-8 63q34 6 74.5 11t82.5 8t78 3zM435 300l-1 -64l-233 -1q-35 -1 -49 -18.5t-14 -48.5v-31q0 -38 18 -55.5t58 -17.5q28 0 63.5 10.5
t71.5 32.5t66 56v-63q-11 -14 -31.5 -32.5t-49 -36t-63 -29t-74.5 -11.5q-43 0 -76 15.5t-51.5 46t-18.5 74.5v53q0 57 35.5 88.5t99.5 31.5h249zM379 703l44 -6q3 -39 -15 -68.5t-52 -46.5t-83 -17q-48 0 -82.5 17t-52 46.5t-15.5 68.5l44 6q-1 -35 27 -55t80 -20
q50 0 77.5 20t27.5 55z" />
    <glyph glyph-name="aogonek" unicode="&#x105;" horiz-adv-x="549" 
d="M308 499q54 0 91.5 -14.5t56.5 -48.5t19 -93v-343h-67l-13 106l-6 11v226q0 45 -20.5 64.5t-78.5 19.5q-38 0 -95.5 -4t-113.5 -9l-8 63q34 6 74.5 11t82.5 8t78 3zM435 300l-1 -64l-233 -1q-35 -1 -49 -18.5t-14 -48.5v-31q0 -38 18 -55.5t58 -17.5q28 0 63.5 10.5
t71.5 32.5t66 56v-63q-11 -14 -31.5 -32.5t-49 -36t-63 -29t-74.5 -11.5q-43 0 -76 15.5t-51.5 46t-18.5 74.5v53q0 57 35.5 88.5t99.5 31.5h249zM435 2l38 -2q-22 -25 -41.5 -52.5t-32.5 -61.5q-15 -37 8 -48t70 4l10 -35q-47 -20 -79.5 -20.5t-51 12.5t-22.5 35.5t5 48.5
q8 25 30.5 55t65.5 64z" />
    <glyph glyph-name="ae" unicode="&#xe6;" horiz-adv-x="871" 
d="M612 499q110 0 159.5 -40t50.5 -119q0 -45 -13.5 -75.5t-41.5 -46.5t-72 -16h-274v66h252q38 0 51 21.5t12 50.5q0 46 -27.5 66.5t-92.5 20.5q-53 0 -83.5 -15.5t-43 -54t-12.5 -107.5q0 -78 15.5 -119t49.5 -56t90 -15q40 0 86 3.5t84 8.5l8 -57q-22 -9 -56 -15
t-69.5 -9t-63.5 -3q-83 0 -134.5 25.5t-74.5 82t-23 149.5q0 96 23 151.5t72.5 79t127.5 23.5zM435 300l-1 -64l-233 -1q-35 -1 -49 -18.5t-14 -48.5v-31q0 -38 18 -55.5t58 -17.5q29 0 65 10.5t73.5 33.5t67.5 58v-63q-11 -15 -32 -34t-50 -37t-64.5 -29.5t-76.5 -11.5
q-43 0 -76 15.5t-51.5 46t-18.5 74.5v53q0 57 35.5 88.5t99.5 31.5h249zM308 499q54 0 91.5 -14.5t56.5 -48.5t19 -93v-102h-86v102q0 45 -20.5 64.5t-78.5 19.5q-38 0 -95.5 -4t-113.5 -9l-8 63q34 6 74.5 11t82.5 8t78 3z" />
    <glyph glyph-name="ccedilla" unicode="&#xe7;" horiz-adv-x="489" 
d="M286 499q22 0 49 -2t55.5 -7t52.5 -14l-11 -55q-33 3 -69.5 4.5t-62.5 1.5q-58 0 -92 -16t-49 -56t-15 -111t15 -111.5t49 -56.5t92 -16q15 0 39 1t51.5 3t52.5 6l9 -57q-37 -13 -80.5 -19t-86.5 -6q-84 0 -135 25t-73.5 81t-22.5 150t23 150t74 80.5t135 24.5zM235 -55
q39 4 63.5 -0.5t36.5 -19.5t11 -45q-1 -42 -23 -71.5t-59 -42.5t-85 -7l13 45q41 -1 66.5 18.5t26.5 50.5q1 18 -11 24.5t-48 7.5z" />
    <glyph glyph-name="cacute" unicode="&#x107;" horiz-adv-x="489" 
d="M286 499q22 0 49 -2t55.5 -7t52.5 -14l-11 -55q-33 3 -69.5 4.5t-62.5 1.5q-58 0 -92 -16t-49 -56t-15 -111t15 -111.5t49 -56.5t92 -16q15 0 39 1t51.5 3t52.5 6l9 -57q-37 -13 -80.5 -19t-86.5 -6q-84 0 -135 25t-73.5 81t-22.5 150t23 150t74 80.5t135 24.5zM368 742
l49 -66l-192 -120l-29 39z" />
    <glyph glyph-name="ccircumflex" unicode="&#x109;" horiz-adv-x="489" 
d="M286 499q22 0 49 -2t55.5 -7t52.5 -14l-11 -55q-33 3 -69.5 4.5t-62.5 1.5q-58 0 -92 -16t-49 -56t-15 -111t15 -111.5t49 -56.5t92 -16q15 0 39 1t51.5 3t52.5 6l9 -57q-37 -13 -80.5 -19t-86.5 -6q-84 0 -135 25t-73.5 81t-22.5 150t23 150t74 80.5t135 24.5zM298 716
l133 -127l-30 -37l-129 97h-8l-130 -97l-29 37l132 127h61z" />
    <glyph glyph-name="cdotaccent" unicode="&#x10b;" horiz-adv-x="489" 
d="M286 499q22 0 49 -2t55.5 -7t52.5 -14l-11 -55q-33 3 -69.5 4.5t-62.5 1.5q-58 0 -92 -16t-49 -56t-15 -111t15 -111.5t49 -56.5t92 -16q15 0 39 1t51.5 3t52.5 6l9 -57q-37 -13 -80.5 -19t-86.5 -6q-84 0 -135 25t-73.5 81t-22.5 150t23 150t74 80.5t135 24.5zM282 687
q26 0 26 -25v-57q0 -26 -26 -26h-27q-26 0 -26 26v57q0 25 26 25h27z" />
    <glyph glyph-name="ccaron" unicode="&#x10d;" horiz-adv-x="489" 
d="M286 499q22 0 49 -2t55.5 -7t52.5 -14l-11 -55q-33 3 -69.5 4.5t-62.5 1.5q-58 0 -92 -16t-49 -56t-15 -111t15 -111.5t49 -56.5t92 -16q15 0 39 1t51.5 3t52.5 6l9 -57q-37 -13 -80.5 -19t-86.5 -6q-84 0 -135 25t-73.5 81t-22.5 150t23 150t74 80.5t135 24.5zM402 731
l30 -36l-143 -128h-40l-143 128l29 36l130 -87h8z" />
    <glyph glyph-name="dcaron" unicode="&#x10f;" horiz-adv-x="573" 
d="M240 499q48 0 95 -12.5t90 -38.5l-5 -53q-47 14 -83 22t-77 8q-42 0 -67.5 -14.5t-37.5 -53.5t-12 -111t11.5 -112t36.5 -56t64 -16q29 0 52.5 7.5t50 24.5t62.5 43l8 -60q-40 -37 -91 -63t-110 -26q-92 0 -131.5 65t-39.5 192q0 95 20 150.5t61 79.5t103 24zM494 700
v-700h-66l-10 85l-9 7v334l6 15q-4 28 -5 54t-1 55v150h85zM598 706q17 0 22.5 -6t5.5 -20v-54q1 -35 -8 -67t-23 -61l-37 9q5 26 7 48t2 53q-21 0 -21 22v50q0 14 7 20t23 6h22z" />
    <glyph glyph-name="dcroat" unicode="&#x111;" horiz-adv-x="568" 
d="M562 622v-49h-306v49h306zM240 499q48 0 95 -12.5t90 -38.5l-5 -53q-47 14 -83 22t-77 8q-42 0 -67.5 -14.5t-37.5 -53.5t-12 -111t11.5 -112t36.5 -56t64 -16q29 0 52.5 7.5t50 24.5t62.5 43l8 -60q-40 -37 -91 -63t-110 -26q-92 0 -131.5 65t-39.5 192q0 95 20 150.5
t61 79.5t103 24zM494 700v-700h-66l-10 85l-9 7v334l6 15q-4 28 -5 54t-1 55v150h85z" />
    <glyph glyph-name="eth" unicode="&#xf0;" horiz-adv-x="559" 
d="M129 698q54 3 107 -8t100 -39t82.5 -76t56 -120t20.5 -172q0 -66 -9 -120.5t-32.5 -93.5t-67 -60.5t-111.5 -21.5q-112 0 -166 55.5t-54 176.5q0 73 20 124t65 78t120 27q27 0 57.5 -5.5t62.5 -21t61 -44.5l-7 -37q-41 20 -79 28.5t-82 8.5q-49 0 -77 -18.5t-39.5 -54
t-11.5 -85.5q0 -88 31.5 -124t99.5 -36q58 0 85.5 26.5t36.5 77.5t9 124q0 93 -17 156t-46 102t-66 59t-78 27t-81 5zM413 712l30 -39l-204 -157l-31 38z" />
    <glyph glyph-name="egrave" unicode="&#xe8;" horiz-adv-x="537" 
d="M278 499q110 0 159.5 -40t49.5 -119q1 -65 -27 -101.5t-89 -36.5h-284v66h262q33 0 43 22.5t10 49.5q-1 47 -28 67t-92 20q-53 0 -83.5 -15.5t-43 -54t-12.5 -107.5q0 -78 15.5 -119t49.5 -56t90 -15q39 0 85.5 3.5t83.5 8.5l9 -57q-23 -9 -56.5 -15t-69 -9t-63.5 -3
q-84 0 -135 25.5t-74.5 82t-23.5 149.5q0 96 23.5 151.5t73 79t127.5 23.5zM166 733l172 -146l-29 -39l-192 120z" />
    <glyph glyph-name="eacute" unicode="&#xe9;" horiz-adv-x="537" 
d="M278 499q110 0 159.5 -40t49.5 -119q1 -65 -27 -101.5t-89 -36.5h-284v66h262q33 0 43 22.5t10 49.5q-1 47 -28 67t-92 20q-53 0 -83.5 -15.5t-43 -54t-12.5 -107.5q0 -78 15.5 -119t49.5 -56t90 -15q39 0 85.5 3.5t83.5 8.5l9 -57q-23 -9 -56.5 -15t-69 -9t-63.5 -3
q-84 0 -135 25.5t-74.5 82t-23.5 149.5q0 96 23.5 151.5t73 79t127.5 23.5zM382 741l49 -66l-192 -120l-29 39z" />
    <glyph glyph-name="ecircumflex" unicode="&#xea;" horiz-adv-x="537" 
d="M278 499q110 0 159.5 -40t49.5 -119q1 -65 -27 -101.5t-89 -36.5h-284v66h262q33 0 43 22.5t10 49.5q-1 47 -28 67t-92 20q-53 0 -83.5 -15.5t-43 -54t-12.5 -107.5q0 -78 15.5 -119t49.5 -56t90 -15q39 0 85.5 3.5t83.5 8.5l9 -57q-23 -9 -56.5 -15t-69 -9t-63.5 -3
q-84 0 -135 25.5t-74.5 82t-23.5 149.5q0 96 23.5 151.5t73 79t127.5 23.5zM312 716l133 -127l-30 -37l-129 97h-8l-130 -97l-29 37l132 127h61z" />
    <glyph glyph-name="edieresis" unicode="&#xeb;" horiz-adv-x="537" 
d="M278 499q110 0 159.5 -40t49.5 -119q1 -65 -27 -101.5t-89 -36.5h-284v66h262q33 0 43 22.5t10 49.5q-1 47 -28 67t-92 20q-53 0 -83.5 -15.5t-43 -54t-12.5 -107.5q0 -78 15.5 -119t49.5 -56t90 -15q39 0 85.5 3.5t83.5 8.5l9 -57q-23 -9 -56.5 -15t-69 -9t-63.5 -3
q-84 0 -135 25.5t-74.5 82t-23.5 149.5q0 96 23.5 151.5t73 79t127.5 23.5zM384 690q24 0 24 -24v-55q0 -24 -24 -24h-28q-24 0 -24 24v55q0 24 24 24h28zM207 690q23 0 23 -24v-55q0 -24 -23 -24h-29q-23 0 -23 24v55q0 24 23 24h29z" />
    <glyph glyph-name="emacron" unicode="&#x113;" horiz-adv-x="537" 
d="M278 499q110 0 159.5 -40t49.5 -119q1 -65 -27 -101.5t-89 -36.5h-284v66h262q33 0 43 22.5t10 49.5q-1 47 -28 67t-92 20q-53 0 -83.5 -15.5t-43 -54t-12.5 -107.5q0 -78 15.5 -119t49.5 -56t90 -15q39 0 85.5 3.5t83.5 8.5l9 -57q-23 -9 -56.5 -15t-69 -9t-63.5 -3
q-84 0 -135 25.5t-74.5 82t-23.5 149.5q0 96 23.5 151.5t73 79t127.5 23.5zM420 668v-63h-278v63h278z" />
    <glyph glyph-name="ebreve" unicode="&#x115;" horiz-adv-x="537" 
d="M278 499q110 0 159.5 -40t49.5 -119q1 -65 -27 -101.5t-89 -36.5h-284v66h262q33 0 43 22.5t10 49.5q-1 47 -28 67t-92 20q-53 0 -83.5 -15.5t-43 -54t-12.5 -107.5q0 -78 15.5 -119t49.5 -56t90 -15q39 0 85.5 3.5t83.5 8.5l9 -57q-23 -9 -56.5 -15t-69 -9t-63.5 -3
q-84 0 -135 25.5t-74.5 82t-23.5 149.5q0 96 23.5 151.5t73 79t127.5 23.5zM387 703l44 -6q3 -39 -15 -68.5t-52 -46.5t-83 -17q-48 0 -82.5 17t-52 46.5t-15.5 68.5l44 6q-1 -35 27 -55t80 -20q50 0 77.5 20t27.5 55z" />
    <glyph glyph-name="edotaccent" unicode="&#x117;" horiz-adv-x="537" 
d="M278 499q110 0 159.5 -40t49.5 -119q1 -65 -27 -101.5t-89 -36.5h-284v66h262q33 0 43 22.5t10 49.5q-1 47 -28 67t-92 20q-53 0 -83.5 -15.5t-43 -54t-12.5 -107.5q0 -78 15.5 -119t49.5 -56t90 -15q39 0 85.5 3.5t83.5 8.5l9 -57q-23 -9 -56.5 -15t-69 -9t-63.5 -3
q-84 0 -135 25.5t-74.5 82t-23.5 149.5q0 96 23.5 151.5t73 79t127.5 23.5zM295 686q26 0 26 -25v-57q0 -26 -26 -26h-27q-26 0 -26 26v57q0 25 26 25h27z" />
    <glyph glyph-name="eogonek" unicode="&#x119;" horiz-adv-x="537" 
d="M278 499q110 0 159.5 -40t49.5 -119q1 -65 -27 -101.5t-89 -36.5h-284v66h262q33 0 43 22.5t10 49.5q-1 47 -28 67t-92 20q-53 0 -83.5 -15.5t-43 -54t-12.5 -107.5q0 -78 15.5 -119t49.5 -56t90 -15q39 0 85.5 3.5t83.5 8.5l9 -57q-23 -9 -56.5 -15t-69 -9t-63.5 -3
q-84 0 -135 25.5t-74.5 82t-23.5 149.5q0 96 23.5 151.5t73 79t127.5 23.5zM437 18l38 -2q-22 -25 -41.5 -52.5t-32.5 -61.5q-15 -37 8 -48t70 4l10 -35q-47 -20 -79.5 -20.5t-51 12.5t-22.5 35.5t5 48.5q8 25 30.5 55t65.5 64z" />
    <glyph glyph-name="ecaron" unicode="&#x11b;" horiz-adv-x="537" 
d="M278 499q110 0 159.5 -40t49.5 -119q1 -65 -27 -101.5t-89 -36.5h-284v66h262q33 0 43 22.5t10 49.5q-1 47 -28 67t-92 20q-53 0 -83.5 -15.5t-43 -54t-12.5 -107.5q0 -78 15.5 -119t49.5 -56t90 -15q39 0 85.5 3.5t83.5 8.5l9 -57q-23 -9 -56.5 -15t-69 -9t-63.5 -3
q-84 0 -135 25.5t-74.5 82t-23.5 149.5q0 96 23.5 151.5t73 79t127.5 23.5zM416 730l30 -36l-143 -128h-40l-143 128l29 36l130 -87h8z" />
    <glyph glyph-name="gcircumflex" unicode="&#x11d;" horiz-adv-x="558" 
d="M271 499q78 0 123.5 -16t65 -50t19.5 -89q0 -53 -19.5 -87.5t-65.5 -51t-124 -16.5t-123.5 16.5t-65 50.5t-19.5 87q0 55 19.5 89.5t65.5 50.5t124 16zM270 434q-73 0 -101.5 -20.5t-28.5 -69.5q0 -48 28.5 -69t101.5 -21q74 0 102 21t28 69q0 49 -28 69.5t-102 20.5z
M536 487l-5 -47l-124 -10l-35 57h164zM133 221l49 -7q-17 -15 -23 -36.5t3.5 -39.5t40.5 -23l182 -29q69 -10 96 -43t27 -94q0 -57 -21.5 -90t-72.5 -47t-138 -14q-66 0 -111 7.5t-72.5 25t-39.5 45.5t-12 70q0 32 9.5 53.5t30 38.5t53.5 33l60 33l39 -14l-49 -37
q-20 -15 -33.5 -29.5t-20 -31t-6.5 -39.5q0 -34 13 -52t46 -24.5t92 -6.5t91.5 7t45.5 25t13 51q0 25 -6.5 38t-24.5 20t-53 12l-175 24q-31 4 -49.5 20t-25.5 38t-4 44.5t15 42t31 29.5zM302 716l133 -127l-30 -37l-129 97h-8l-130 -97l-29 37l132 127h61z" />
    <glyph glyph-name="gbreve" unicode="&#x11f;" horiz-adv-x="558" 
d="M271 499q78 0 123.5 -16t65 -50t19.5 -89q0 -53 -19.5 -87.5t-65.5 -51t-124 -16.5t-123.5 16.5t-65 50.5t-19.5 87q0 55 19.5 89.5t65.5 50.5t124 16zM270 434q-73 0 -101.5 -20.5t-28.5 -69.5q0 -48 28.5 -69t101.5 -21q74 0 102 21t28 69q0 49 -28 69.5t-102 20.5z
M536 487l-5 -47l-124 -10l-35 57h164zM133 221l49 -7q-17 -15 -23 -36.5t3.5 -39.5t40.5 -23l182 -29q69 -10 96 -43t27 -94q0 -57 -21.5 -90t-72.5 -47t-138 -14q-66 0 -111 7.5t-72.5 25t-39.5 45.5t-12 70q0 32 9.5 53.5t30 38.5t53.5 33l60 33l39 -14l-49 -37
q-20 -15 -33.5 -29.5t-20 -31t-6.5 -39.5q0 -34 13 -52t46 -24.5t92 -6.5t91.5 7t45.5 25t13 51q0 25 -6.5 38t-24.5 20t-53 12l-175 24q-31 4 -49.5 20t-25.5 38t-4 44.5t15 42t31 29.5zM377 704l44 -6q3 -39 -15 -68.5t-52 -46.5t-83 -17q-48 0 -82.5 17t-52 46.5
t-15.5 68.5l44 6q-1 -35 27 -55t80 -20q50 0 77.5 20t27.5 55z" />
    <glyph glyph-name="gdotaccent" unicode="&#x121;" horiz-adv-x="558" 
d="M271 499q78 0 123.5 -16t65 -50t19.5 -89q0 -53 -19.5 -87.5t-65.5 -51t-124 -16.5t-123.5 16.5t-65 50.5t-19.5 87q0 55 19.5 89.5t65.5 50.5t124 16zM270 434q-73 0 -101.5 -20.5t-28.5 -69.5q0 -48 28.5 -69t101.5 -21q74 0 102 21t28 69q0 49 -28 69.5t-102 20.5z
M536 487l-5 -47l-124 -10l-35 57h164zM133 221l49 -7q-17 -15 -23 -36.5t3.5 -39.5t40.5 -23l182 -29q69 -10 96 -43t27 -94q0 -57 -21.5 -90t-72.5 -47t-138 -14q-66 0 -111 7.5t-72.5 25t-39.5 45.5t-12 70q0 32 9.5 53.5t30 38.5t53.5 33l60 33l39 -14l-49 -37
q-20 -15 -33.5 -29.5t-20 -31t-6.5 -39.5q0 -34 13 -52t46 -24.5t92 -6.5t91.5 7t45.5 25t13 51q0 25 -6.5 38t-24.5 20t-53 12l-175 24q-31 4 -49.5 20t-25.5 38t-4 44.5t15 42t31 29.5zM286 687q26 0 26 -25v-57q0 -26 -26 -26h-27q-26 0 -26 26v57q0 25 26 25h27z" />
    <glyph glyph-name="uni0123" unicode="&#x123;" horiz-adv-x="558" 
d="M271 499q78 0 123.5 -16t65 -50t19.5 -89q0 -53 -19.5 -87.5t-65.5 -51t-124 -16.5t-123.5 16.5t-65 50.5t-19.5 87q0 55 19.5 89.5t65.5 50.5t124 16zM270 434q-73 0 -101.5 -20.5t-28.5 -69.5q0 -48 28.5 -69t101.5 -21q74 0 102 21t28 69q0 49 -28 69.5t-102 20.5z
M536 487l-5 -47l-124 -10l-35 57h164zM133 221l49 -7q-17 -15 -23 -36.5t3.5 -39.5t40.5 -23l182 -29q69 -10 96 -43t27 -94q0 -57 -21.5 -90t-72.5 -47t-138 -14q-66 0 -111 7.5t-72.5 25t-39.5 45.5t-12 70q0 32 9.5 53.5t30 38.5t53.5 33l60 33l39 -14l-49 -37
q-20 -15 -33.5 -29.5t-20 -31t-6.5 -39.5q0 -34 13 -52t46 -24.5t92 -6.5t91.5 7t45.5 25t13 51q0 25 -6.5 38t-24.5 20t-53 12l-175 24q-31 4 -49.5 20t-25.5 38t-4 44.5t15 42t31 29.5zM272.558 557.767q-16.3623 0 -22.2705 6.00488q-5.9082 6.00586 -5.9082 21.4482
v54.9062q0 24.0215 4.08984 47.1846q4.09082 23.1641 10.9082 44.1826t16.8164 40.751l36.3604 -10.2949q-4.5459 -26.5957 -6.81836 -48.9004q-2.27246 -22.3066 -2.27246 -54.0488q21.8164 0 21.8164 -24.0215v-49.7588q-0.90918 -15.4424 -8.18066 -21.4482
q-7.27246 -6.00488 -21.8164 -6.00488h-22.7246z" />
    <glyph glyph-name="hcircumflex" unicode="&#x125;" horiz-adv-x="581" 
d="M374 499q132 0 132 -134v-365h-86v341q0 49 -15.5 67.5t-53.5 18.5q-45 0 -90 -21t-107 -61l-4 61q57 43 113 68t111 25zM163 700l1 -193q0 -33 -2.5 -62t-7.5 -51l9 -15v-379h-85v700h85zM150 868l133 -127l-30 -37l-129 97h-8l-130 -97l-29 37l132 127h61z" />
    <glyph glyph-name="hbar" unicode="&#x127;" horiz-adv-x="585" 
d="M313 622v-49h-307v49h307zM378 499q132 0 132 -134v-365h-86v341q0 49 -15.5 67.5t-53.5 18.5q-45 0 -90 -21t-107 -61l-4 61q57 43 113 68t111 25zM167 700l1 -193q0 -33 -2.5 -62t-7.5 -51l9 -15v-379h-85v700h85z" />
    <glyph glyph-name="igrave" unicode="&#xec;" horiz-adv-x="249" 
d="M167 487v-487h-85v487h85zM10 734l172 -146l-29 -39l-192 120z" />
    <glyph glyph-name="iacute" unicode="&#xed;" horiz-adv-x="249" 
d="M167 487v-487h-85v487h85zM226 742l49 -66l-192 -120l-29 39z" />
    <glyph glyph-name="icircumflex" unicode="&#xee;" horiz-adv-x="249" 
d="M167 487v-487h-85v487h85zM155 716l133 -127l-30 -37l-129 97h-8l-130 -97l-29 37l132 127h61z" />
    <glyph glyph-name="itilde" unicode="&#x129;" horiz-adv-x="249" 
d="M167 487v-487h-85v487h85zM45 700q23 -2 41.5 -9.5t35 -17t34 -17.5t38.5 -11q29 -4 39 9t10 41h40q6 -56 -16.5 -85.5t-61.5 -26.5q-34 3 -58.5 16t-46 26t-46.5 15q-28 3 -37.5 -10.5t-9.5 -43.5h-40q-4 40 5.5 66t29 38t43.5 10z" />
    <glyph glyph-name="idieresis" unicode="&#xef;" horiz-adv-x="249" 
d="M167 487v-487h-85v487h85zM227 690q24 0 24 -24v-55q0 -24 -24 -24h-28q-24 0 -24 24v55q0 24 24 24h28zM50 690q23 0 23 -24v-55q0 -24 -23 -24h-29q-23 0 -23 24v55q0 24 23 24h29z" />
    <glyph glyph-name="imacron" unicode="&#x12b;" horiz-adv-x="249" 
d="M167 487v-487h-85v487h85zM264 669v-63h-278v63h278z" />
    <glyph glyph-name="ibreve" unicode="&#x12d;" horiz-adv-x="249" 
d="M167 487v-487h-85v487h85zM230 704l44 -6q3 -39 -15 -68.5t-52 -46.5t-83 -17q-48 0 -82.5 17t-52 46.5t-15.5 68.5l44 6q-1 -35 27 -55t80 -20q50 0 77.5 20t27.5 55z" />
    <glyph glyph-name="iogonek" unicode="&#x12f;" horiz-adv-x="249" 
d="M167 487v-487h-85v487h85zM139 687q26 0 26 -25v-57q0 -26 -26 -26h-27q-26 0 -26 26v57q0 25 26 25h27zM122 2l38 -2q-22 -25 -41.5 -52.5t-32.5 -61.5q-15 -37 8 -48t70 4l10 -35q-47 -20 -79.5 -20.5t-51 12.5t-22.5 35.5t5 48.5q8 25 30.5 55t65.5 64z" />
    <glyph glyph-name="ij" unicode="&#x133;" horiz-adv-x="498" 
d="M166 487v-487h-84v487h84zM144 694q26 0 26 -26v-57q0 -26 -26 -26h-40q-26 0 -26 26v57q0 26 26 26h40zM416 487v-499q0 -39 -11.5 -74.5t-32.5 -65t-50 -51.5l-47 37q29 35 42.5 71t13.5 83v499h85zM394 694q25 0 25 -26v-57q0 -26 -25 -26h-40q-26 0 -26 26v57
q0 26 26 26h40z" />
    <glyph glyph-name="jcircumflex" unicode="&#x135;" horiz-adv-x="250" 
d="M168 487v-499q0 -39 -11.5 -74.5t-32.5 -65t-50 -51.5l-47 37q29 35 42.5 71t13.5 83v499h85zM155 716l133 -127l-30 -37l-129 97h-8l-130 -97l-29 37l132 127h61z" />
    <glyph glyph-name="uni0137" unicode="&#x137;" horiz-adv-x="509" 
d="M476 487l-153 -179q-7 -9 -17 -18.5t-17 -14.5v-2q7 -5 17 -16.5t17 -22.5l169 -234h-99l-193 279l177 208h99zM163 700l1 -311q0 -31 -2.5 -57.5t-7.5 -55.5q5 -28 7 -56t2 -54v-166h-85v700h85zM246 306v-62h-113v62h113zM287.442 -58.7666q16.3623 0 22.2705 -6.00488
q5.9082 -6.00586 5.9082 -21.4482v-54.9062q0 -24.0215 -4.08984 -47.1846q-4.09082 -23.1641 -10.9082 -44.1826t-16.8164 -40.751l-36.3604 10.2949q4.5459 26.5957 6.81836 48.9004q2.27246 22.3066 2.27246 54.0488q-21.8164 0 -21.8164 24.0215v49.7588
q0.90918 15.4424 8.18066 21.4482q7.27246 6.00488 21.8164 6.00488h22.7246z" />
    <glyph glyph-name="lacute" unicode="&#x13a;" horiz-adv-x="297" 
d="M164 700l-1 -566q0 -32 17.5 -48.5t49.5 -16.5h47l10 -65q-9 -4 -25.5 -7t-34 -4.5t-29.5 -1.5q-54 0 -86.5 32t-32.5 92v585h85zM222 938l49 -66l-192 -120l-29 39z" />
    <glyph glyph-name="uni013C" unicode="&#x13c;" horiz-adv-x="297" 
d="M164 700l-1 -566q0 -32 17.5 -48.5t49.5 -16.5h47l10 -65q-9 -4 -25.5 -7t-34 -4.5t-29.5 -1.5q-54 0 -86.5 32t-32.5 92v585h85zM184.442 -60.7666q16.3623 0 22.2705 -6.00488q5.9082 -6.00586 5.9082 -21.4482v-54.9062q0 -24.0215 -4.08984 -47.1846
q-4.09082 -23.1641 -10.9082 -44.1826t-16.8164 -40.751l-36.3604 10.2949q4.5459 26.5957 6.81836 48.9004q2.27246 22.3066 2.27246 54.0488q-21.8164 0 -21.8164 24.0215v49.7588q0.90918 15.4424 8.18066 21.4482q7.27246 6.00488 21.8164 6.00488h22.7246z" />
    <glyph glyph-name="lcaron" unicode="&#x13e;" horiz-adv-x="297" 
d="M164 700l-1 -566q0 -32 17.5 -48.5t49.5 -16.5h47l10 -65q-9 -4 -25.5 -7t-34 -4.5t-29.5 -1.5q-54 0 -86.5 32t-32.5 92v585h85zM272 702q17 0 22.5 -6t5.5 -20v-54q1 -35 -8 -67t-23 -61l-37 9q5 26 7 48t2 53q-21 0 -21 22v50q0 14 7 20t23 6h22z" />
    <glyph glyph-name="ldot" unicode="&#x140;" horiz-adv-x="320" 
d="M265 336q-26 0 -26 25v57q0 26 26 26h27q26 0 26 -26v-57q0 -25 -26 -25h-27zM164 700l-1 -566q0 -32 17.5 -48.5t49.5 -16.5h47l10 -65q-9 -4 -25.5 -7t-34 -4.5t-29.5 -1.5q-54 0 -86.5 32t-32.5 92v585h85z" />
    <glyph glyph-name="lslash" unicode="&#x142;" horiz-adv-x="328" 
d="M294 470v-55l-273 -114v55zM186 700l-1 -566q0 -32 17.5 -48.5t49.5 -16.5h47l10 -65q-9 -4 -25.5 -7t-34 -4.5t-29.5 -1.5q-54 0 -86.5 32t-32.5 92v585h85z" />
    <glyph glyph-name="ntilde" unicode="&#xf1;" horiz-adv-x="581" 
d="M374 499q132 0 132 -134v-365h-85v341q0 49 -16 67.5t-54 18.5q-45 0 -90 -22t-107 -60l-4 61q57 44 113 68.5t111 24.5zM150 487l7 -93l6 -15v-379h-85v487h72zM223 699q23 -2 41.5 -9.5t35 -17t34 -17.5t38.5 -11q29 -4 39 9t10 41h40q6 -56 -16.5 -85.5t-61.5 -26.5
q-34 3 -58.5 16t-46 26t-46.5 15q-28 3 -37.5 -10.5t-9.5 -43.5h-40q-4 40 5.5 66t29 38t43.5 10z" />
    <glyph glyph-name="nacute" unicode="&#x144;" horiz-adv-x="581" 
d="M374 499q132 0 132 -134v-365h-85v341q0 49 -16 67.5t-54 18.5q-45 0 -90 -22t-107 -60l-4 61q57 44 113 68.5t111 24.5zM150 487l7 -93l6 -15v-379h-85v487h72zM404 741l49 -66l-192 -120l-29 39z" />
    <glyph glyph-name="uni0146" unicode="&#x146;" horiz-adv-x="581" 
d="M302.442 -58.7666q16.3623 0 22.2705 -6.00488q5.9082 -6.00586 5.9082 -21.4482v-54.9062q0 -24.0215 -4.08984 -47.1846q-4.09082 -23.1641 -10.9082 -44.1826t-16.8164 -40.751l-36.3604 10.2949q4.5459 26.5957 6.81836 48.9004q2.27246 22.3066 2.27246 54.0488
q-21.8164 0 -21.8164 24.0215v49.7588q0.90918 15.4424 8.18066 21.4482q7.27246 6.00488 21.8164 6.00488h22.7246zM374 499q132 0 132 -134v-365h-85v341q0 49 -16 67.5t-54 18.5q-45 0 -90 -22t-107 -60l-4 61q57 44 113 68.5t111 24.5zM150 487l7 -93l6 -15v-379h-85
v487h72z" />
    <glyph glyph-name="ncaron" unicode="&#x148;" horiz-adv-x="581" 
d="M374 499q132 0 132 -134v-365h-85v341q0 49 -16 67.5t-54 18.5q-45 0 -90 -22t-107 -60l-4 61q57 44 113 68.5t111 24.5zM150 487l7 -93l6 -15v-379h-85v487h72zM438 730l30 -36l-143 -128h-40l-143 128l29 36l130 -87h8z" />
    <glyph glyph-name="eng" unicode="&#x14b;" horiz-adv-x="581" 
d="M373 499q133 0 133 -134v-433q0 -67 -31.5 -102.5t-92.5 -34.5q-12 0 -27 1.5t-30 4.5t-29 7l10 54h43q72 0 72 77v402q0 43 -16 61.5t-56 18.5t-86 -19.5t-100 -51.5v-350h-85v487h66l8 -80q57 45 112.5 68.5t108.5 23.5z" />
    <glyph glyph-name="ograve" unicode="&#xf2;" horiz-adv-x="568" 
d="M284 499q84 0 134.5 -25t72.5 -81.5t22 -149.5t-22 -149.5t-72.5 -81.5t-134.5 -25q-83 0 -133.5 25t-73 81.5t-22.5 149.5t22.5 149.5t73 81.5t133.5 25zM284 427q-53 0 -83.5 -16.5t-43.5 -56.5t-13 -111t13 -111t43.5 -56.5t83.5 -16.5t84 16.5t44 56.5t13 111
t-13 111t-44 56.5t-84 16.5zM171 729l172 -146l-29 -39l-192 120z" />
    <glyph glyph-name="oacute" unicode="&#xf3;" horiz-adv-x="568" 
d="M284 499q84 0 134.5 -25t72.5 -81.5t22 -149.5t-22 -149.5t-72.5 -81.5t-134.5 -25q-83 0 -133.5 25t-73 81.5t-22.5 149.5t22.5 149.5t73 81.5t133.5 25zM284 427q-53 0 -83.5 -16.5t-43.5 -56.5t-13 -111t13 -111t43.5 -56.5t83.5 -16.5t84 16.5t44 56.5t13 111
t-13 111t-44 56.5t-84 16.5zM386 737l49 -66l-192 -120l-29 39z" />
    <glyph glyph-name="ocircumflex" unicode="&#xf4;" horiz-adv-x="568" 
d="M284 499q84 0 134.5 -25t72.5 -81.5t22 -149.5t-22 -149.5t-72.5 -81.5t-134.5 -25q-83 0 -133.5 25t-73 81.5t-22.5 149.5t22.5 149.5t73 81.5t133.5 25zM284 427q-53 0 -83.5 -16.5t-43.5 -56.5t-13 -111t13 -111t43.5 -56.5t83.5 -16.5t84 16.5t44 56.5t13 111
t-13 111t-44 56.5t-84 16.5zM316 712l133 -127l-30 -37l-129 97h-8l-130 -97l-29 37l132 127h61z" />
    <glyph glyph-name="otilde" unicode="&#xf5;" horiz-adv-x="568" 
d="M284 499q84 0 134.5 -25t72.5 -81.5t22 -149.5t-22 -149.5t-72.5 -81.5t-134.5 -25q-83 0 -133.5 25t-73 81.5t-22.5 149.5t22.5 149.5t73 81.5t133.5 25zM284 427q-53 0 -83.5 -16.5t-43.5 -56.5t-13 -111t13 -111t43.5 -56.5t83.5 -16.5t84 16.5t44 56.5t13 111
t-13 111t-44 56.5t-84 16.5zM205 695q23 -2 41.5 -9.5t35 -17t34 -17.5t38.5 -11q29 -4 39 9t10 41h40q6 -56 -16.5 -85.5t-61.5 -26.5q-34 3 -58.5 16t-46 26t-46.5 15q-28 3 -37.5 -10.5t-9.5 -43.5h-40q-4 40 5.5 66t29 38t43.5 10z" />
    <glyph glyph-name="odieresis" unicode="&#xf6;" horiz-adv-x="568" 
d="M284 499q84 0 134.5 -25t72.5 -81.5t22 -149.5t-22 -149.5t-72.5 -81.5t-134.5 -25q-83 0 -133.5 25t-73 81.5t-22.5 149.5t22.5 149.5t73 81.5t133.5 25zM284 427q-53 0 -83.5 -16.5t-43.5 -56.5t-13 -111t13 -111t43.5 -56.5t83.5 -16.5t84 16.5t44 56.5t13 111
t-13 111t-44 56.5t-84 16.5zM388 686q24 0 24 -24v-55q0 -24 -24 -24h-28q-24 0 -24 24v55q0 24 24 24h28zM211 686q23 0 23 -24v-55q0 -24 -23 -24h-29q-23 0 -23 24v55q0 24 23 24h29z" />
    <glyph glyph-name="omacron" unicode="&#x14d;" horiz-adv-x="568" 
d="M284 499q84 0 134.5 -25t72.5 -81.5t22 -149.5t-22 -149.5t-72.5 -81.5t-134.5 -25q-83 0 -133.5 25t-73 81.5t-22.5 149.5t22.5 149.5t73 81.5t133.5 25zM284 427q-53 0 -83.5 -16.5t-43.5 -56.5t-13 -111t13 -111t43.5 -56.5t83.5 -16.5t84 16.5t44 56.5t13 111
t-13 111t-44 56.5t-84 16.5zM425 665v-63h-278v63h278z" />
    <glyph glyph-name="obreve" unicode="&#x14f;" horiz-adv-x="568" 
d="M284 499q84 0 134.5 -25t72.5 -81.5t22 -149.5t-22 -149.5t-72.5 -81.5t-134.5 -25q-83 0 -133.5 25t-73 81.5t-22.5 149.5t22.5 149.5t73 81.5t133.5 25zM284 427q-53 0 -83.5 -16.5t-43.5 -56.5t-13 -111t13 -111t43.5 -56.5t83.5 -16.5t84 16.5t44 56.5t13 111
t-13 111t-44 56.5t-84 16.5zM391 699l44 -6q3 -39 -15 -68.5t-52 -46.5t-83 -17q-48 0 -82.5 17t-52 46.5t-15.5 68.5l44 6q-1 -35 27 -55t80 -20q50 0 77.5 20t27.5 55z" />
    <glyph glyph-name="ohungarumlaut" unicode="&#x151;" horiz-adv-x="568" 
d="M284 499q84 0 134.5 -25t72.5 -81.5t22 -149.5t-22 -149.5t-72.5 -81.5t-134.5 -25q-83 0 -133.5 25t-73 81.5t-22.5 149.5t22.5 149.5t73 81.5t133.5 25zM284 427q-53 0 -83.5 -16.5t-43.5 -56.5t-13 -111t13 -111t43.5 -56.5t83.5 -16.5t84 16.5t44 56.5t13 111
t-13 111t-44 56.5t-84 16.5zM257 747l62 -42l-134 -160l-38 28zM421 747l62 -42l-134 -160l-38 28z" />
    <glyph glyph-name="oslash" unicode="&#xf8;" horiz-adv-x="568" 
d="M405 560l39 -19l-287 -616l-39 19zM284 499q84 0 134.5 -25t72.5 -81.5t22 -149.5t-22 -149.5t-72.5 -81.5t-134.5 -25q-83 0 -133.5 25t-73 81.5t-22.5 149.5t22.5 149.5t73 81.5t133.5 25zM284 427q-53 0 -83.5 -16.5t-43.5 -56.5t-13 -111t13 -111t43.5 -56.5
t83.5 -16.5t84 16.5t44 56.5t13 111t-13 111t-44 56.5t-84 16.5z" />
    <glyph glyph-name="oe" unicode="&#x153;" horiz-adv-x="907" 
d="M284 -13q-83 0 -133.5 25t-73 81.5t-22.5 149.5t22.5 149.5t73 81.5t133.5 25q84 0 134.5 -25t72.5 -81.5t22 -149.5t-22 -149.5t-72.5 -81.5t-134.5 -25zM284 59q53 0 84 16.5t44 56.5t13 111t-13 111t-44 56.5t-84 16.5t-83.5 -16.5t-43.5 -56.5t-13 -111t13 -111
t43.5 -56.5t83.5 -16.5zM656 -12q-84 0 -135 25.5t-74 82.5t-23 151q0 93 22 148t70.5 79.5t126.5 24.5q114 0 164 -40t51 -110q0 -55 -15.5 -86t-48.5 -44t-88 -13h-250v63h245q41 0 57 18t14 63q-2 39 -32 58t-95 19q-50 0 -79 -16t-41 -54.5t-12 -106.5q0 -78 15.5 -119
t49.5 -56t91 -15q38 0 84.5 3.5t83.5 8.5l8 -57q-22 -9 -55.5 -15t-69 -9t-64.5 -3z" />
    <glyph glyph-name="racute" unicode="&#x155;" horiz-adv-x="401" 
d="M144 487l11 -93l8 -15v-379h-85v487h66zM383 499l-10 -80h-28q-43 0 -86 -17.5t-105 -49.5l-7 53q54 44 108.5 69t105.5 25h22zM321 742l49 -66l-192 -120l-29 39z" />
    <glyph glyph-name="uni0157" unicode="&#x157;" horiz-adv-x="401" 
d="M144 487l11 -93l8 -15v-379h-85v487h66zM383 499l-10 -80h-28q-43 0 -86 -17.5t-105 -49.5l-7 53q54 44 108.5 69t105.5 25h22zM124.442 -58.7666q16.3623 0 22.2705 -6.00488q5.9082 -6.00586 5.9082 -21.4482v-54.9062q0 -24.0215 -4.08984 -47.1846
q-4.09082 -23.1641 -10.9082 -44.1826t-16.8164 -40.751l-36.3604 10.2949q4.5459 26.5957 6.81836 48.9004q2.27246 22.3066 2.27246 54.0488q-21.8164 0 -21.8164 24.0215v49.7588q0.90918 15.4424 8.18066 21.4482q7.27246 6.00488 21.8164 6.00488h22.7246z" />
    <glyph glyph-name="rcaron" unicode="&#x159;" horiz-adv-x="401" 
d="M144 487l11 -93l8 -15v-379h-85v487h66zM383 499l-10 -80h-28q-43 0 -86 -17.5t-105 -49.5l-7 53q54 44 108.5 69t105.5 25h22zM355 731l30 -36l-143 -128h-40l-143 128l29 36l130 -87h8z" />
    <glyph glyph-name="sacute" unicode="&#x15b;" horiz-adv-x="508" 
d="M240 499q32 0 68 -2t71.5 -5t65.5 -8l-7 -62q-46 2 -92.5 3.5t-92.5 1.5q-45 1 -71 -2t-37.5 -16t-11.5 -44q0 -38 18 -50t53 -20l142 -32q58 -14 85.5 -43t27.5 -91q0 -60 -22.5 -90t-68.5 -40t-117 -10q-26 0 -77.5 2t-113.5 12l6 62q24 -1 51 -2.5t56.5 -1.5h60.5
q55 0 86 5t44 19.5t13 43.5q0 36 -21 48t-56 20l-140 32q-40 10 -64 26.5t-35 43t-11 66.5q0 57 20 86t62 39t108 9zM359 742l49 -66l-192 -120l-29 39z" />
    <glyph glyph-name="scircumflex" unicode="&#x15d;" horiz-adv-x="508" 
d="M240 499q32 0 68 -2t71.5 -5t65.5 -8l-7 -62q-46 2 -92.5 3.5t-92.5 1.5q-45 1 -71 -2t-37.5 -16t-11.5 -44q0 -38 18 -50t53 -20l142 -32q58 -14 85.5 -43t27.5 -91q0 -60 -22.5 -90t-68.5 -40t-117 -10q-26 0 -77.5 2t-113.5 12l6 62q24 -1 51 -2.5t56.5 -1.5h60.5
q55 0 86 5t44 19.5t13 43.5q0 36 -21 48t-56 20l-140 32q-40 10 -64 26.5t-35 43t-11 66.5q0 57 20 86t62 39t108 9zM288 716l133 -127l-30 -37l-129 97h-8l-130 -97l-29 37l132 127h61z" />
    <glyph glyph-name="scedilla" unicode="&#x15f;" horiz-adv-x="508" 
d="M240 499q32 0 68 -2t71.5 -5t65.5 -8l-7 -62q-46 2 -92.5 3.5t-92.5 1.5q-45 1 -71 -2t-37.5 -16t-11.5 -44q0 -38 18 -50t53 -20l142 -32q58 -14 85.5 -43t27.5 -91q0 -60 -22.5 -90t-68.5 -40t-117 -10q-26 0 -77.5 2t-113.5 12l6 62q24 -1 51 -2.5t56.5 -1.5h60.5
q55 0 86 5t44 19.5t13 43.5q0 36 -21 48t-56 20l-140 32q-40 10 -64 26.5t-35 43t-11 66.5q0 57 20 86t62 39t108 9zM206 -54q39 4 63.5 -0.5t36.5 -19.5t11 -45q-1 -42 -23 -71.5t-59 -42.5t-85 -7l13 45q41 -1 66.5 18.5t26.5 50.5q1 18 -11 24.5t-48 7.5z" />
    <glyph glyph-name="scaron" unicode="&#x161;" horiz-adv-x="508" 
d="M240 499q32 0 68 -2t71.5 -5t65.5 -8l-7 -62q-46 2 -92.5 3.5t-92.5 1.5q-45 1 -71 -2t-37.5 -16t-11.5 -44q0 -38 18 -50t53 -20l142 -32q58 -14 85.5 -43t27.5 -91q0 -60 -22.5 -90t-68.5 -40t-117 -10q-26 0 -77.5 2t-113.5 12l6 62q24 -1 51 -2.5t56.5 -1.5h60.5
q55 0 86 5t44 19.5t13 43.5q0 36 -21 48t-56 20l-140 32q-40 10 -64 26.5t-35 43t-11 66.5q0 57 20 86t62 39t108 9zM393 731l30 -36l-143 -128h-40l-143 128l29 36l130 -87h8z" />
    <glyph glyph-name="uni0219" unicode="&#x219;" horiz-adv-x="508" 
d="M240 499q32 0 68 -2t71.5 -5t65.5 -8l-7 -62q-46 2 -92.5 3.5t-92.5 1.5q-45 1 -71 -2t-37.5 -16t-11.5 -44q0 -38 18 -50t53 -20l142 -32q58 -14 85.5 -43t27.5 -91q0 -60 -22.5 -90t-68.5 -40t-117 -10q-26 0 -77.5 2t-113.5 12l6 62q24 -1 51 -2.5t56.5 -1.5h60.5
q55 0 86 5t44 19.5t13 43.5q0 36 -21 48t-56 20l-140 32q-40 10 -64 26.5t-35 43t-11 66.5q0 57 20 86t62 39t108 9zM272.442 -58.7666q16.3623 0 22.2705 -6.00488q5.9082 -6.00586 5.9082 -21.4482v-54.9062q0 -24.0215 -4.08984 -47.1846
q-4.09082 -23.1641 -10.9082 -44.1826t-16.8164 -40.751l-36.3604 10.2949q4.5459 26.5957 6.81836 48.9004q2.27246 22.3066 2.27246 54.0488q-21.8164 0 -21.8164 24.0215v49.7588q0.90918 15.4424 8.18066 21.4482q7.27246 6.00488 21.8164 6.00488h22.7246z" />
    <glyph glyph-name="germandbls" unicode="&#xdf;" horiz-adv-x="675" 
d="M341 721q80 0 130 -12t73 -40.5t23 -79.5q0 -27 -7 -48.5t-25.5 -41.5t-54.5 -41q-31 -18 -53.5 -29.5t-34 -24.5t-11.5 -37q0 -26 17 -38.5t48 -26.5l104 -46q31 -14 50 -30t28.5 -39.5t9.5 -60.5q0 -57 -20 -86.5t-59.5 -40t-97.5 -10.5q-31 0 -71.5 2t-88.5 9l5 64
q38 -3 74 -4t65 -1q39 1 63 5t35.5 19t11.5 47q0 23 -7.5 35.5t-22.5 21.5t-37 19l-106 47q-37 17 -59.5 43.5t-22.5 68.5q0 38 17 60.5t45 38.5t61 34q36 20 50 38.5t14 49.5q0 22 -12 36t-42.5 21.5t-87.5 7.5q-55 0 -86.5 -9.5t-44.5 -34.5t-13 -73v-534h-85v543
q0 59 15.5 94t44.5 53.5t70.5 24.5t94.5 6zM160 487v-68h-132v66l92 2h40z" />
    <glyph glyph-name="uni021B" unicode="&#x21b;" horiz-adv-x="381" 
d="M200 631v-497q0 -35 15 -50t51 -15h74l10 -65q-16 -4 -37 -7t-41 -4.5t-32 -1.5q-61 0 -93 34t-32 98v508h85zM355 487v-67h-328v62l96 5h232zM248.442 -58.7666q16.3623 0 22.2705 -6.00488q5.9082 -6.00586 5.9082 -21.4482v-54.9062q0 -24.0215 -4.08984 -47.1846
q-4.09082 -23.1641 -10.9082 -44.1826t-16.8164 -40.751l-36.3604 10.2949q4.5459 26.5957 6.81836 48.9004q2.27246 22.3066 2.27246 54.0488q-21.8164 0 -21.8164 24.0215v49.7588q0.90918 15.4424 8.18066 21.4482q7.27246 6.00488 21.8164 6.00488h22.7246z" />
    <glyph glyph-name="tcaron" unicode="&#x165;" horiz-adv-x="381" 
d="M200 631v-497q0 -35 15 -50t51 -15h74l10 -65q-16 -4 -37 -7t-41 -4.5t-32 -1.5q-61 0 -93 34t-32 98v508h85zM355 487v-67h-328v62l96 5h232zM323 758q17 0 22.5 -6t5.5 -20v-54q1 -35 -8 -67t-23 -61l-37 9q5 26 7 48t2 53q-21 0 -21 22v50q0 14 7 20t23 6h22z" />
    <glyph glyph-name="tbar" unicode="&#x167;" horiz-adv-x="381" 
d="M330 305v-48h-280v48h280zM200 631v-497q0 -35 15 -50t51 -15h74l10 -65q-16 -4 -37 -7t-41 -4.5t-32 -1.5q-61 0 -93 34t-32 98v508h85zM355 487v-67h-328v62l96 5h232z" />
    <glyph glyph-name="uni0163" unicode="&#x163;" horiz-adv-x="381" 
d="M200 631v-497q0 -35 15 -50t51 -15h74l10 -65q-16 -4 -37 -7t-41 -4.5t-32 -1.5q-61 0 -93 34t-32 98v508h85zM355 487v-67h-328v62l96 5h232zM204 -52q39 4 63.5 -0.5t36.5 -19.5t11 -45q-1 -42 -23 -71.5t-59 -42.5t-85 -7l13 45q41 -1 66.5 18.5t26.5 50.5
q1 18 -11 24.5t-48 7.5z" />
    <glyph glyph-name="thorn" unicode="&#xfe;" horiz-adv-x="574" 
d="M342 499q95 0 135 -61.5t40 -197.5q0 -94 -18.5 -149.5t-58 -79.5t-101.5 -24q-52 0 -103.5 14.5t-98.5 43.5l16 53q47 -19 85 -29.5t74 -10.5q43 0 68.5 16.5t37 56.5t11.5 110q0 71 -11.5 111t-36.5 57t-66 17q-37 0 -74.5 -18.5t-81.5 -51.5l-19 56q44 40 93 63.5
t109 23.5zM163 700v-170q0 -29 -0.5 -55t-3.5 -54l4 -12v-348l-4 -12q3 -28 3.5 -54t0.5 -55v-141h-85v901h85z" />
    <glyph glyph-name="ugrave" unicode="&#xf9;" horiz-adv-x="570" 
d="M160 487v-342q-1 -46 17 -65t60 -19q41 0 81.5 19.5t97.5 56.5l11 -59q-57 -45 -110.5 -68t-108.5 -23q-133 0 -133 134v366h85zM492 487v-487h-68l-8 92l-9 15v380h85zM170 736l172 -146l-29 -39l-192 120z" />
    <glyph glyph-name="uacute" unicode="&#xfa;" horiz-adv-x="570" 
d="M160 487v-342q-1 -46 17 -65t60 -19q41 0 81.5 19.5t97.5 56.5l11 -59q-57 -45 -110.5 -68t-108.5 -23q-133 0 -133 134v366h85zM492 487v-487h-68l-8 92l-9 15v380h85zM386 744l49 -66l-192 -120l-29 39z" />
    <glyph glyph-name="ucircumflex" unicode="&#xfb;" horiz-adv-x="570" 
d="M160 487v-342q-1 -46 17 -65t60 -19q41 0 81.5 19.5t97.5 56.5l11 -59q-57 -45 -110.5 -68t-108.5 -23q-133 0 -133 134v366h85zM492 487v-487h-68l-8 92l-9 15v380h85zM315 719l133 -127l-30 -37l-129 97h-8l-130 -97l-29 37l132 127h61z" />
    <glyph glyph-name="utilde" unicode="&#x169;" horiz-adv-x="570" 
d="M160 487v-342q-1 -46 17 -65t60 -19q41 0 81.5 19.5t97.5 56.5l11 -59q-57 -45 -110.5 -68t-108.5 -23q-133 0 -133 134v366h85zM492 487v-487h-68l-8 92l-9 15v380h85zM205 703q23 -2 41.5 -9.5t35 -17t34 -17.5t38.5 -11q29 -4 39 9t10 41h40q6 -56 -16.5 -85.5
t-61.5 -26.5q-34 3 -58.5 16t-46 26t-46.5 15q-28 3 -37.5 -10.5t-9.5 -43.5h-40q-4 40 5.5 66t29 38t43.5 10z" />
    <glyph glyph-name="udieresis" unicode="&#xfc;" horiz-adv-x="570" 
d="M160 487v-342q-1 -46 17 -65t60 -19q41 0 81.5 19.5t97.5 56.5l11 -59q-57 -45 -110.5 -68t-108.5 -23q-133 0 -133 134v366h85zM492 487v-487h-68l-8 92l-9 15v380h85zM388 693q24 0 24 -24v-55q0 -24 -24 -24h-28q-24 0 -24 24v55q0 24 24 24h28zM211 693q23 0 23 -24
v-55q0 -24 -23 -24h-29q-23 0 -23 24v55q0 24 23 24h29z" />
    <glyph glyph-name="umacron" unicode="&#x16b;" horiz-adv-x="570" 
d="M160 487v-342q-1 -46 17 -65t60 -19q41 0 81.5 19.5t97.5 56.5l11 -59q-57 -45 -110.5 -68t-108.5 -23q-133 0 -133 134v366h85zM492 487v-487h-68l-8 92l-9 15v380h85zM424 672v-63h-278v63h278z" />
    <glyph glyph-name="ubreve" unicode="&#x16d;" horiz-adv-x="570" 
d="M160 487v-342q-1 -46 17 -65t60 -19q41 0 81.5 19.5t97.5 56.5l11 -59q-57 -45 -110.5 -68t-108.5 -23q-133 0 -133 134v366h85zM492 487v-487h-68l-8 92l-9 15v380h85zM390 707l44 -6q3 -39 -15 -68.5t-52 -46.5t-83 -17q-48 0 -82.5 17t-52 46.5t-15.5 68.5l44 6
q-1 -35 27 -55t80 -20q50 0 77.5 20t27.5 55z" />
    <glyph glyph-name="uring" unicode="&#x16f;" horiz-adv-x="570" 
d="M160 487v-342q-1 -46 17 -65t60 -19q41 0 81.5 19.5t97.5 56.5l11 -59q-57 -45 -110.5 -68t-108.5 -23q-133 0 -133 134v366h85zM492 487v-487h-68l-8 92l-9 15v380h85zM285 755q29 0 53.5 -14t39 -37.5t14.5 -53.5q0 -29 -14.5 -53t-38.5 -38t-54 -14q-29 0 -53.5 14
t-39 37.5t-14.5 53.5t14.5 53.5t39 37.5t53.5 14zM285 711q-25 0 -42 -16.5t-17 -44.5t17 -44.5t42 -16.5q26 0 43 16.5t17 44.5t-17 44.5t-43 16.5z" />
    <glyph glyph-name="uhungarumlaut" unicode="&#x171;" horiz-adv-x="570" 
d="M160 487v-342q-1 -46 17 -65t60 -19q41 0 81.5 19.5t97.5 56.5l11 -59q-57 -45 -110.5 -68t-108.5 -23q-133 0 -133 134v366h85zM492 487v-487h-68l-8 92l-9 15v380h85zM256 754l62 -42l-134 -160l-38 28zM420 754l62 -42l-134 -160l-38 28z" />
    <glyph glyph-name="uogonek" unicode="&#x173;" horiz-adv-x="570" 
d="M160 487v-342q-1 -46 17 -65t60 -19q41 0 81.5 19.5t97.5 56.5l11 -59q-57 -45 -110.5 -68t-108.5 -23q-133 0 -133 134v366h85zM492 487v-487h-68l-8 92l-9 15v380h85zM456 2l38 -2q-22 -25 -41.5 -52.5t-32.5 -61.5q-15 -37 8 -48t70 4l10 -35q-47 -20 -79.5 -20.5
t-51 12.5t-22.5 35.5t5 48.5q8 25 30.5 55t65.5 64z" />
    <glyph glyph-name="wgrave" unicode="&#x1e81;" horiz-adv-x="824" 
d="M799 487l-142 -463q-3 -11 -12 -17.5t-21 -6.5h-77q-12 0 -21.5 7.5t-11.5 19.5l-80 331q-4 19 -7.5 38t-8.5 39h-12q-4 -20 -8.5 -39t-8.5 -38l-79 -331q-3 -12 -12 -19.5t-22 -7.5h-76q-12 0 -21 6.5t-12 17.5l-142 463h88l101 -359q5 -18 9 -36.5t7 -36.5h13
q5 18 9.5 36.5t8.5 36.5l81 332q2 12 10.5 19.5t21.5 7.5h77q12 0 20.5 -7.5t11.5 -20.5l80 -331q4 -18 8.5 -36t8.5 -37h13q5 19 8 36.5t9 36.5l101 359h88zM298 734l172 -146l-29 -39l-192 120z" />
    <glyph glyph-name="wacute" unicode="&#x1e83;" horiz-adv-x="824" 
d="M799 487l-142 -463q-3 -11 -12 -17.5t-21 -6.5h-77q-12 0 -21.5 7.5t-11.5 19.5l-80 331q-4 19 -7.5 38t-8.5 39h-12q-4 -20 -8.5 -39t-8.5 -38l-79 -331q-3 -12 -12 -19.5t-22 -7.5h-76q-12 0 -21 6.5t-12 17.5l-142 463h88l101 -359q5 -18 9 -36.5t7 -36.5h13
q5 18 9.5 36.5t8.5 36.5l81 332q2 12 10.5 19.5t21.5 7.5h77q12 0 20.5 -7.5t11.5 -20.5l80 -331q4 -18 8.5 -36t8.5 -37h13q5 19 8 36.5t9 36.5l101 359h88zM513 742l49 -66l-192 -120l-29 39z" />
    <glyph glyph-name="wcircumflex" unicode="&#x175;" horiz-adv-x="824" 
d="M799 487l-142 -463q-3 -11 -12 -17.5t-21 -6.5h-77q-12 0 -21.5 7.5t-11.5 19.5l-80 331q-4 19 -7.5 38t-8.5 39h-12q-4 -20 -8.5 -39t-8.5 -38l-79 -331q-3 -12 -12 -19.5t-22 -7.5h-76q-12 0 -21 6.5t-12 17.5l-142 463h88l101 -359q5 -18 9 -36.5t7 -36.5h13
q5 18 9.5 36.5t8.5 36.5l81 332q2 12 10.5 19.5t21.5 7.5h77q12 0 20.5 -7.5t11.5 -20.5l80 -331q4 -18 8.5 -36t8.5 -37h13q5 19 8 36.5t9 36.5l101 359h88zM443 716l133 -127l-30 -37l-129 97h-8l-130 -97l-29 37l132 127h61z" />
    <glyph glyph-name="wdieresis" unicode="&#x1e85;" horiz-adv-x="824" 
d="M799 487l-142 -463q-3 -11 -12 -17.5t-21 -6.5h-77q-12 0 -21.5 7.5t-11.5 19.5l-80 331q-4 19 -7.5 38t-8.5 39h-12q-4 -20 -8.5 -39t-8.5 -38l-79 -331q-3 -12 -12 -19.5t-22 -7.5h-76q-12 0 -21 6.5t-12 17.5l-142 463h88l101 -359q5 -18 9 -36.5t7 -36.5h13
q5 18 9.5 36.5t8.5 36.5l81 332q2 12 10.5 19.5t21.5 7.5h77q12 0 20.5 -7.5t11.5 -20.5l80 -331q4 -18 8.5 -36t8.5 -37h13q5 19 8 36.5t9 36.5l101 359h88zM515 690q24 0 24 -24v-55q0 -24 -24 -24h-28q-24 0 -24 24v55q0 24 24 24h28zM338 690q23 0 23 -24v-55
q0 -24 -23 -24h-29q-23 0 -23 24v55q0 24 23 24h29z" />
    <glyph glyph-name="ygrave" unicode="&#x1ef3;" horiz-adv-x="529" 
d="M510 487l-195 -514q-12 -32 -30 -63t-43.5 -56.5t-60 -41.5t-79.5 -18l-8 56q59 19 91 51t51 78l24 58q8 20 16 44t15 43l127 363h92zM109 487l129 -363q5 -15 10 -29.5t8 -29.5h23l-28 -65h-26q-10 0 -18.5 6t-11.5 16l-177 465h91zM152 734l172 -146l-29 -39l-192 120z
" />
    <glyph glyph-name="yacute" unicode="&#xfd;" horiz-adv-x="529" 
d="M510 487l-195 -514q-12 -32 -30 -63t-43.5 -56.5t-60 -41.5t-79.5 -18l-8 56q59 19 91 51t51 78l24 58q8 20 16 44t15 43l127 363h92zM109 487l129 -363q5 -15 10 -29.5t8 -29.5h23l-28 -65h-26q-10 0 -18.5 6t-11.5 16l-177 465h91zM368 742l49 -66l-192 -120l-29 39z
" />
    <glyph glyph-name="ycircumflex" unicode="&#x177;" horiz-adv-x="529" 
d="M510 487l-195 -514q-12 -32 -30 -63t-43.5 -56.5t-60 -41.5t-79.5 -18l-8 56q59 19 91 51t51 78l24 58q8 20 16 44t15 43l127 363h92zM109 487l129 -363q5 -15 10 -29.5t8 -29.5h23l-28 -65h-26q-10 0 -18.5 6t-11.5 16l-177 465h91zM297 716l133 -127l-30 -37l-129 97
h-8l-130 -97l-29 37l132 127h61z" />
    <glyph glyph-name="ydieresis" unicode="&#xff;" horiz-adv-x="529" 
d="M510 487l-195 -514q-12 -32 -30 -63t-43.5 -56.5t-60 -41.5t-79.5 -18l-8 56q59 19 91 51t51 78l24 58q8 20 16 44t15 43l127 363h92zM109 487l129 -363q5 -15 10 -29.5t8 -29.5h23l-28 -65h-26q-10 0 -18.5 6t-11.5 16l-177 465h91zM369 690q24 0 24 -24v-55
q0 -24 -24 -24h-28q-24 0 -24 24v55q0 24 24 24h28zM192 690q23 0 23 -24v-55q0 -24 -23 -24h-29q-23 0 -23 24v55q0 24 23 24h29z" />
    <glyph glyph-name="zacute" unicode="&#x17a;" horiz-adv-x="510" 
d="M363 418l95 -1l-314 -349l-95 1zM461 69v-69h-412v69h412zM458 487v-70h-406v70h406zM355 742l49 -66l-192 -120l-29 39z" />
    <glyph glyph-name="zdotaccent" unicode="&#x17c;" horiz-adv-x="510" 
d="M363 418l95 -1l-314 -349l-95 1zM461 69v-69h-412v69h412zM458 487v-70h-406v70h406zM268 687q26 0 26 -25v-57q0 -26 -26 -26h-27q-26 0 -26 26v57q0 25 26 25h27z" />
    <glyph glyph-name="zcaron" unicode="&#x17e;" horiz-adv-x="510" 
d="M363 418l95 -1l-314 -349l-95 1zM461 69v-69h-412v69h412zM458 487v-70h-406v70h406zM389 731l30 -36l-143 -128h-40l-143 128l29 36l130 -87h8z" />
    <glyph glyph-name="aeacute" unicode="&#x1fd;" horiz-adv-x="871" 
d="M612 499q110 0 159.5 -40t50.5 -119q0 -45 -13.5 -75.5t-41.5 -46.5t-72 -16h-274v66h252q38 0 51 21.5t12 50.5q0 46 -27.5 66.5t-92.5 20.5q-53 0 -83.5 -15.5t-43 -54t-12.5 -107.5q0 -78 15.5 -119t49.5 -56t90 -15q40 0 86 3.5t84 8.5l8 -57q-22 -9 -56 -15
t-69.5 -9t-63.5 -3q-83 0 -134.5 25.5t-74.5 82t-23 149.5q0 96 23 151.5t72.5 79t127.5 23.5zM435 300l-1 -64l-233 -1q-35 -1 -49 -18.5t-14 -48.5v-31q0 -38 18 -55.5t58 -17.5q29 0 65 10.5t73.5 33.5t67.5 58v-63q-11 -15 -32 -34t-50 -37t-64.5 -29.5t-76.5 -11.5
q-43 0 -76 15.5t-51.5 46t-18.5 74.5v53q0 57 35.5 88.5t99.5 31.5h249zM308 499q54 0 91.5 -14.5t56.5 -48.5t19 -93v-102h-86v102q0 45 -20.5 64.5t-78.5 19.5q-38 0 -95.5 -4t-113.5 -9l-8 63q34 6 74.5 11t82.5 8t78 3zM560 733l48 -65l-191 -120l-30 39z" />
    <glyph glyph-name="oslashacute" unicode="&#x1ff;" horiz-adv-x="568" 
d="M405 560l39 -19l-287 -616l-39 19zM284 499q84 0 134.5 -25t72.5 -81.5t22 -149.5t-22 -149.5t-72.5 -81.5t-134.5 -25q-83 0 -133.5 25t-73 81.5t-22.5 149.5t22.5 149.5t73 81.5t133.5 25zM284 427q-53 0 -83.5 -16.5t-43.5 -56.5t-13 -111t13 -111t43.5 -56.5
t83.5 -16.5t84 16.5t44 56.5t13 111t-13 111t-44 56.5t-84 16.5zM386 736l48 -65l-191 -120l-30 39z" />
    <glyph glyph-name="aringacute" unicode="&#x1fb;" horiz-adv-x="549" 
d="M339 909l45 -63l-166 -92l-26 37zM308 499q54 0 91.5 -14.5t56.5 -48.5t19 -93v-343h-67l-13 106l-6 11v226q0 45 -20.5 64.5t-78.5 19.5q-38 0 -95.5 -4t-113.5 -9l-8 63q34 6 74.5 11t82.5 8t78 3zM435 300l-1 -64l-233 -1q-35 -1 -49 -18.5t-14 -48.5v-31
q0 -38 18 -55.5t58 -17.5q28 0 63.5 10.5t71.5 32.5t66 56v-63q-11 -14 -31.5 -32.5t-49 -36t-63 -29t-74.5 -11.5q-43 0 -76 15.5t-51.5 46t-18.5 74.5v53q0 57 35.5 88.5t99.5 31.5h249zM273 738q29 0 53.5 -14t39 -37.5t14.5 -53.5q0 -29 -14.5 -53t-38.5 -38t-54 -14
q-29 0 -53.5 14t-39 37.5t-14.5 53.5t14.5 53.5t39 37.5t53.5 14zM273 694q-25 0 -42 -16.5t-17 -44.5t17 -44.5t42 -16.5q26 0 43 16.5t17 44.5t-17 44.5t-43 16.5z" />
    <glyph glyph-name="uni0259" unicode="&#x259;" horiz-adv-x="537" 
d="M259 -12q-110 0 -159.5 40t-49.5 119q-1 66 27 102t89 36h284v-66h-262q-33 0 -43 -22t-10 -50q1 -46 28 -66.5t92 -20.5q53 0 83.5 15.5t43 54.5t12.5 108q0 78 -15.5 119t-49.5 55.5t-90 14.5q-39 0 -85 -3.5t-84 -8.5l-9 57q23 10 56.5 15.5t69 8.5t63.5 3
q84 0 135.5 -25t74.5 -81.5t23 -150.5q0 -95 -23.5 -151t-72.5 -79.5t-128 -23.5z" />
    <glyph glyph-name="kgreenlandic" unicode="&#x138;" horiz-adv-x="509" 
d="M476 487l-154 -196q-7 -9 -17.5 -19t-16.5 -15v-2q6 -4 16 -16t18 -23l170 -216h-99l-193 252l177 235h99zM163 487l1 -125q1 -31 -2 -57.5t-8 -55.5q5 -28 7 -56t2 -54v-139h-85v487h85zM246 278v-61h-113v61h113z" />
    <glyph glyph-name="at" unicode="@" horiz-adv-x="718" 
d="M495 585q72 0 111.5 -32.5t39.5 -109.5v-311h-64l-8 75q-18 -18 -49 -37.5t-69.5 -32.5t-80.5 -13q-39 0 -68.5 13.5t-46 40t-16.5 65.5v51q0 48 29 75.5t86 27.5h207v43q0 40 -18 57t-68 17h-128q-65 0 -104 -6t-59 -29t-26.5 -73.5t-6.5 -139.5q0 -73 4.5 -120.5
t17.5 -74.5t38 -39t66.5 -15t102.5 -3h258v-64q-64 -4 -128 -6t-129 -2q-84 -1 -140 5.5t-90.5 25t-51.5 54.5t-23 94.5t-6 144.5q0 84 5 141t20.5 92t46 53.5t80.5 25t125 7.5h143zM566 345l-178 -4q-35 -1 -49.5 -14.5t-14.5 -42.5v-26q0 -36 17 -51t49 -15q29 0 61 8
t62 22.5t53 35.5v87z" />
    <glyph glyph-name="registered" unicode="&#xae;" horiz-adv-x="553" 
d="M277 702q62 0 112 -30t80 -80t30 -112t-30 -112.5t-80 -80.5t-112 -30t-112.5 30t-80.5 80.5t-30 112.5t30 112t80.5 80t112.5 30zM217 610v-259h-40v259h40zM277 673q-53 0 -96.5 -26t-69.5 -70t-26 -97t26 -97t69.5 -70t96.5 -26t96 26t69 70t26 97t-26 97t-69 70
t-96 26zM286 613q55 0 79 -15.5t24 -59.5q0 -29 -13.5 -45t-45.5 -20v-2q12 -1 23 -10.5t16 -27.5l30 -82h-42l-28 80q-6 15 -16 21t-26 6h-68t-37 1l1 28h102q35 1 49.5 11t13.5 36q1 29 -13.5 38t-49.5 9h-64t-37 -1l-7 30q26 2 48.5 2.5t60.5 0.5z" />
    <glyph glyph-name="copyright" unicode="&#xa9;" horiz-adv-x="836" 
d="M418 703q75 0 140 -26.5t114.5 -74.5t77 -113.5t27.5 -143.5t-27.5 -143.5t-77 -113.5t-114.5 -74.5t-140 -26.5t-140 26.5t-114 74.5t-77 113.5t-28 143.5t28 143.5t77 113.5t114 74.5t140 26.5zM423 568q47 0 76 -3t59 -11l-8 -48q-32 2 -58.5 2.5t-69.5 0.5
q-48 0 -76 -15t-39.5 -50t-11.5 -97q0 -61 11.5 -96.5t39.5 -50.5t76 -15q47 0 78 1t62 5l6 -49q-31 -7 -63.5 -11t-81.5 -4q-71 0 -114 21.5t-62 69.5t-19 129t19 129.5t62 70t114 21.5zM418 657q-64 0 -120.5 -23t-99.5 -65.5t-67.5 -99t-24.5 -124.5q0 -67 24.5 -124
t67.5 -99.5t99.5 -65.5t120.5 -23q65 0 121.5 23t99 65.5t67 99.5t24.5 124q0 68 -24.5 124.5t-67 99t-99 65.5t-121.5 23z" />
    <glyph glyph-name="trademark" unicode="&#x2122;" horiz-adv-x="964" 
d="M851 696q22 0 24 -24l15 -356h-57l-16 333h-11l-92 -268q-6 -20 -26 -20h-47q-18 0 -25 20l-92 268h-12l-15 -333h-57l16 356q2 24 24 24h63q10 0 16 -5t9 -15l76 -220q5 -13 8 -26.5t7 -26.5h11q5 14 8.5 27.5t7.5 26.5l75 219q6 20 24 20h66zM260 696v-380h-62v380h62z
M391 696v-51h-324v51h324z" />
    <glyph glyph-name="plus" unicode="+" horiz-adv-x="551" 
d="M494 331v-64h-438v64h438zM308 507l-1 -417h-64l-1 417h66z" />
    <glyph glyph-name="minus" unicode="&#x2212;" horiz-adv-x="585" 
d="M512 327v-64h-438v64h438z" />
    <glyph glyph-name="multiply" unicode="&#xd7;" horiz-adv-x="484" 
d="M402 475l-356 -320l42 -51l356 321zM88 475l-42 -51l356 -320l42 51z" />
    <glyph glyph-name="divide" unicode="&#xf7;" horiz-adv-x="571" 
d="M504 327v-64h-438v64h438zM295 176q17 0 24.5 -7t7.5 -25v-48q0 -18 -7.5 -25t-24.5 -7h-22q-18 0 -24.5 7t-6.5 25v48q0 18 6.5 25t24.5 7h22zM295 525q17 0 24.5 -7.5t7.5 -24.5v-49q0 -17 -7.5 -24t-24.5 -7h-22q-18 0 -24.5 7t-6.5 24v49q0 17 6.5 24.5t24.5 7.5h22z
" />
    <glyph glyph-name="equal" unicode="=" horiz-adv-x="585" 
d="M512 430v-63h-438v63h438zM512 219v-64h-438v64h438z" />
    <glyph glyph-name="less" unicode="&#x3c;" horiz-adv-x="530" 
d="M459 506v-68l-332 -140l332 -137v-68l-406 171v68z" />
    <glyph glyph-name="greater" unicode="&#x3e;" horiz-adv-x="530" 
d="M71 506l406 -174v-68l-406 -171v68l332 137l-332 140v68z" />
    <glyph glyph-name="dollar" unicode="$" horiz-adv-x="564" 
d="M281 702q49 -1 101 -5t104 -15l-6 -64q-43 2 -95 3.5t-100 1.5q-37 0 -63.5 -2.5t-43.5 -12t-24.5 -31t-7.5 -59.5q0 -57 21 -79.5t67 -33.5l139 -35q80 -19 110 -66.5t30 -127.5q0 -60 -13.5 -97t-41.5 -56.5t-72 -27t-105 -7.5q-34 0 -88.5 3t-125.5 16l6 67
q59 -1 95 -2.5t62 -1.5h54q53 0 83.5 8t43 31t12.5 69q0 40 -9 62t-28 33.5t-50 18.5l-142 36q-75 19 -106 66t-31 126q0 60 13.5 96.5t41 55t70 24.5t99.5 6zM261 353l45 -2l-36 -478h-46zM345 799l-33 -448l-46 2l34 446h45z" />
    <glyph glyph-name="cent" unicode="&#xa2;" horiz-adv-x="508" 
d="M285 605q22 0 49 -2.5t55.5 -7.5t52.5 -14l-11 -57q-33 5 -69.5 6.5t-62.5 1.5q-60 0 -95 -16t-50.5 -56t-15.5 -111t15.5 -111t50.5 -56.5t95 -16.5q15 0 39.5 1t52 3.5t51.5 6.5l9 -57q-37 -13 -80.5 -19t-85.5 -6q-84 0 -135 24.5t-73.5 80.5t-22.5 150t22.5 150
t73.5 81t135 25zM296 133l-13 -133h-45l13 133h45zM332 557l-35 -426h-46l35 426h46zM345 690l-13 -135h-45l12 135h46z" />
    <glyph glyph-name="sterling" unicode="&#xa3;" horiz-adv-x="569" 
d="M316 702q20 0 48.5 -1t62 -3t68.5 -6l-5 -70q-20 1 -37 2t-35.5 1.5t-43 0.5h-60.5q-60 0 -83 -22.5t-20 -83.5l16 -257q2 -47 -4.5 -81.5t-22.5 -60.5t-45 -49q17 2 33.5 2.5t33.5 0.5h296v-75h-456v75q52 26 67 75.5t11 112.5l-15 258q-3 59 9 95t37 54.5t62 25t83 6.5
zM431 391l-2 -56h-372l-1 56h375z" />
    <glyph glyph-name="yen" unicode="&#xa5;" horiz-adv-x="618" 
d="M582 690l-233 -435h-80l-233 435h91l145 -275q10 -18 18 -38.5t16 -39.5h7q8 19 16.5 39.5t16.5 37.5l144 276h92zM353 317v-317h-88v317h88zM531 210v-51h-439l-1 51h440zM531 323v-52h-439l-1 52h440z" />
    <glyph glyph-name="florin" unicode="&#x192;" horiz-adv-x="442" 
d="M326 700q13 0 31.5 -0.5t38 -1.5t32.5 -4l-11 -64h-71q-45 0 -65 -16t-25 -66l-52 -552q-4 -45 -20 -76.5t-47 -48.5t-81 -17q-12 0 -31 0.5t-38 2.5t-33 4l11 64h67q44 0 63.5 18.5t23.5 62.5l52 552q4 45 22 77t51 48.5t82 16.5zM385 398l-7 -67h-326l4 63l106 4h223z
" />
    <glyph glyph-name="colonmonetary" unicode="&#x20a1;" horiz-adv-x="573" 
d="M332 702q44 0 76 -2t59.5 -6.5t55.5 -11.5l-10 -67q-29 3 -55.5 5t-56 3t-69.5 1q-67 0 -106 -26t-55.5 -87t-16.5 -166t16.5 -166t55.5 -87t106 -26q64 0 109 2.5t86 8.5l10 -66q-43 -12 -90 -17.5t-115 -5.5q-99 0 -158.5 34.5t-86 112.5t-26.5 210t26.5 210t86 112.5
t158.5 34.5zM180 -135l290 939h43l-290 -939h-43zM80 -135l290 939h43l-290 -939h-43z" />
    <glyph glyph-name="lira" unicode="&#x20a4;" horiz-adv-x="569" 
d="M316 702q20 0 48.5 -1t62 -3t68.5 -6l-5 -70q-20 1 -37 2t-35.5 1.5t-43 0.5h-60.5q-60 0 -83 -22.5t-20 -83.5l16 -257q2 -47 -4.5 -81.5t-22.5 -60.5t-45 -49q17 2 33.5 2.5t33.5 0.5h296v-75h-456v75q52 26 67 75.5t11 112.5l-15 258q-3 59 9 95t37 54.5t62 25t83 6.5
zM431 441l-2 -55h-372l-1 55h375zM431 301l-2 -55h-372l-1 55h375z" />
    <glyph glyph-name="uni20A6" unicode="&#x20a6;" horiz-adv-x="771" 
d="M647 690v-655q0 -35 -34 -35h-86q-15 0 -24 7t-15 21l-232 489q-9 20 -21.5 45t-18.5 46h-16q2 -22 3 -45t1 -46v-517h-88v655q0 35 35 35h83q15 0 24 -7t15 -21l227 -477q10 -21 22.5 -47.5t23.5 -52.5h18q-2 27 -3 53t-1 52v500h87zM738 453l-5 -56h-699l-1 56h705z
M738 313l-5 -55h-699l-1 55h705z" />
    <glyph glyph-name="uni20A9" unicode="&#x20a9;" horiz-adv-x="1033" 
d="M959 690l-140 -664q-2 -11 -11.5 -18.5t-22.5 -7.5h-101q-13 0 -22 7.5t-12 19.5l-108 519q-4 20 -7.5 39.5t-7.5 38.5h-21q-4 -19 -7.5 -39t-8.5 -39l-107 -519q-2 -12 -12 -19.5t-23 -7.5h-100q-13 0 -22.5 7.5t-12.5 18.5l-140 664h93l109 -538q4 -19 7 -40.5t6 -44.5
h24q3 23 7 44t8 41l107 509q3 13 12 21t23 8h95q14 0 23 -8t11 -21l107 -509q5 -22 8.5 -43t6.5 -42h24q4 21 7 42.5t7 41.5l109 539h92zM1002 453l-4 -56h-967v56h971zM1002 313l-4 -55h-967v55h971z" />
    <glyph glyph-name="dong" unicode="&#x20ab;" horiz-adv-x="568" 
d="M505 -82v-60h-432v60h432zM562 622v-49h-306v49h306zM240 499q48 0 95 -12.5t90 -38.5l-5 -53q-47 14 -83 22t-77 8q-42 0 -67.5 -14.5t-37.5 -53.5t-12 -111t11.5 -112t36.5 -56t64 -16q29 0 52.5 7.5t50 24.5t62.5 43l8 -60q-40 -37 -91 -63t-110 -26q-92 0 -131.5 65
t-39.5 192q0 95 20 150.5t61 79.5t103 24zM494 700v-700h-66l-10 85l-9 7v334l6 15q-4 28 -5 54t-1 55v150h85z" />
    <glyph glyph-name="Euro" unicode="&#x20ac;" horiz-adv-x="639" 
d="M410 702q56 0 93.5 -5t72.5 -15l-10 -68q-15 3 -33.5 5t-39 3.5t-42.5 1.5t-46 -1q-66 -2 -105 -33t-56.5 -92t-17.5 -154q0 -137 39.5 -206t139.5 -71q31 -1 61 0t58.5 4t53.5 8l9 -68q-35 -10 -76.5 -16.5t-100.5 -6.5q-102 0 -162.5 40t-86.5 119.5t-26 197.5
q0 119 26 198t86.5 119t162.5 40zM447 316l-7 -58h-387v58h394zM487 447l-7 -58h-427v58h434z" />
    <glyph glyph-name="uni20B1" unicode="&#x20b1;" horiz-adv-x="654" 
d="M334 699q83 0 131.5 -19t69.5 -65.5t21 -131.5t-20.5 -132t-67 -65.5t-124.5 -18.5q-42 0 -80.5 2t-70.5 5.5t-54.5 7.5t-31.5 7l3 54h223q50 0 79.5 12t42 42.5t12.5 85.5q0 56 -12.5 86t-42 42t-79.5 12h-222l-14 67q38 4 71 6t72 2.5t94 0.5zM185 690v-690h-88v690h88
zM636 558l-4 -51h-613l-1 51h618zM636 456l-4 -52h-613l-1 52h618z" />
    <glyph glyph-name="uni20B2" unicode="&#x20b2;" horiz-adv-x="628" 
d="M350 703q35 0 68 -2t64 -6.5t60 -12.5l-9 -66q-31 3 -69.5 5t-75 2.5t-62.5 0.5q-67 0 -104 -23.5t-52 -85t-15 -174.5q0 -102 14 -162.5t47 -87.5t88 -27q38 0 69.5 11t59 28.5t53.5 36.5l12 -54q-18 -21 -48 -44t-70.5 -39t-93.5 -16q-79 0 -128.5 37.5t-72.5 117
t-23 205.5q0 137 27.5 214.5t91 109.5t169.5 32zM474 399h86v-399h-64l-14 102l-8 20v277zM344 800h45l-70 -928h-46z" />
    <glyph glyph-name="uni20B5" unicode="&#x20b5;" horiz-adv-x="570" 
d="M332 702q44 0 75.5 -2t58 -6.5t54.5 -11.5l-9 -67q-30 3 -55.5 5t-54.5 3t-69 1q-67 0 -106 -26t-55.5 -87t-16.5 -166t16.5 -166t55.5 -87t106 -26q64 0 107.5 2.5t85.5 8.5l9 -66q-43 -12 -88.5 -17.5t-113.5 -5.5q-99 0 -158.5 34.5t-86 112.5t-26.5 210t26.5 210
t86 112.5t158.5 34.5zM272 -127l70 926h45l-69 -926h-46z" />
    <glyph glyph-name="uni20BC" unicode="&#x20bc;" horiz-adv-x="616" 
d="M77 0v325q0 89 25 148.5t76.5 89t129.5 29.5q79 0 130 -29.5t76 -89t25 -148.5v-325h-87v267q0 77 -9.5 131.5t-40 83.5t-94.5 29q-63 0 -94 -29t-40.5 -83.5t-9.5 -131.5v-267h-87zM336 697v-590h-56v590h56z" />
    <glyph glyph-name="uni20BD" unicode="&#x20bd;" horiz-adv-x="551" 
d="M304 699q79 0 125 -20.5t66 -67.5t20 -128t-19.5 -128t-63.5 -67.5t-118 -20.5h-59t-60.5 1t-60 1.5t-58 2t-55.5 2.5l2 69h64h79h77.5h58.5q47 0 74 13.5t38.5 44.5t11.5 82q0 52 -11.5 82.5t-38.5 44t-74 13.5q-48 0 -83.5 -0.5t-60.5 -1t-39 -2.5l-14 71q28 3 49 5
t41.5 2.5t46 1t62.5 0.5zM192 690v-690h-87v690h87zM408 172l-5 -55h-380l-1 55h386z" />
    <glyph glyph-name="numbersign" unicode="#" horiz-adv-x="685" 
d="M311 690l-120 -690h-68l120 690h68zM562 690l-120 -690h-68l120 690h68zM640 503l-11 -55h-543l11 55h543zM598 268l-11 -55h-543l11 55h543z" />
    <glyph glyph-name="section" unicode="&#xa7;" horiz-adv-x="544" 
d="M140 388q-3 -43 1 -73.5t20.5 -52.5t47.5 -40l173 -98q31 -18 53.5 -38.5t35 -48.5t12.5 -69q0 -58 -24.5 -86t-69 -36t-103.5 -8q-30 1 -67 2.5t-75.5 4t-75.5 5.5l7 67q34 -2 63.5 -3.5t60 -2t66.5 -1.5q39 0 67 3t44 15.5t16 42.5q2 36 -17 56.5t-47 36.5l-162 90
q-49 26 -71.5 59t-25 76.5t8.5 98.5h62zM260 703q31 0 69 -1.5t77 -4t71 -6.5l-6 -66q-29 2 -54.5 3t-56.5 1.5t-78 0.5q-39 1 -68 -2t-44.5 -15t-16.5 -40q-1 -36 18 -56t48 -37l162 -91q49 -26 71 -59.5t24.5 -77t-9.5 -98.5h-62q4 43 -1 73.5t-21 53.5t-47 41l-173 99
q-31 18 -54 38t-35 48t-12 68q0 54 23 81.5t67.5 37t107.5 9.5z" />
    <glyph glyph-name="currency" unicode="&#xa4;" horiz-adv-x="594" 
d="M296 497q-39 0 -72 -19.5t-52.5 -52.5t-19.5 -73t19.5 -73t52.5 -52t72 -19t71.5 19t52 52t19.5 73t-19.5 73t-52 52.5t-71.5 19.5zM106 580l83 -84l-37 -37l-83 83zM488 580l38 -38l-82 -81l-37 37zM155 252l40 -40l-89 -89l-40 40zM438 247l88 -87l-38 -37l-87 87z
M296 548q55 0 99 -26.5t70.5 -71t26.5 -99.5q0 -54 -26.5 -98.5t-71 -71t-98.5 -26.5t-98.5 26.5t-71 71t-26.5 98.5q0 55 26.5 99.5t71 71t98.5 26.5z" />
    <glyph glyph-name="paragraph" unicode="&#xb6;" horiz-adv-x="593" 
d="M346 702q31 0 73.5 -3.5t77.5 -13.5l-6 -51q-24 5 -55.5 7.5t-61.5 3.5t-52 1l-43 -446q-128 10 -183.5 68t-55.5 182q0 93 30.5 148t98 79.5t177.5 24.5zM334 685v-895h-65v895h65zM497 685v-685h-65v685h65z" />
    <glyph glyph-name="percent" unicode="%" horiz-adv-x="894" 
d="M207 703q60 0 95.5 -20.5t50.5 -65.5t15 -119q0 -73 -15 -118t-50.5 -66t-95.5 -21q-59 0 -94.5 21t-50.5 66t-15 118q0 74 15 119t50.5 65.5t94.5 20.5zM207 649q-36 0 -56.5 -14.5t-29.5 -47.5t-9 -89t9 -89t29.5 -47.5t56.5 -14.5q37 0 57.5 14.5t29 47.5t8.5 89
t-8.5 89t-29 47.5t-57.5 14.5zM699 690l-447 -690h-60l447 690h60zM686 400q60 0 95 -21t50 -65.5t15 -117.5t-15 -118.5t-50 -66t-95 -20.5q-59 0 -94.5 20.5t-50.5 66t-15 118.5t15 117.5t50.5 65.5t94.5 21zM685 346q-36 0 -57 -14t-29 -47t-8 -89t8 -89.5t29 -48
t57 -14.5q37 0 57.5 14.5t29.5 48t9 89.5t-9 89t-29.5 47t-57.5 14z" />
    <glyph glyph-name="perthousand" unicode="&#x2030;" horiz-adv-x="1267" 
d="M207 703q60 0 95.5 -20.5t50.5 -65.5t15 -119q0 -73 -15 -118t-50.5 -66t-95.5 -21q-59 0 -94.5 21t-50.5 66t-15 118q0 74 15 119t50.5 65.5t94.5 20.5zM207 649q-36 0 -56.5 -14t-29.5 -47t-9 -90q0 -56 9 -89.5t29.5 -47.5t56.5 -14q37 0 57.5 14t29 47.5t8.5 89.5
q0 57 -8.5 90t-29 47t-57.5 14zM699 690l-447 -690h-60l447 690h60zM686 400q60 0 95 -21t50 -65.5t15 -117.5t-15 -118.5t-50 -66t-95 -20.5q-59 0 -94.5 20.5t-50.5 66t-15 118.5t15 117.5t50.5 65.5t94.5 21zM685 346q-36 0 -57 -14t-29 -47t-8 -89t8 -89.5t29 -48
t57 -14.5q37 0 57.5 14.5t29.5 48t9 89.5t-9 89t-29.5 47t-57.5 14zM1057 400q60 0 95.5 -21t50.5 -65.5t15 -117.5t-15 -118.5t-50.5 -66t-95.5 -20.5q-59 0 -94.5 20.5t-50.5 66t-15 118.5t15 117.5t50.5 65.5t94.5 21zM1057 346q-36 0 -56.5 -14t-29 -47t-8.5 -89
t8.5 -89.5t29 -48t56.5 -14.5q37 0 57.5 14.5t29 48t8.5 89.5t-8.5 89t-29 47t-57.5 14z" />
    <glyph glyph-name="degree" unicode="&#xb0;" horiz-adv-x="363" 
d="M182 703q35 0 64.5 -17t47 -46t17.5 -64t-17.5 -64t-47 -46.5t-64.5 -17.5t-65 17.5t-47.5 46.5t-17.5 64t17.5 63.5t47 46t65.5 17.5zM182 651q-31 0 -53.5 -21t-22.5 -54q0 -21 10.5 -38.5t27.5 -27.5t38 -10t38 10t27 27.5t10 38.5q0 33 -22 54t-53 21z" />
    <glyph glyph-name="minute" unicode="&#x2032;" horiz-adv-x="209" 
d="M140 690l-6 -215h-59l-5 215h70z" />
    <glyph glyph-name="second" unicode="&#x2033;" horiz-adv-x="353" 
d="M283 690l-5 -215h-58l-6 215h69zM140 690l-6 -215h-59l-5 215h70z" />
    <glyph glyph-name="ordfeminine" unicode="&#xaa;" horiz-adv-x="441" 
d="M254 607q54 0 84 -23.5t30 -84.5v-227h-51l-10 72l-3 8v148q0 24 -13.5 38.5t-49.5 14.5q-34 0 -75 -2.5t-80 -5.5l-7 48l52 6.5t59.5 5.5t63.5 2zM339 472l-1 -35l-161 -10q-28 -1 -39 -12t-11 -30v-18q0 -25 14 -35.5t41 -10.5q24 0 50.5 9.5t50.5 25t40 31.5v-38
q-8 -11 -23.5 -25t-36 -27.5t-46.5 -22t-55 -8.5q-44 0 -71 22t-27 65v38q0 38 24.5 59.5t68.5 21.5h182z" />
    <glyph glyph-name="ordmasculine" unicode="&#xba;" horiz-adv-x="444" 
d="M222 607q90 0 126.5 -38.5t36.5 -133.5q0 -62 -16 -100t-51.5 -54.5t-95.5 -16.5q-90 0 -126.5 38.5t-36.5 132.5q0 95 36.5 133.5t126.5 38.5zM222 554q-54 0 -75 -25t-21 -94q0 -68 21 -92.5t75 -24.5t74.5 24.5t20.5 92.5q0 69 -20.5 94t-74.5 25z" />
    <glyph glyph-name="fraction" unicode="&#x2044;" horiz-adv-x="160" 
d="M334 690l-447 -690h-61l447 690h61z" />
    <glyph glyph-name="zero.numr" horiz-adv-x="405" 
d="M204 672q53 0 85 -22t46.5 -69t14.5 -122q0 -74 -15.5 -121t-48 -69t-84.5 -22t-84.5 22t-47.5 69t-15 121q0 75 15.5 122t48.5 69t85 22zM202 617q-48 0 -64.5 -35t-16.5 -123t16.5 -122.5t64.5 -34.5q33 0 51 15t25 49.5t7 92.5q0 59 -7 93.5t-25 49.5t-51 15z" />
    <glyph glyph-name="one.numr" horiz-adv-x="294" 
d="M210 664v-408h-66v310q0 9 0.5 18.5t1.5 19.5l-108 -29l-8 47l114 42h66z" />
    <glyph glyph-name="two.numr" horiz-adv-x="414" 
d="M200 670q48 0 80.5 -7.5t49 -28t16.5 -59.5q0 -34 -20.5 -68t-60.5 -75l-120 -119q18 2 32.5 2h32.5l153 -1l-1 -58h-305v36q0 8 2.5 15t8.5 13l125 124q27 26 44 47t26 40t9 37q1 29 -19.5 37t-55.5 8q-31 0 -60.5 -2t-70.5 -7l-4 51q46 10 80 12.5t58 2.5z" />
    <glyph glyph-name="three.numr" horiz-adv-x="407" 
d="M194 670q78 0 110 -20.5t32 -73.5q0 -41 -15 -68.5t-56 -35.5v-2q46 -7 63.5 -32.5t18.5 -69.5q2 -63 -32 -92t-114 -29q-37 0 -74.5 3.5t-70.5 8.5l5 50q23 -2 43 -3.5t40 -2t41 -0.5q52 0 72.5 16t20.5 57q0 18 -6 33t-23.5 24t-52.5 9h-85v50l85 1q35 0 50.5 10.5
t20 26t3.5 30.5q0 32 -18 43t-68 11q-31 0 -62.5 -1.5t-54.5 -4.5l-4 49q33 6 66 9.5t65 3.5z" />
    <glyph glyph-name="four.numr" horiz-adv-x="422" 
d="M165 665h67l-113 -237q-6 -13 -2 -19t16 -6h239v-51l-48 -6l-239 -1q-26 0 -38 21.5t-1 45.5zM324 587v-331h-63v263l10 68h53z" />
    <glyph glyph-name="five.numr" horiz-adv-x="378" 
d="M302 664l-2 -55h-176l-6 -99l45 -3q55 -2 89 -15t50 -40t16 -72q0 -33 -11.5 -63.5t-41.5 -50t-86 -19.5q-18 0 -39 1.5t-43 5t-44 8.5l7 52q28 -5 56 -8.5t50 -3.5q37 0 55 9t24.5 25.5t6.5 40.5q1 35 -12 50t-43 19.5t-80 6.5l-38 2q-9 1 -14.5 7.5t-4.5 15.5l9 186
h233z" />
    <glyph glyph-name="six.numr" horiz-adv-x="409" 
d="M225 672q10 0 25 -0.5t32.5 -2.5t33.5 -7l-5 -48q-20 2 -37.5 3t-43.5 1q-30 0 -49 -5.5t-30.5 -22t-16 -51t-4.5 -93.5q0 -55 4.5 -87t21.5 -45t53 -13q32 0 47.5 10t20 29.5t4.5 46.5q0 44 -13 61.5t-53 17.5q-20 0 -37 -5t-34.5 -17t-40.5 -34l-2 38q29 38 57 55.5
t71 17.5q66 0 91.5 -29t25.5 -105q0 -43 -11 -74.5t-41 -48.5t-86 -17q-58 0 -89.5 18t-43.5 61.5t-12 121.5q0 72 10.5 116.5t30.5 67.5t50.5 31.5t70.5 8.5z" />
    <glyph glyph-name="seven.numr" horiz-adv-x="372" 
d="M294 662q19 0 26 -9.5t1 -26.5l-127 -370h-67l110 319q3 8 6 15.5t7 14.5h-202l-3 57h249z" />
    <glyph glyph-name="eight.numr" horiz-adv-x="430" 
d="M216 671q52 0 82 -11t43 -35t13 -62q0 -40 -14 -65t-45 -30v-2q38 -4 53.5 -33.5t15.5 -76.5q0 -37 -13.5 -61.5t-45.5 -36t-89 -11.5q-84 0 -116.5 26.5t-32.5 82.5q0 47 15.5 76.5t53.5 33.5v2q-31 5 -45 30t-14 65q0 57 30 82.5t109 25.5zM216 439q-33 0 -51 -6.5
t-24.5 -22t-6.5 -43.5q0 -36 16.5 -50.5t65.5 -14.5t65 14.5t16 50.5q0 29 -6.5 44.5t-24 21.5t-50.5 6zM216 619q-44 0 -60.5 -13t-16.5 -48q0 -24 6.5 -38t23.5 -20t47 -6q32 0 48 6t22 20t6 38q0 35 -16 48t-60 13z" />
    <glyph glyph-name="nine.numr" horiz-adv-x="408" 
d="M188 247q-9 0 -26.5 0.5t-36.5 3t-36 7.5l5 48q20 -2 41 -3.5t48 -1.5q29 0 48 5.5t30 22.5t15.5 51.5t4.5 92.5q0 56 -4 87.5t-20 44.5t-53 13q-47 0 -59.5 -23t-12.5 -63q0 -43 13 -60.5t52 -17.5q20 0 37 4.5t35 16.5t40 34l2 -38q-28 -38 -56.5 -55.5t-71.5 -17.5
q-63 0 -90 31t-27 104q0 41 12 72.5t42 49t84 17.5q59 0 90 -17.5t42.5 -61.5t11.5 -122q0 -72 -10 -116t-30 -67.5t-50 -32t-70 -8.5z" />
    <glyph glyph-name="zero.dnom" horiz-adv-x="411" 
d="M204 414q53 0 85 -22t46.5 -69t14.5 -122q0 -74 -15.5 -121t-48 -69t-84.5 -22t-84.5 22t-47.5 69t-15 121q0 75 15.5 122t48.5 69t85 22zM202 359q-48 0 -64.5 -35t-16.5 -123t16.5 -122.5t64.5 -34.5q33 0 51 15t25 49.5t7 92.5q0 59 -7 93.5t-25 49.5t-51 15z" />
    <glyph glyph-name="one.dnom" horiz-adv-x="300" 
d="M210 408v-408h-66v310q0 9 0.5 18.5t1.5 19.5l-108 -29l-8 47l114 42h66z" />
    <glyph glyph-name="two.dnom" horiz-adv-x="420" 
d="M200 414q48 0 80.5 -7.5t49 -28t16.5 -59.5q0 -34 -20.5 -68t-60.5 -75l-120 -119q18 2 32.5 2h32.5l153 -1l-1 -58h-305v36q0 8 2.5 15t8.5 13l125 124q27 26 44 47t26 40t9 37q1 29 -19.5 37t-55.5 8q-31 0 -60.5 -2t-70.5 -7l-4 51q46 10 80 12.5t58 2.5z" />
    <glyph glyph-name="three.dnom" horiz-adv-x="412" 
d="M194 415q78 0 110 -20.5t32 -73.5q0 -41 -15 -68.5t-56 -35.5v-2q46 -7 63.5 -32.5t18.5 -69.5q2 -63 -32 -92t-114 -29q-37 0 -74.5 3.5t-70.5 8.5l5 50q23 -2 43 -3.5t40 -2t41 -0.5q52 0 72.5 16t20.5 57q0 18 -6 33t-23.5 24t-52.5 9h-85v50l85 1q35 0 50.5 10.5
t20 26t3.5 30.5q0 32 -18 43t-68 11q-31 0 -62.5 -1.5t-54.5 -4.5l-4 49q33 6 66 9.5t65 3.5z" />
    <glyph glyph-name="four.dnom" horiz-adv-x="428" 
d="M165 409h67l-113 -237q-6 -13 -2 -19t16 -6h239v-51l-48 -6l-239 -1q-26 0 -38 21.5t-1 45.5zM324 331v-331h-63v263l10 68h53z" />
    <glyph glyph-name="five.dnom" horiz-adv-x="384" 
d="M302 406l-2 -55h-176l-6 -99l45 -3q55 -2 89 -15t50 -40t16 -72q0 -33 -11.5 -63.5t-41.5 -50t-86 -19.5q-18 0 -39 1.5t-43 5t-44 8.5l7 52q28 -5 56 -8.5t50 -3.5q37 0 55 9t24.5 25.5t6.5 40.5q1 35 -12 50t-43 19.5t-80 6.5l-38 2q-9 1 -14.5 7.5t-4.5 15.5l9 186
h233z" />
    <glyph glyph-name="six.dnom" horiz-adv-x="414" 
d="M225 414q10 0 25 -0.5t32.5 -2.5t33.5 -7l-5 -48q-20 2 -37.5 3t-43.5 1q-30 0 -49 -5.5t-30.5 -22t-16 -51t-4.5 -93.5q0 -55 4.5 -87t21.5 -45t53 -13q32 0 47.5 10t20 29.5t4.5 46.5q0 44 -13 61.5t-53 17.5q-20 0 -37 -5t-34.5 -17t-40.5 -34l-2 38q29 38 57 55.5
t71 17.5q66 0 91.5 -29t25.5 -105q0 -43 -11 -74.5t-41 -48.5t-86 -17q-58 0 -89.5 18t-43.5 61.5t-12 121.5q0 72 10.5 116.5t30.5 67.5t50.5 31.5t70.5 8.5z" />
    <glyph glyph-name="seven.dnom" horiz-adv-x="378" 
d="M294 406q19 0 26 -9.5t1 -26.5l-127 -370h-67l110 319q3 8 6 15.5t7 14.5h-202l-3 57h249z" />
    <glyph glyph-name="eight.dnom" horiz-adv-x="435" 
d="M216 413q52 0 82 -11t43 -35t13 -62q0 -40 -14 -65t-45 -30v-2q38 -4 53.5 -33.5t15.5 -76.5q0 -37 -13.5 -61.5t-45.5 -36t-89 -11.5q-84 0 -116.5 26.5t-32.5 82.5q0 47 15.5 76.5t53.5 33.5v2q-31 5 -45 30t-14 65q0 57 30 82.5t109 25.5zM216 181q-33 0 -51 -6.5
t-24.5 -22t-6.5 -43.5q0 -36 16.5 -50.5t65.5 -14.5t65 14.5t16 50.5q0 29 -6.5 44.5t-24 21.5t-50.5 6zM216 361q-44 0 -60.5 -13t-16.5 -48q0 -24 6.5 -38t23.5 -20t47 -6q32 0 48 6t22 20t6 38q0 35 -16 48t-60 13z" />
    <glyph glyph-name="nine.dnom" horiz-adv-x="414" 
d="M188 -11q-9 0 -26.5 0.5t-36.5 3t-36 7.5l5 48q20 -2 41 -3.5t48 -1.5q29 0 48 5.5t30 22.5t15.5 51.5t4.5 92.5q0 56 -4 87.5t-20 44.5t-53 13q-47 0 -59.5 -23t-12.5 -63q0 -43 13 -60.5t52 -17.5q20 0 37 4.5t35 16.5t40 34l2 -38q-28 -38 -56.5 -55.5t-71.5 -17.5
q-63 0 -90 31t-27 104q0 41 12 72.5t42 49t84 17.5q59 0 90 -17.5t42.5 -61.5t11.5 -122q0 -72 -10 -116t-30 -67.5t-50 -32t-70 -8.5z" />
    <glyph glyph-name="onehalf" unicode="&#xbd;" horiz-adv-x="887" 
d="M639 690l-447 -690h-62l448 690h61zM221 690v-414h-66v315q0 10 1 19.5t3 19.5l-113 -29l-8 46l117 43h66zM670 421q49 0 82.5 -7t50.5 -27.5t17 -60.5q0 -34 -20 -68t-62 -76l-127 -124q19 2 34.5 2h34.5l158 -1l-1 -59h-311v38q0 8 2 15t8 13l129 125q41 40 61.5 71
t21.5 58q0 30 -22 37t-60 7q-32 0 -60.5 -1.5t-71.5 -6.5l-4 50q48 10 81.5 12.5t58.5 2.5z" />
    <glyph glyph-name="onequarter" unicode="&#xbc;" horiz-adv-x="863" 
d="M645 690l-447 -690h-61l447 690h61zM221 690v-414h-66v315q0 10 1 19.5t3 19.5l-113 -29l-8 46l117 43h66zM667 414l-122 -242q-4 -9 1 -15.5t16 -6.5h259v-47l-58 -6h-248q-25 0 -39.5 17.5t0.5 47.5l127 252h64zM773 335v-335h-63v267l12 68h51z" />
    <glyph glyph-name="threequarters" unicode="&#xbe;" horiz-adv-x="954" 
d="M746 690l-447 -690h-61l447 690h61zM197 695q83 0 115 -20.5t32 -74.5q0 -41 -15.5 -69.5t-60.5 -35.5v-2q50 -7 68 -33.5t19 -70.5q2 -64 -32 -93.5t-118 -29.5q-37 0 -75.5 3.5t-73.5 7.5l4 50q24 -2 45 -3t41.5 -1.5t42.5 -0.5q54 0 76 16.5t22 58.5q0 19 -6.5 34
t-25 24.5t-55.5 9.5l-86 2v45l86 3q36 1 53 11.5t21.5 26t4.5 30.5q0 34 -19.5 45.5t-72.5 11.5q-33 0 -64 -1t-55 -3l-4 49q35 5 67.5 7.5t65.5 2.5zM758 414l-122 -242q-4 -9 1 -15.5t17 -6.5h258v-47l-57 -6h-249q-25 0 -39.5 17.5t0.5 47.5l127 252h64zM861 335v-335
h-62v267l11 68h51z" />
    <glyph glyph-name="lessequal" unicode="&#x2264;" horiz-adv-x="567" 
d="M489 535v-68l-335 -106l335 -97v-68l-410 131v68zM497 142v-63h-428v63h428z" />
    <glyph glyph-name="greaterequal" unicode="&#x2265;" horiz-adv-x="567" 
d="M79 535l409 -140v-68l-409 -131v68l334 97l-334 106v68zM498 142v-63h-428v63h428z" />
    <glyph glyph-name="notequal" unicode="&#x2260;" horiz-adv-x="616" 
d="M431 539l27 -14l-299 -493l-27 14zM533 430v-63h-438v63h438zM533 219v-64h-438v64h438z" />
    <glyph glyph-name="asciicircum" unicode="^" horiz-adv-x="426" 
d="M244 600l152 -210l-34 -22l-144 174h-8l-145 -174l-35 22l153 210h61z" />
    <glyph glyph-name="asciitilde" unicode="~" horiz-adv-x="525" 
d="M154 348q26 -1 52.5 -9.5t53 -19t51.5 -19.5t49 -11q26 -3 35.5 10t9.5 44h44q7 -60 -15.5 -90t-61.5 -28q-30 2 -57.5 10t-53 18.5t-49.5 19.5t-46 11q-27 3 -36 -10.5t-9 -45.5h-44q-5 42 4.5 68.5t28.5 39.5t44 12z" />
    <glyph glyph-name="plusminus" unicode="&#xb1;" horiz-adv-x="588" 
d="M513 391v-64h-438v64h438zM513 134v-64h-438v64h438zM327 524l-1 -331h-65v331h66z" />
    <glyph glyph-name="infinity" unicode="&#x221e;" horiz-adv-x="796" 
d="M387 338q28 31 55 59t62 45.5t85 17.5q77 0 115 -38t38 -111q0 -71 -38 -112.5t-116 -41.5q-59 0 -101.5 21t-72.5 53.5t-54 64.5q-16 22 -35.5 43.5t-46.5 36t-66 14.5q-41 0 -60.5 -21.5t-19.5 -60.5q0 -81 83 -81q25 0 44 5.5t36 17.5t36 31l60 49l18 -51
q-28 -31 -55 -59t-61.5 -45.5t-85.5 -17.5q-76 0 -114.5 38t-38.5 111q0 71 38 112.5t117 41.5q60 0 102 -21.5t72 -53.5t54 -66q16 -20 35.5 -41.5t46.5 -36t65 -14.5q41 0 61 21.5t20 60.5q0 81 -84 81q-24 0 -43.5 -5.5t-36.5 -17.5t-36 -31l-60 -49z" />
    <glyph glyph-name="uni03BC" unicode="&#x3bc;" horiz-adv-x="596" 
d="M162 487v-326q0 -55 18 -75t64 -20q36 0 66.5 15.5t54 43t37 63t14.5 75.5l3 -161q-16 -31 -44 -57t-64.5 -41.5t-79.5 -15.5q-44 0 -78 16t-53.5 48t-19.5 81v354h82zM78 487h84v-563l-11 -121h-73v684zM501 487v-379q0 -25 5.5 -39t24.5 -14h42l5 -51q-19 -6 -40 -10
t-39 -4q-38 0 -59 20.5t-21 66.5v25l-3 16v369h85z" />
    <glyph glyph-name="partialdiff" unicode="&#x2202;" horiz-adv-x="572" 
d="M131 703q104 1 179 -12.5t121.5 -52t66 -111.5t13.5 -190q-4 -81 -18.5 -145.5t-42 -110t-72.5 -69.5t-111 -24q-63 0 -105.5 20t-66.5 54t-33.5 76.5t-7.5 87.5q2 48 16 89t40 71t64 46.5t89 16.5q37 0 73 -12.5t68 -41.5t56 -81l-6 -29q-31 39 -62.5 58.5t-59.5 26.5
t-52 7q-70 0 -104 -41.5t-37 -109.5q-2 -45 10.5 -82t41.5 -58.5t77 -21.5q46 0 75 20.5t45 57.5t24 86.5t12 106.5q6 92 -4 151t-42 92t-92 46.5t-155 13.5v65z" />
    <glyph glyph-name="summation" unicode="&#x2211;" horiz-adv-x="590" 
d="M528 690v-72h-370l166 -270l-180 -386h394v-71h-489v71l180 386l-168 270v72h467z" />
    <glyph glyph-name="product" unicode="&#x220f;" horiz-adv-x="722" 
d="M579 683v-786h-84v786h84zM227 683v-786h-84v786h84zM683 690v-72h-644v72h644z" />
    <glyph glyph-name="pi" unicode="&#x3c0;" horiz-adv-x="643" 
d="M206 487v-487h-84v487h84zM616 487l-1 -69h-588v69h589zM521 487v-487h-85v487h85z" />
    <glyph glyph-name="integral" unicode="&#x222b;" horiz-adv-x="371" 
d="M239 714q17 0 45 -0.5t54 -3.5l-6 -61h-65q-37 0 -52.5 -17.5t-13.5 -64.5l45 -656q4 -67 -22.5 -100t-94.5 -33h-19.5t-27 0.5t-27.5 1.5t-21 2l5 61h64q38 0 53.5 19t12.5 65l-43 654q-4 66 25.5 99.5t87.5 33.5z" />
    <glyph glyph-name="uni03A9" unicode="&#x3a9;" horiz-adv-x="719" 
d="M360 703q100 0 162 -37t90.5 -110.5t28.5 -183.5q0 -74 -15 -128t-47 -95t-83 -78q18 3 34 4.5t32 1.5h104l1 -77h-251l-1 74q51 36 80 76t42 91t13 120q0 93 -19.5 151.5t-61.5 85.5t-110 27q-70 0 -111.5 -27.5t-60 -86t-18.5 -152.5q0 -75 14 -125t43.5 -87t76.5 -73
v-74h-251v77h104q17 0 33 -1t33 -5q-51 38 -83 80t-46.5 95.5t-14.5 125.5q0 110 28 183.5t90 110.5t164 37z" />
    <glyph glyph-name="logicalnot" unicode="&#xac;" horiz-adv-x="590" 
d="M512 330v-65h-438v65h438zM512 321v-189h-66v189h66z" />
    <glyph glyph-name="radical" unicode="&#x221a;" horiz-adv-x="566" 
d="M542 876l-257 -868q-3 -8 -13 -8h-99q-11 0 -13 8l-126 479h72l110 -429h13l240 818h73z" />
    <glyph glyph-name="approxequal" unicode="&#x2248;" horiz-adv-x="587" 
d="M173 256q26 -1 56 -9.5t61.5 -19.5t62 -20t57.5 -10q24 -1 33.5 10t9.5 43h58q8 -59 -16 -88.5t-82 -28.5q-28 0 -58.5 9t-61.5 20t-60.5 20t-55.5 10q-23 0 -33 -10.5t-10 -45.5h-57q-6 45 5 71.5t35 38t56 10.5zM173 447q26 -1 56 -9.5t61.5 -19.5t62 -19.5t57.5 -9.5
q24 -1 33.5 9t9.5 44h58q8 -60 -16 -89.5t-82 -28.5q-28 0 -58.5 9t-61.5 20t-60.5 20t-55.5 10q-23 1 -33 -10.5t-10 -45.5h-57q-6 45 5 71.5t35 38t56 10.5z" />
    <glyph glyph-name="uni0394" unicode="&#x394;" horiz-adv-x="626" 
d="M357 690l244 -653v-37h-576v37l244 653h88zM314 605q-6 -20 -11.5 -39.5t-12.5 -39.5l-164 -454h372l-162 455q-7 19 -12 39t-10 39z" />
    <glyph glyph-name="lozenge" unicode="&#x25ca;" horiz-adv-x="576" 
d="M297 692l243 -338q5 -8 0 -16l-243 -340q-9 -11 -16 0l-245 340q-5 8 0 16l245 338q7 11 16 0zM289 607l-183 -261l183 -263l182 263z" />
    <glyph glyph-name="acute" unicode="&#xb4;" horiz-adv-x="314" 
d="M221 731l49 -66l-192 -120l-29 39z" />
    <glyph glyph-name="breve" unicode="&#x2d8;" horiz-adv-x="375" 
d="M294 696l44 -6q3 -39 -15 -68.5t-52 -46.5t-83 -17q-48 0 -82.5 17t-52 46.5t-15.5 68.5l44 6q-1 -35 27 -55t80 -20q50 0 77.5 20t27.5 55z" />
    <glyph glyph-name="caron" unicode="&#x2c7;" horiz-adv-x="420" 
d="M344 724l30 -36l-143 -128h-40l-143 128l29 36l130 -87h8z" />
    <glyph glyph-name="cedilla" unicode="&#xb8;" horiz-adv-x="234" 
d="M90 -43q39 4 63.5 -0.5t36.5 -19.5t11 -45q-1 -42 -23 -71.5t-59 -42.5t-85 -7l13 45q41 -1 66.5 18.5t26.5 50.5q1 18 -11 24.5t-48 7.5z" />
    <glyph glyph-name="circumflex" unicode="&#x2c6;" horiz-adv-x="420" 
d="M241 713l133 -127l-30 -37l-129 97h-8l-130 -97l-29 37l132 127h61z" />
    <glyph glyph-name="dieresis" unicode="&#xa8;" horiz-adv-x="411" 
d="M309 693q24 0 24 -24v-55q0 -24 -24 -24h-28q-24 0 -24 24v55q0 24 24 24h28zM132 693q23 0 23 -24v-55q0 -24 -23 -24h-29q-23 0 -23 24v55q0 24 23 24h29z" />
    <glyph glyph-name="dotaccent" unicode="&#x2d9;" horiz-adv-x="221" 
d="M124 685q26 0 26 -25v-57q0 -26 -26 -26h-27q-26 0 -26 26v57q0 25 26 25h27z" />
    <glyph glyph-name="grave" unicode="`" horiz-adv-x="315" 
d="M85 723l172 -146l-29 -39l-192 120z" />
    <glyph glyph-name="hungarumlaut" unicode="&#x2dd;" horiz-adv-x="455" 
d="M159 741l62 -42l-134 -160l-38 28zM323 741l62 -42l-134 -160l-38 28z" />
    <glyph glyph-name="macron" unicode="&#xaf;" horiz-adv-x="400" 
d="M339 672v-63h-278v63h278z" />
    <glyph glyph-name="ogonek" unicode="&#x2db;" horiz-adv-x="252" 
d="M144 2l38 -2q-22 -25 -41.5 -52.5t-32.5 -61.5q-15 -37 8 -48t70 4l10 -35q-47 -20 -79.5 -20.5t-51 12.5t-22.5 35.5t5 48.5q8 25 30.5 55t65.5 64z" />
    <glyph glyph-name="ring" unicode="&#x2da;" horiz-adv-x="300" 
d="M150 749q29 0 53.5 -14t39 -37.5t14.5 -53.5q0 -29 -14.5 -53t-38.5 -38t-54 -14q-29 0 -53.5 14t-39 37.5t-14.5 53.5t14.5 53.5t39 37.5t53.5 14zM150 705q-25 0 -42 -16.5t-17 -44.5t17 -44.5t42 -16.5q26 0 43 16.5t17 44.5t-17 44.5t-43 16.5z" />
    <glyph glyph-name="tilde" unicode="&#x2dc;" horiz-adv-x="419" 
d="M130 699q23 -2 41.5 -9.5t35 -17t34 -17.5t38.5 -11q29 -4 39 9t10 41h40q6 -56 -16.5 -85.5t-61.5 -26.5q-34 3 -58.5 16t-46 26t-46.5 15q-28 3 -37.5 -10.5t-9.5 -43.5h-40q-4 40 5.5 66t29 38t43.5 10z" />
    <glyph glyph-name="CR" unicode="&#xd;" horiz-adv-x="223" 
 />
    <glyph glyph-name="uni00B9" unicode="&#xb9;" horiz-adv-x="294" 
d="M210 767v-408h-66v310q0 9 0.5 18.5t1.5 19.5l-108 -29l-8 47l114 42h66z" />
    <glyph glyph-name="uni00B2" unicode="&#xb2;" horiz-adv-x="414" 
d="M200 773q48 0 80.5 -7.5t49 -28t16.5 -59.5q0 -34 -20.5 -68t-60.5 -75l-120 -119q18 2 32.5 2h32.5l153 -1l-1 -58h-305v36q0 8 2.5 15t8.5 13l125 124q27 26 44 47t26 40t9 37q1 29 -19.5 37t-55.5 8q-31 0 -60.5 -2t-70.5 -7l-4 51q46 10 80 12.5t58 2.5z" />
    <glyph glyph-name="uni00B3" unicode="&#xb3;" horiz-adv-x="407" 
d="M194 774q78 0 110 -20.5t32 -73.5q0 -41 -15 -68.5t-56 -35.5v-2q46 -7 63.5 -32.5t18.5 -69.5q2 -63 -32 -92t-114 -29q-37 0 -74.5 3.5t-70.5 8.5l5 50q23 -2 43 -3.5t40 -2t41 -0.5q52 0 72.5 16t20.5 57q0 18 -6 33t-23.5 24t-52.5 9h-85v50l85 1q35 0 50.5 10.5
t20 26t3.5 30.5q0 32 -18 43t-68 11q-31 0 -62.5 -1.5t-54.5 -4.5l-4 49q33 6 66 9.5t65 3.5z" />
    <glyph glyph-name="c_t" horiz-adv-x="829" 
d="M803 487v-67h-503q-58 0 -92 -15.5t-49 -54t-15 -106.5q0 -71 14.5 -111.5t48 -56.5t90.5 -16q20 0 58.5 2t72.5 8l8 -57q-33 -13 -73 -19t-80 -6q-83 0 -133.5 25t-73 81t-22.5 150q0 89 25 142t76.5 77t130.5 24h517zM647 631v-497q0 -35 15.5 -50t51.5 -15h74l9 -65
q-15 -4 -36 -7t-41 -4.5t-33 -1.5q-61 0 -92.5 34t-31.5 98v508h84z" />
    <glyph glyph-name="s_t" horiz-adv-x="859" 
d="M833 487v-67h-580q-45 0 -71 -2.5t-37.5 -14t-11.5 -38.5q0 -38 18 -50t53 -20l142 -32q58 -14 85.5 -43t27.5 -91q0 -60 -22.5 -90t-68.5 -40t-117 -10q-26 0 -77.5 2t-113.5 12l6 62q24 -1 51 -2.5t56.5 -1.5h60.5q55 0 86 5t44 19.5t13 43.5q0 36 -21 48t-56 20
l-140 32q-40 10 -64 26.5t-35 43t-11 66.5q0 51 20 77t62 35.5t108 9.5h593zM677 631v-497q0 -35 15.5 -50t51.5 -15h74l9 -65q-15 -4 -36 -7t-41 -4.5t-32 -1.5q-61 0 -93 34t-32 98v508h84z" />
    <glyph glyph-name="uni00A0" unicode="&#xa0;" horiz-adv-x="223" 
 />
    <glyph glyph-name="estimated" unicode="&#x212e;" horiz-adv-x="615" 
d="M426 250v142q0 32 -17 48.5t-43.5 22.5t-55.5 6q-30 0 -58.5 -6t-47.5 -22.5t-19 -48.5v-304q0 -30 20 -47t50.5 -23.5t60.5 -6.5q56 0 98 24.5t84 73.5l14 -11q-44 -60 -96 -85t-106 -25q-67 0 -121.5 28.5t-86.5 85t-32 138.5q0 83 32 139t86.5 84.5t121.5 28.5
q62 0 115.5 -26.5t86.5 -80t33 -135.5h-119zM414 259h131v-23h-387v18q7 1 29.5 1.5t54 1t65 1t62 1t45.5 0.5z" />
    <glyph glyph-name="uni1EAE" unicode="&#x1eae;" horiz-adv-x="622" 
d="M357 690q12 0 21 -6.5t12 -17.5l222 -666h-91l-179 566q-4 14 -8.5 28.5t-8.5 27.5h-28q-4 -13 -8 -27.5t-9 -28.5l-179 -566h-91l222 666q3 11 12 17.5t21 6.5h92zM485 292v-76h-350v76h350zM417 878l44 -6q3 -39 -15 -68.5t-52 -46.5t-83 -17q-48 0 -82.5 17t-52 46.5
t-15.5 68.5l44 6q-1 -35 27 -55t80 -20q50 0 77.5 20t27.5 55zM383 1017l46 -62l-138 -81l-27 36z" />
    <glyph glyph-name="uni1EB6" unicode="&#x1eb6;" horiz-adv-x="622" 
d="M417 876l43 -6q3 -39 -14 -68.5t-51.5 -46.5t-82.5 -17q-49 0 -83.5 17t-52 46.5t-15.5 68.5l43 6q0 -35 28 -55t80 -20q50 0 77.5 20t27.5 55zM357 690q12 0 21 -6.5t12 -17.5l222 -666h-91l-179 566q-4 14 -8.5 28.5t-8.5 27.5h-28q-4 -13 -8 -27.5t-9 -28.5l-179 -566
h-91l222 666q3 11 12 17.5t21 6.5h92zM485 292v-76h-350v76h350zM325 -59q26 0 26 -25v-57q0 -26 -26 -26h-28q-26 0 -26 26v57q0 25 26 25h28z" />
    <glyph glyph-name="uni1EB0" unicode="&#x1eb0;" horiz-adv-x="622" 
d="M357 690q12 0 21 -6.5t12 -17.5l222 -666h-91l-179 566q-4 14 -8.5 28.5t-8.5 27.5h-28q-4 -13 -8 -27.5t-9 -28.5l-179 -566h-91l222 666q3 11 12 17.5t21 6.5h92zM485 292v-76h-350v76h350zM206 878q0 -35 27.5 -55t77.5 -20q52 0 79.5 20t27.5 55l44 -6
q3 -39 -15 -68.5t-52.5 -46.5t-83.5 -17q-48 0 -82.5 17t-51.5 46.5t-15 68.5zM239 1017l120 -107l-27 -36l-139 81z" />
    <glyph glyph-name="uni1EB2" unicode="&#x1eb2;" horiz-adv-x="622" 
d="M357 690q12 0 21 -6.5t12 -17.5l222 -666h-91l-179 566q-4 14 -8.5 28.5t-8.5 27.5h-28q-4 -13 -8 -27.5t-9 -28.5l-179 -566h-91l222 666q3 11 12 17.5t21 6.5h92zM485 292v-76h-350v76h350zM417 878l44 -6q3 -39 -15 -68.5t-52 -46.5t-83 -17q-48 0 -82.5 17t-52 46.5
t-15.5 68.5l44 6q-1 -35 27 -55t80 -20q50 0 77.5 20t27.5 55zM286 902q28 8 39.5 23t11.5 35q0 21 -19.5 26.5t-51.5 -5.5l-9 43q37 12 67 9.5t48 -19.5t18 -51q0 -37 -24 -63.5t-71 -36.5z" />
    <glyph glyph-name="uni1EB4" unicode="&#x1eb4;" horiz-adv-x="622" 
d="M357 690q12 0 21 -6.5t12 -17.5l222 -666h-91l-179 566q-4 14 -8.5 28.5t-8.5 27.5h-28q-4 -13 -8 -27.5t-9 -28.5l-179 -566h-91l222 666q3 11 12 17.5t21 6.5h92zM485 292v-76h-350v76h350zM417 878l44 -6q3 -39 -15 -68.5t-52 -46.5t-83 -17q-48 0 -82.5 17t-52 46.5
t-15.5 68.5l44 6q-1 -35 26.5 -55t79.5 -20q50 0 78 20t28 55zM238 1013q22 -2 38 -9.5t30 -17t29 -17.5t36 -10q26 -2 36 9.5t10 39.5h37q7 -54 -15 -82t-59 -25q-24 2 -41.5 10t-32 18t-28.5 18t-31 9q-27 2 -36.5 -10.5t-9.5 -41.5h-37q-4 38 5 63t27.5 36.5t41.5 9.5z
" />
    <glyph glyph-name="uni1EA4" unicode="&#x1ea4;" horiz-adv-x="622" 
d="M357 690q12 0 21 -6.5t12 -17.5l222 -666h-91l-179 566q-4 14 -8.5 28.5t-8.5 27.5h-28q-4 -13 -8 -27.5t-9 -28.5l-179 -566h-91l222 666q3 11 12 17.5t21 6.5h92zM485 292v-76h-350v76h350zM281 880h61l126 -111l-28 -37l-124 85h-8l-124 -85l-30 37zM510 986l56 -54
l-128 -100l-32 32z" />
    <glyph glyph-name="uni1EAC" unicode="&#x1eac;" horiz-adv-x="622" 
d="M357 690q12 0 21 -6.5t12 -17.5l222 -666h-91l-179 566q-4 14 -8.5 28.5t-8.5 27.5h-28q-4 -13 -8 -27.5t-9 -28.5l-179 -566h-91l222 666q3 11 12 17.5t21 6.5h92zM485 292v-76h-350v76h350zM342 889l133 -127l-30 -37l-130 97h-8l-129 -97l-29 37l131 127h62zM325 -64
q26 0 26 -25v-57q0 -26 -26 -26h-27q-26 0 -26 26v57q0 25 26 25h27z" />
    <glyph glyph-name="uni1EA6" unicode="&#x1ea6;" horiz-adv-x="622" 
d="M357 690q12 0 21 -6.5t12 -17.5l222 -666h-91l-179 566q-4 14 -8.5 28.5t-8.5 27.5h-28q-4 -13 -8 -27.5t-9 -28.5l-179 -566h-91l222 666q3 11 12 17.5t21 6.5h92zM485 292v-76h-350v76h350zM342 880l127 -111l-30 -37l-123 85h-8l-125 -85l-28 37l126 111h61zM113 986
l104 -122l-32 -32l-127 100z" />
    <glyph glyph-name="uni1EA8" unicode="&#x1ea8;" horiz-adv-x="622" 
d="M357 690q12 0 21 -6.5t12 -17.5l222 -666h-91l-179 566q-4 14 -8.5 28.5t-8.5 27.5h-28q-4 -13 -8 -27.5t-9 -28.5l-179 -566h-91l222 666q3 11 12 17.5t21 6.5h92zM485 292v-76h-350v76h350zM281 880h61l126 -111l-28 -37l-124 85h-8l-124 -85l-30 37zM415 880
q29 9 40 24t11 35q0 21 -19.5 26t-51.5 -6l-9 44q37 12 67 9.5t48 -20t18 -51.5q0 -36 -24 -63t-71 -36z" />
    <glyph glyph-name="uni1EAA" unicode="&#x1eaa;" horiz-adv-x="622" 
d="M357 690q12 0 21 -6.5t12 -17.5l222 -666h-91l-179 566q-4 14 -8.5 28.5t-8.5 27.5h-28q-4 -13 -8 -27.5t-9 -28.5l-179 -566h-91l222 666q3 11 12 17.5t21 6.5h92zM485 292v-76h-350v76h350zM342 880l126 -111l-28 -37l-124 85h-8l-124 -85l-30 37l127 111h61zM242 1009
q22 -2 38 -9.5t30 -17t29 -17t35 -9.5q27 -3 37 9t10 39h37q6 -54 -15.5 -81.5t-58.5 -24.5q-24 2 -41.5 10t-32 17.5t-28.5 17.5t-32 9q-26 3 -35.5 -10t-9.5 -42h-37q-4 38 5 63t27.5 36.5t41.5 9.5z" />
    <glyph glyph-name="uni0200" unicode="&#x200;" horiz-adv-x="622" 
d="M357 690q12 0 21 -6.5t12 -17.5l222 -666h-91l-179 566q-4 14 -8.5 28.5t-8.5 27.5h-28q-4 -13 -8 -27.5t-9 -28.5l-179 -566h-91l222 666q3 11 12 17.5t21 6.5h92zM485 292v-76h-350v76h350zM326 924l110 -174l-38 -28l-134 160zM162 924l109 -174l-37 -28l-134 160z
" />
    <glyph glyph-name="uni1EA0" unicode="&#x1ea0;" horiz-adv-x="622" 
d="M357 690q12 0 21 -6.5t12 -17.5l222 -666h-91l-179 566q-4 14 -8.5 28.5t-8.5 27.5h-28q-4 -13 -8 -27.5t-9 -28.5l-179 -566h-91l222 666q3 11 12 17.5t21 6.5h92zM485 292v-76h-350v76h350zM325 -64q26 0 26 -25v-57q0 -26 -26 -26h-28q-26 0 -26 26v57q0 25 26 25h28z
" />
    <glyph glyph-name="uni1EA2" unicode="&#x1ea2;" horiz-adv-x="622" 
d="M357 690q12 0 21 -6.5t12 -17.5l222 -666h-91l-179 566q-4 14 -8.5 28.5t-8.5 27.5h-28q-4 -13 -8 -27.5t-9 -28.5l-179 -566h-91l222 666q3 11 12 17.5t21 6.5h92zM485 292v-76h-350v76h350zM302 778q32 10 44.5 27t12.5 41q0 28 -22.5 37t-56.5 -1l-10 48q41 13 74 7
t53 -28.5t20 -60.5q0 -27 -11.5 -50t-35 -39t-58.5 -23z" />
    <glyph glyph-name="uni0202" unicode="&#x202;" horiz-adv-x="622" 
d="M357 690q12 0 21 -6.5t12 -17.5l222 -666h-91l-179 566q-4 14 -8.5 28.5t-8.5 27.5h-28q-4 -13 -8 -27.5t-9 -28.5l-179 -566h-91l222 666q3 11 12 17.5t21 6.5h92zM485 292v-76h-350v76h350zM203 745l-43 7q-2 39 15 69t51.5 46.5t82.5 16.5q49 0 83.5 -16.5t52.5 -46.5
t15 -69l-44 -7q0 36 -27.5 55.5t-79.5 19.5q-50 0 -78 -19.5t-28 -55.5z" />
    <glyph glyph-name="uni1E08" unicode="&#x1e08;" horiz-adv-x="570" 
d="M332 702q44 0 75.5 -2t58 -6.5t54.5 -11.5l-9 -67q-30 3 -55.5 5t-54.5 3t-69 1q-67 0 -106 -26t-55.5 -87t-16.5 -166t16.5 -166t55.5 -87t106 -26q64 0 107.5 2.5t85.5 8.5l9 -66q-43 -12 -88.5 -17.5t-113.5 -5.5q-99 0 -158.5 34.5t-86 112.5t-26.5 210t26.5 210
t86 112.5t158.5 34.5zM428 913l48 -65l-191 -120l-30 39zM282 -55q39 4 64 -0.5t37 -19.5t11 -45q-1 -42 -23.5 -71.5t-59.5 -42.5t-85 -7l14 45q41 -1 66 18.5t26 50.5q1 18 -11 24.5t-48 7.5z" />
    <glyph glyph-name="uni01C4" unicode="&#x1c4;" horiz-adv-x="1224" 
d="M333 699q74 0 125.5 -18t83 -59t46 -109t14.5 -168t-14.5 -168t-46 -109t-83 -59t-125.5 -18q-71 0 -131.5 2.5t-114.5 6.5l38 72q42 -1 93.5 -2.5t114.5 -1.5q66 0 105 25.5t55.5 86t16.5 165.5t-16.5 165.5t-55.5 86.5t-105 26q-62 0 -111.5 -1t-96.5 -2l-38 70
q54 4 114.5 6.5t131.5 2.5zM175 690v-690h-88v690h88zM1074 616l96 -1l-367 -541l-97 1zM1177 75v-75h-471v75h471zM1170 690v-75h-458v75h458zM1074 911l30 -36l-143 -128h-40l-143 128l29 36l130 -87h8z" />
    <glyph glyph-name="uni1E0C" unicode="&#x1e0c;" horiz-adv-x="664" 
d="M333 699q74 0 125.5 -18t83 -59t46 -109t14.5 -168t-14.5 -168t-46 -109t-83 -59t-125.5 -18q-71 0 -131.5 2.5t-114.5 6.5l38 72q42 -1 93.5 -2.5t114.5 -1.5q66 0 105 25.5t55.5 86t16.5 165.5t-16.5 165.5t-55.5 86.5t-105 26q-62 0 -111.5 -1t-96.5 -2l-38 70
q54 4 114.5 6.5t131.5 2.5zM175 690v-690h-88v690h88zM337 -64q26 0 26 -25v-57q0 -26 -26 -26h-27q-26 0 -26 26v57q0 25 26 25h27z" />
    <glyph glyph-name="uni1E0E" unicode="&#x1e0e;" horiz-adv-x="664" 
d="M333 699q74 0 125.5 -18t83 -59t46 -109t14.5 -168t-14.5 -168t-46 -109t-83 -59t-125.5 -18q-71 0 -131.5 2.5t-114.5 6.5l38 72q42 -1 93.5 -2.5t114.5 -1.5q66 0 105 25.5t55.5 86t16.5 165.5t-16.5 165.5t-55.5 86.5t-105 26q-62 0 -111.5 -1t-96.5 -2l-38 70
q54 4 114.5 6.5t131.5 2.5zM175 690v-690h-88v690h88zM462 -90v-63h-278v63h278z" />
    <glyph glyph-name="uni01C5" unicode="&#x1c5;" horiz-adv-x="1174" 
d="M333 699q74 0 125.5 -18t83 -59t46 -109t14.5 -168t-14.5 -168t-46 -109t-83 -59t-125.5 -18q-71 0 -131.5 2.5t-114.5 6.5l38 72q42 -1 93.5 -2.5t114.5 -1.5q66 0 105 25.5t55.5 86t16.5 165.5t-16.5 165.5t-55.5 86.5t-105 26q-62 0 -111.5 -1t-96.5 -2l-38 70
q54 4 114.5 6.5t131.5 2.5zM175 690v-690h-88v690h88zM1027 418l95 -1l-314 -349l-95 1zM1125 69v-69h-412v69h412zM1122 487v-70h-406v70h406zM1053 731l30 -36l-143 -128h-40l-143 128l29 36l130 -87h8z" />
    <glyph glyph-name="uni1E1C" unicode="&#x1e1c;" horiz-adv-x="560" 
d="M415 897l43 -6q3 -39 -14 -68.5t-51.5 -46.5t-82.5 -17q-49 0 -83.5 17t-52 46.5t-15.5 68.5l43 6q0 -35 28 -55t80 -20q50 0 77.5 20t27.5 55zM214 691h100.5t100 -1.5t95.5 -4.5l-4 -69h-277q-31 0 -45.5 -15.5t-14.5 -50.5v-410q0 -35 14.5 -51t45.5 -16h277l4 -68
q-46 -3 -95.5 -4t-100 -1.5t-100.5 -0.5q-61 0 -96.5 32.5t-36.5 87.5v452q1 56 36.5 88t96.5 32zM99 400h368v-71h-368v71zM257 -43q39 4 64 -0.5t37 -19.5t11 -45q-1 -42 -23.5 -71.5t-59.5 -42.5t-85 -7l14 45q41 -1 66 18.5t26 50.5q1 18 -11 24.5t-48 7.5z" />
    <glyph glyph-name="uni1EBE" unicode="&#x1ebe;" horiz-adv-x="560" 
d="M214 691h100.5t100 -1.5t95.5 -4.5l-4 -69h-277q-31 0 -45.5 -15.5t-14.5 -50.5v-410q0 -35 14.5 -51t45.5 -16h277l4 -68q-46 -3 -95.5 -4t-100 -1.5t-100.5 -0.5q-61 0 -96.5 32.5t-36.5 87.5v452q1 56 36.5 88t96.5 32zM99 400h368v-71h-368v71zM279 901h61l126 -111
l-28 -37l-124 85h-8l-124 -85l-30 37zM508 1007l56 -54l-128 -100l-32 32z" />
    <glyph glyph-name="uni1EC6" unicode="&#x1ec6;" horiz-adv-x="560" 
d="M340 910l133 -127l-30 -37l-130 97h-8l-129 -97l-29 37l131 127h62zM214 691h100.5t100 -1.5t95.5 -4.5l-4 -69h-277q-31 0 -45.5 -15.5t-14.5 -50.5v-410q0 -35 14.5 -51t45.5 -16h277l4 -68q-46 -3 -95.5 -4t-100 -1.5t-100.5 -0.5q-61 0 -96.5 32.5t-36.5 87.5v452
q1 56 36.5 88t96.5 32zM99 400h368v-71h-368v71zM314 -52q26 0 26 -25v-57q0 -26 -26 -26h-27q-26 0 -26 26v57q0 25 26 25h27z" />
    <glyph glyph-name="uni1EC0" unicode="&#x1ec0;" horiz-adv-x="560" 
d="M214 691h100.5t100 -1.5t95.5 -4.5l-4 -69h-277q-31 0 -45.5 -15.5t-14.5 -50.5v-410q0 -35 14.5 -51t45.5 -16h277l4 -68q-46 -3 -95.5 -4t-100 -1.5t-100.5 -0.5q-61 0 -96.5 32.5t-36.5 87.5v452q1 56 36.5 88t96.5 32zM99 400h368v-71h-368v71zM340 901l127 -111
l-30 -37l-123 85h-8l-125 -85l-28 37l126 111h61zM111 1007l104 -122l-32 -32l-127 100z" />
    <glyph glyph-name="uni1EC2" unicode="&#x1ec2;" horiz-adv-x="560" 
d="M214 691h100.5t100 -1.5t95.5 -4.5l-4 -69h-277q-31 0 -45.5 -15.5t-14.5 -50.5v-410q0 -35 14.5 -51t45.5 -16h277l4 -68q-46 -3 -95.5 -4t-100 -1.5t-100.5 -0.5q-61 0 -96.5 32.5t-36.5 87.5v452q1 56 36.5 88t96.5 32zM99 400h368v-71h-368v71zM279 901h61l126 -111
l-28 -37l-124 85h-8l-124 -85l-30 37zM413 901q29 9 40 24t11 35q0 21 -19.5 26t-51.5 -6l-9 44q37 12 67 9.5t48 -20t18 -51.5q0 -36 -24 -63t-71 -36z" />
    <glyph glyph-name="uni1EC4" unicode="&#x1ec4;" horiz-adv-x="560" 
d="M214 691h100.5t100 -1.5t95.5 -4.5l-4 -69h-277q-31 0 -45.5 -15.5t-14.5 -50.5v-410q0 -35 14.5 -51t45.5 -16h277l4 -68q-46 -3 -95.5 -4t-100 -1.5t-100.5 -0.5q-61 0 -96.5 32.5t-36.5 87.5v452q1 56 36.5 88t96.5 32zM99 400h368v-71h-368v71zM340 901l126 -111
l-28 -37l-124 85h-8l-124 -85l-30 37l127 111h61zM240 1030q22 -2 38 -9.5t30 -17t29 -17t35 -9.5q27 -3 37 9t10 39h37q6 -54 -15.5 -81.5t-58.5 -24.5q-24 2 -41.5 10t-32 17.5t-28.5 17.5t-32 9q-26 3 -35.5 -10t-9.5 -42h-37q-4 38 5 63t27.5 36.5t41.5 9.5z" />
    <glyph glyph-name="uni0204" unicode="&#x204;" horiz-adv-x="560" 
d="M214 691h100.5t100 -1.5t95.5 -4.5l-4 -69h-277q-31 0 -45.5 -15.5t-14.5 -50.5v-410q0 -35 14.5 -51t45.5 -16h277l4 -68q-46 -3 -95.5 -4t-100 -1.5t-100.5 -0.5q-61 0 -96.5 32.5t-36.5 87.5v452q1 56 36.5 88t96.5 32zM99 400h368v-71h-368v71zM324 945l110 -174
l-38 -28l-134 160zM160 945l109 -174l-37 -28l-134 160z" />
    <glyph glyph-name="uni1EB8" unicode="&#x1eb8;" horiz-adv-x="560" 
d="M214 691h100.5t100 -1.5t95.5 -4.5l-4 -69h-277q-31 0 -45.5 -15.5t-14.5 -50.5v-410q0 -35 14.5 -51t45.5 -16h277l4 -68q-46 -3 -95.5 -4t-100 -1.5t-100.5 -0.5q-61 0 -96.5 32.5t-36.5 87.5v452q1 56 36.5 88t96.5 32zM99 400h368v-71h-368v71zM315 -52q26 0 26 -25
v-57q0 -26 -26 -26h-28q-26 0 -26 26v57q0 25 26 25h28z" />
    <glyph glyph-name="uni1EBA" unicode="&#x1eba;" horiz-adv-x="560" 
d="M214 691h100.5t100 -1.5t95.5 -4.5l-4 -69h-277q-31 0 -45.5 -15.5t-14.5 -50.5v-410q0 -35 14.5 -51t45.5 -16h277l4 -68q-46 -3 -95.5 -4t-100 -1.5t-100.5 -0.5q-61 0 -96.5 32.5t-36.5 87.5v452q1 56 36.5 88t96.5 32zM99 400h368v-71h-368v71zM287 797
q32 9 44.5 26.5t12.5 40.5q0 28 -22.5 37.5t-56.5 -0.5l-10 48q41 12 74 6t53 -28t20 -60q0 -28 -12.5 -51t-36 -39t-56.5 -23z" />
    <glyph glyph-name="uni0206" unicode="&#x206;" horiz-adv-x="560" 
d="M214 691h100.5t100 -1.5t95.5 -4.5l-4 -69h-277q-31 0 -45.5 -15.5t-14.5 -50.5v-410q0 -35 14.5 -51t45.5 -16h277l4 -68q-46 -3 -95.5 -4t-100 -1.5t-100.5 -0.5q-61 0 -96.5 32.5t-36.5 87.5v452q1 56 36.5 88t96.5 32zM99 400h368v-71h-368v71zM202 766l-43 7
q-2 39 15 69t51.5 46.5t82.5 16.5q49 0 83.5 -16.5t52.5 -46.5t15 -69l-44 -7q0 36 -27.5 55.5t-79.5 19.5q-50 0 -78 -19.5t-28 -55.5z" />
    <glyph glyph-name="uni1E16" unicode="&#x1e16;" horiz-adv-x="560" 
d="M214 691h100.5t100 -1.5t95.5 -4.5l-4 -69h-277q-31 0 -45.5 -15.5t-14.5 -50.5v-410q0 -35 14.5 -51t45.5 -16h277l4 -68q-46 -3 -95.5 -4t-100 -1.5t-100.5 -0.5q-61 0 -96.5 32.5t-36.5 87.5v452q1 56 36.5 88t96.5 32zM99 400h368v-71h-368v71zM449 848v-63h-278v63
h278zM356 1027l51 -59l-133 -90l-30 34z" />
    <glyph glyph-name="uni1E14" unicode="&#x1e14;" horiz-adv-x="560" 
d="M214 691h100.5t100 -1.5t95.5 -4.5l-4 -69h-277q-31 0 -45.5 -15.5t-14.5 -50.5v-410q0 -35 14.5 -51t45.5 -16h277l4 -68q-46 -3 -95.5 -4t-100 -1.5t-100.5 -0.5q-61 0 -96.5 32.5t-36.5 87.5v452q1 56 36.5 88t96.5 32zM99 400h368v-71h-368v71zM171 848h278v-63h-278
v63zM264 1027l112 -115l-30 -34l-133 90z" />
    <glyph glyph-name="uni1EBC" unicode="&#x1ebc;" horiz-adv-x="560" 
d="M214 691h100.5t100 -1.5t95.5 -4.5l-4 -69h-277q-31 0 -45.5 -15.5t-14.5 -50.5v-410q0 -35 14.5 -51t45.5 -16h277l4 -68q-46 -3 -95.5 -4t-100 -1.5t-100.5 -0.5q-61 0 -96.5 32.5t-36.5 87.5v452q1 56 36.5 88t96.5 32zM99 400h368v-71h-368v71zM230 893
q23 -2 41.5 -9.5t35 -17t34 -17.5t38.5 -11q29 -4 39 9t10 41h40q6 -56 -16.5 -85.5t-61.5 -26.5q-34 3 -58.5 16t-46 26t-46.5 15q-28 3 -37.5 -10.5t-9.5 -43.5h-40q-4 40 5.5 66t29 38t43.5 10z" />
    <glyph glyph-name="Gcaron" unicode="&#x1e6;" horiz-adv-x="628" 
d="M350 703q35 0 68 -2t64 -6.5t60 -12.5l-9 -66q-31 3 -62.5 5t-60.5 2.5t-55 0.5q-56 0 -94.5 -10.5t-61.5 -40.5t-33.5 -86t-10.5 -146q0 -102 14 -162.5t47 -87.5t88 -27q38 0 69.5 11t59 28.5t53.5 36.5l12 -54q-18 -21 -49.5 -44t-73.5 -39t-95 -16q-77 0 -125.5 38.5
t-70.5 118t-22 203.5q0 137 27.5 214.5t91 109.5t169.5 32zM560 399v-399h-64l-14 102l-8 20v277h86zM462 918l30 -36l-143 -128h-40l-143 128l29 36l130 -87h8z" />
    <glyph glyph-name="uni1E20" unicode="&#x1e20;" horiz-adv-x="628" 
d="M350 703q35 0 68 -2t64 -6.5t60 -12.5l-9 -66q-31 3 -62.5 5t-60.5 2.5t-55 0.5q-56 0 -94.5 -10.5t-61.5 -40.5t-33.5 -86t-10.5 -146q0 -102 14 -162.5t47 -87.5t88 -27q38 0 69.5 11t59 28.5t53.5 36.5l12 -54q-18 -21 -49.5 -44t-73.5 -39t-95 -16q-77 0 -125.5 38.5
t-70.5 118t-22 203.5q0 137 27.5 214.5t91 109.5t169.5 32zM560 399v-399h-64l-14 102l-8 20v277h86zM467 856v-63h-279v63h279z" />
    <glyph glyph-name="uni1E2A" unicode="&#x1e2a;" 
d="M175 690v-690h-88v690h88zM504 407v-76h-337v76h337zM581 690v-690h-88v690h88zM441 -42l43 -7q3 -39 -14.5 -68.5t-52 -46.5t-82.5 -17t-83 17t-52.5 46.5t-15.5 68.5l44 7q0 -36 27.5 -55.5t79.5 -19.5q50 0 78 19.5t28 55.5z" />
    <glyph glyph-name="uni1E24" unicode="&#x1e24;" 
d="M175 690v-690h-88v690h88zM504 407v-76h-337v76h337zM581 690v-690h-88v690h88zM349 -52q26 0 26 -25v-57q0 -26 -26 -26h-27q-26 0 -26 26v57q0 25 26 25h27z" />
    <glyph glyph-name="uni0208" unicode="&#x208;" horiz-adv-x="262" 
d="M175 690v-690h-88v690h88zM146 931l110 -174l-38 -28l-134 160zM-18 931l109 -174l-37 -28l-134 160z" />
    <glyph glyph-name="uni1E2E" unicode="&#x1e2e;" horiz-adv-x="262" 
d="M175 690v-690h-88v690h88zM223 853q22 0 22 -22v-50q0 -21 -22 -21h-26q-22 0 -22 21v50q0 22 22 22h26zM205 1051l47 -62l-163 -100l-27 37zM62 853q21 0 21 -22v-50q0 -21 -21 -21h-26q-22 0 -22 21v50q0 22 22 22h26z" />
    <glyph glyph-name="uni1ECA" unicode="&#x1eca;" horiz-adv-x="262" 
d="M175 690v-690h-88v690h88zM143 -52q26 0 26 -25v-57q0 -26 -26 -26h-28q-26 0 -26 26v57q0 25 26 25h28z" />
    <glyph glyph-name="uni1EC8" unicode="&#x1ec8;" horiz-adv-x="262" 
d="M175 690v-690h-88v690h88zM108 783q32 9 44.5 26.5t12.5 40.5q0 28 -22.5 37.5t-56.5 -0.5l-10 48q41 12 74 6t53 -28t20 -60q0 -28 -12.5 -51t-36 -39t-56.5 -23z" />
    <glyph glyph-name="uni020A" unicode="&#x20a;" horiz-adv-x="262" 
d="M175 690v-690h-88v690h88zM23 752l-43 7q-2 39 15 69t51.5 46.5t82.5 16.5q49 0 83.5 -16.5t52.5 -46.5t15 -69l-44 -7q0 36 -27.5 55.5t-79.5 19.5q-50 0 -78 -19.5t-28 -55.5z" />
    <glyph glyph-name="uni01C7" unicode="&#x1c7;" horiz-adv-x="854" 
d="M172 690v-550q0 -34 16.5 -50t50.5 -16h249l4 -68q-65 -5 -132.5 -6t-134.5 -1q-76 0 -108 37t-32 93v561h87zM770 690v-545q0 -76 -34.5 -115t-99.5 -39q-13 0 -30.5 1.5t-34 4.5t-27.5 7l10 62h50q78 0 78 76v548h88z" />
    <glyph glyph-name="uni1E36" unicode="&#x1e36;" horiz-adv-x="514" 
d="M172 690v-550q0 -34 16.5 -50t50.5 -16h249l4 -68q-65 -5 -132.5 -6t-134.5 -1q-76 0 -108 37t-32 93v561h87zM315 -52q26 0 26 -25v-57q0 -26 -26 -26h-27q-26 0 -26 26v57q0 25 26 25h27z" />
    <glyph glyph-name="uni01C8" unicode="&#x1c8;" horiz-adv-x="763" 
d="M172 690v-550q0 -34 16.5 -50t50.5 -16h249l4 -68q-65 -5 -132.5 -6t-134.5 -1q-76 0 -108 37t-32 93v561h87zM682 487v-499q0 -39 -11.5 -74.5t-32.5 -65t-50 -51.5l-47 37q29 35 42.5 71t13.5 83v499h85zM660 694q25 0 25 -26v-57q0 -26 -25 -26h-40q-26 0 -26 26v57
q0 26 26 26h40z" />
    <glyph glyph-name="uni1E3A" unicode="&#x1e3a;" horiz-adv-x="514" 
d="M172 690v-550q0 -34 16.5 -50t50.5 -16h249l4 -68q-65 -5 -132.5 -6t-134.5 -1q-76 0 -108 37t-32 93v561h87zM440 -78v-63h-278v63h278z" />
    <glyph glyph-name="uni1E42" unicode="&#x1e42;" horiz-adv-x="877" 
d="M739 690q36 0 36 -37l29 -653h-88l-25 617h-21l-154 -509q-8 -30 -38 -30h-79q-31 0 -40 30l-154 509h-20l-24 -617h-88l27 653q2 37 37 37h100q28 0 37 -30l129 -421q8 -23 13.5 -46t12.5 -47h18q7 24 13 47t13 48l129 419q8 30 38 30h99zM452 -52q26 0 26 -25v-57
q0 -26 -26 -26h-27q-26 0 -26 26v57q0 25 26 25h27z" />
    <glyph glyph-name="uni01CA" unicode="&#x1ca;" horiz-adv-x="1045" 
d="M618 690v-655q0 -35 -34 -35h-86q-15 0 -24 7t-15 21l-233 489q-9 20 -21 45t-18 46h-16q2 -22 3 -45t1 -46v-517h-88v655q0 35 35 35h83q15 0 24 -7t15 -21l226 -477q11 -21 23.5 -47.5t23.5 -52.5h17q-1 27 -2 53t-1 52v500h87zM961 690v-545q0 -76 -34.5 -115
t-99.5 -39q-13 0 -30.5 1.5t-34 4.5t-27.5 7l10 62h50q78 0 78 76v548h88z" />
    <glyph glyph-name="uni1E44" unicode="&#x1e44;" horiz-adv-x="705" 
d="M618 690v-655q0 -35 -34 -35h-86q-15 0 -24 7t-15 21l-233 489q-9 20 -21 45t-18 46h-16q2 -22 3 -45t1 -46v-517h-88v655q0 35 35 35h83q15 0 24 -7t15 -21l226 -477q11 -21 23.5 -47.5t23.5 -52.5h17q-1 27 -2 53t-1 52v500h87zM377 867q26 0 26 -25v-57q0 -26 -26 -26
h-27q-26 0 -26 26v57q0 25 26 25h27z" />
    <glyph glyph-name="uni1E46" unicode="&#x1e46;" horiz-adv-x="705" 
d="M618 690v-655q0 -35 -34 -35h-86q-15 0 -24 7t-15 21l-233 489q-9 20 -21 45t-18 46h-16q2 -22 3 -45t1 -46v-517h-88v655q0 35 35 35h83q15 0 24 -7t15 -21l226 -477q11 -21 23.5 -47.5t23.5 -52.5h17q-1 27 -2 53t-1 52v500h87zM374 -52q26 0 26 -25v-57q0 -26 -26 -26
h-27q-26 0 -26 26v57q0 25 26 25h27z" />
    <glyph glyph-name="uni01CB" unicode="&#x1cb;" horiz-adv-x="955" 
d="M618 690v-655q0 -35 -34 -35h-86q-15 0 -24 7t-15 21l-233 489q-9 20 -21 45t-18 46h-16q2 -22 3 -45t1 -46v-517h-88v655q0 35 35 35h83q15 0 24 -7t15 -21l226 -477q11 -21 23.5 -47.5t23.5 -52.5h17q-1 27 -2 53t-1 52v500h87zM873 487v-499q0 -39 -11.5 -74.5
t-32.5 -65t-50 -51.5l-47 37q29 35 42.5 71t13.5 83v499h85zM851 694q25 0 25 -26v-57q0 -26 -25 -26h-40q-26 0 -26 26v57q0 26 26 26h40z" />
    <glyph glyph-name="uni1E48" unicode="&#x1e48;" horiz-adv-x="705" 
d="M618 690v-655q0 -35 -34 -35h-86q-15 0 -24 7t-15 21l-233 489q-9 20 -21 45t-18 46h-16q2 -22 3 -45t1 -46v-517h-88v655q0 35 35 35h83q15 0 24 -7t15 -21l226 -477q11 -21 23.5 -47.5t23.5 -52.5h17q-1 27 -2 53t-1 52v500h87zM498 -78v-63h-278v63h278z" />
    <glyph glyph-name="uni1ED0" unicode="&#x1ed0;" 
d="M334 703q75 0 127.5 -18t84 -59.5t46 -110.5t14.5 -170t-14.5 -170t-46 -110.5t-84 -59.5t-127.5 -18t-127.5 18t-84.5 59.5t-46.5 110.5t-14.5 170t14.5 170t46.5 110.5t84.5 59.5t127.5 18zM334 624q-68 0 -107.5 -26t-56 -86.5t-16.5 -166.5q0 -105 16.5 -166t56 -87
t107.5 -26t107.5 26t56 87t16.5 166q0 106 -16.5 166.5t-56 86.5t-107.5 26zM305 888h61l126 -111l-28 -37l-124 85h-8l-124 -85l-30 37zM534 994l56 -54l-128 -100l-32 32z" />
    <glyph glyph-name="uni1ED8" unicode="&#x1ed8;" 
d="M366 896l133 -127l-30 -37l-130 97h-8l-129 -97l-29 37l131 127h62zM334 703q75 0 127.5 -18t84 -59.5t46 -110.5t14.5 -170t-14.5 -170t-46 -110.5t-84 -59.5t-127.5 -18t-127.5 18t-84.5 59.5t-46.5 110.5t-14.5 170t14.5 170t46.5 110.5t84.5 59.5t127.5 18zM334 624
q-68 0 -107.5 -26t-56 -86.5t-16.5 -166.5q0 -105 16.5 -166t56 -87t107.5 -26t107.5 26t56 87t16.5 166q0 106 -16.5 166.5t-56 86.5t-107.5 26zM347 -52q26 0 26 -25v-57q0 -26 -26 -26h-27q-26 0 -26 26v57q0 25 26 25h27z" />
    <glyph glyph-name="uni1ED2" unicode="&#x1ed2;" 
d="M334 703q75 0 127.5 -18t84 -59.5t46 -110.5t14.5 -170t-14.5 -170t-46 -110.5t-84 -59.5t-127.5 -18t-127.5 18t-84.5 59.5t-46.5 110.5t-14.5 170t14.5 170t46.5 110.5t84.5 59.5t127.5 18zM334 624q-68 0 -107.5 -26t-56 -86.5t-16.5 -166.5q0 -105 16.5 -166t56 -87
t107.5 -26t107.5 26t56 87t16.5 166q0 106 -16.5 166.5t-56 86.5t-107.5 26zM366 888l127 -111l-30 -37l-123 85h-8l-125 -85l-28 37l126 111h61zM137 994l104 -122l-32 -32l-127 100z" />
    <glyph glyph-name="uni1ED4" unicode="&#x1ed4;" 
d="M334 703q75 0 127.5 -18t84 -59.5t46 -110.5t14.5 -170t-14.5 -170t-46 -110.5t-84 -59.5t-127.5 -18t-127.5 18t-84.5 59.5t-46.5 110.5t-14.5 170t14.5 170t46.5 110.5t84.5 59.5t127.5 18zM334 624q-68 0 -107.5 -26t-56 -86.5t-16.5 -166.5q0 -105 16.5 -166t56 -87
t107.5 -26t107.5 26t56 87t16.5 166q0 106 -16.5 166.5t-56 86.5t-107.5 26zM305 888h61l126 -111l-28 -37l-124 85h-8l-124 -85l-30 37zM439 888q29 9 40 24t11 35q0 21 -19.5 26t-51.5 -6l-9 44q37 12 67 9.5t48 -20t18 -51.5q0 -36 -24 -63t-71 -36z" />
    <glyph glyph-name="uni1ED6" unicode="&#x1ed6;" 
d="M334 703q75 0 127.5 -18t84 -59.5t46 -110.5t14.5 -170t-14.5 -170t-46 -110.5t-84 -59.5t-127.5 -18t-127.5 18t-84.5 59.5t-46.5 110.5t-14.5 170t14.5 170t46.5 110.5t84.5 59.5t127.5 18zM334 624q-68 0 -107.5 -26t-56 -86.5t-16.5 -166.5q0 -105 16.5 -166t56 -87
t107.5 -26t107.5 26t56 87t16.5 166q0 106 -16.5 166.5t-56 86.5t-107.5 26zM366 888l126 -111l-28 -37l-124 85h-8l-124 -85l-30 37l127 111h61zM266 1017q22 -2 38 -9.5t30 -17t29 -17t35 -9.5q27 -3 37 9t10 39h37q6 -54 -15.5 -81.5t-58.5 -24.5q-24 2 -41.5 10
t-32 17.5t-28.5 17.5t-32 9q-26 3 -35.5 -10t-9.5 -42h-37q-4 38 5 63t27.5 36.5t41.5 9.5z" />
    <glyph glyph-name="uni020C" unicode="&#x20c;" 
d="M334 703q75 0 127.5 -18t84 -59.5t46 -110.5t14.5 -170t-14.5 -170t-46 -110.5t-84 -59.5t-127.5 -18t-127.5 18t-84.5 59.5t-46.5 110.5t-14.5 170t14.5 170t46.5 110.5t84.5 59.5t127.5 18zM334 624q-68 0 -107.5 -26t-56 -86.5t-16.5 -166.5q0 -105 16.5 -166t56 -87
t107.5 -26t107.5 26t56 87t16.5 166q0 106 -16.5 166.5t-56 86.5t-107.5 26zM350 931l110 -174l-38 -28l-134 160zM186 931l109 -174l-37 -28l-134 160z" />
    <glyph glyph-name="uni022A" unicode="&#x22a;" 
d="M334 703q75 0 127.5 -18t84 -59.5t46 -110.5t14.5 -170t-14.5 -170t-46 -110.5t-84 -59.5t-127.5 -18t-127.5 18t-84.5 59.5t-46.5 110.5t-14.5 170t14.5 170t46.5 110.5t84.5 59.5t127.5 18zM334 624q-68 0 -107.5 -26t-56 -86.5t-16.5 -166.5q0 -105 16.5 -166t56 -87
t107.5 -26t107.5 26t56 87t16.5 166q0 106 -16.5 166.5t-56 86.5t-107.5 26zM429 855q22 0 22 -22v-50q0 -21 -22 -21h-26q-22 0 -22 21v50q0 22 22 22h26zM268 855q21 0 21 -22v-50q0 -21 -21 -21h-26q-22 0 -22 21v50q0 22 22 22h26zM208 963h254v-56h-254v56z" />
    <glyph glyph-name="uni0230" unicode="&#x230;" 
d="M334 703q75 0 127.5 -18t84 -59.5t46 -110.5t14.5 -170t-14.5 -170t-46 -110.5t-84 -59.5t-127.5 -18t-127.5 18t-84.5 59.5t-46.5 110.5t-14.5 170t14.5 170t46.5 110.5t84.5 59.5t127.5 18zM334 624q-68 0 -107.5 -26t-56 -86.5t-16.5 -166.5q0 -105 16.5 -166t56 -87
t107.5 -26t107.5 26t56 87t16.5 166q0 106 -16.5 166.5t-56 86.5t-107.5 26zM208 963h254v-56h-254v56zM347 857q24 0 24 -23v-52q0 -12 -6 -18t-18 -6h-25q-24 0 -24 24v52q0 23 24 23h25z" />
    <glyph glyph-name="uni1ECC" unicode="&#x1ecc;" 
d="M334 703q75 0 127.5 -18t84 -59.5t46 -110.5t14.5 -170t-14.5 -170t-46 -110.5t-84 -59.5t-127.5 -18t-127.5 18t-84.5 59.5t-46.5 110.5t-14.5 170t14.5 170t46.5 110.5t84.5 59.5t127.5 18zM334 624q-68 0 -107.5 -26t-56 -86.5t-16.5 -166.5q0 -105 16.5 -166t56 -87
t107.5 -26t107.5 26t56 87t16.5 166q0 106 -16.5 166.5t-56 86.5t-107.5 26zM347 -52q26 0 26 -25v-57q0 -26 -26 -26h-28q-26 0 -26 26v57q0 25 26 25h28z" />
    <glyph glyph-name="uni1ECE" unicode="&#x1ece;" 
d="M334 703q75 0 127.5 -18t84 -59.5t46 -110.5t14.5 -170t-14.5 -170t-46 -110.5t-84 -59.5t-127.5 -18t-127.5 18t-84.5 59.5t-46.5 110.5t-14.5 170t14.5 170t46.5 110.5t84.5 59.5t127.5 18zM334 624q-68 0 -107.5 -26t-56 -86.5t-16.5 -166.5q0 -105 16.5 -166t56 -87
t107.5 -26t107.5 26t56 87t16.5 166q0 106 -16.5 166.5t-56 86.5t-107.5 26zM313 783q32 9 44.5 26.5t12.5 40.5q0 28 -22.5 37.5t-56.5 -0.5l-10 48q41 12 74 6t53 -28t20 -60q0 -28 -12.5 -51t-36 -39t-56.5 -23z" />
    <glyph glyph-name="Ohorn" unicode="&#x1a0;" 
d="M334 703q75 0 127.5 -18t84 -59.5t46 -110.5t14.5 -170t-14.5 -170t-46 -110.5t-84 -59.5t-127.5 -18t-127.5 18t-84.5 59.5t-46.5 110.5t-14.5 170t14.5 169.5t46.5 110t84.5 60t127.5 18.5zM334 624q-68 0 -107.5 -26t-56 -86.5t-16.5 -166.5q0 -105 16.5 -166t56 -87
t107.5 -26t107.5 26t56 87t16.5 166q0 106 -16.5 166.5t-56 86.5t-107.5 26zM528 584l-4 42q38 5 61 31.5t26 66.5l61 -5q-1 -40 -22 -70.5t-53.5 -47.5t-68.5 -17z" />
    <glyph glyph-name="uni1EDA" unicode="&#x1eda;" 
d="M334 703q75 0 127.5 -18t84 -59.5t46 -110.5t14.5 -170t-14.5 -170t-46 -110.5t-84 -59.5t-127.5 -18t-127.5 18t-84.5 59.5t-46.5 110.5t-14.5 170t14.5 169.5t46.5 110t84.5 60t127.5 18.5zM334 624q-68 0 -107.5 -26t-56 -86.5t-16.5 -166.5q0 -105 16.5 -166t56 -87
t107.5 -26t107.5 26t56 87t16.5 166q0 106 -16.5 166.5t-56 86.5t-107.5 26zM528 584l-4 42q38 5 61 31.5t26 66.5l61 -5q-1 -40 -22 -70.5t-53.5 -47.5t-68.5 -17zM436 921l49 -66l-192 -120l-29 39z" />
    <glyph glyph-name="uni1EE2" unicode="&#x1ee2;" 
d="M334 703q75 0 127.5 -18t84 -59.5t46 -110.5t14.5 -170t-14.5 -170t-46 -110.5t-84 -59.5t-127.5 -18t-127.5 18t-84.5 59.5t-46.5 110.5t-14.5 170t14.5 169.5t46.5 110t84.5 60t127.5 18.5zM334 624q-68 0 -107.5 -26t-56 -86.5t-16.5 -166.5q0 -105 16.5 -166t56 -87
t107.5 -26t107.5 26t56 87t16.5 166q0 106 -16.5 166.5t-56 86.5t-107.5 26zM528 584l-4 42q38 5 61 31.5t26 66.5l61 -5q-1 -40 -22 -70.5t-53.5 -47.5t-68.5 -17zM347 -52q26 0 26 -25v-57q0 -26 -26 -26h-27q-26 0 -26 26v57q0 25 26 25h27z" />
    <glyph glyph-name="uni1EDC" unicode="&#x1edc;" 
d="M334 703q75 0 127.5 -18t84 -59.5t46 -110.5t14.5 -170t-14.5 -170t-46 -110.5t-84 -59.5t-127.5 -18t-127.5 18t-84.5 59.5t-46.5 110.5t-14.5 170t14.5 169.5t46.5 110t84.5 60t127.5 18.5zM334 624q-68 0 -107.5 -26t-56 -86.5t-16.5 -166.5q0 -105 16.5 -166t56 -87
t107.5 -26t107.5 26t56 87t16.5 166q0 106 -16.5 166.5t-56 86.5t-107.5 26zM528 584l-4 42q38 5 61 31.5t26 66.5l61 -5q-1 -40 -22 -70.5t-53.5 -47.5t-68.5 -17zM221 913l172 -146l-29 -39l-192 120z" />
    <glyph glyph-name="uni1EDE" unicode="&#x1ede;" 
d="M334 703q75 0 127.5 -18t84 -59.5t46 -110.5t14.5 -170t-14.5 -170t-46 -110.5t-84 -59.5t-127.5 -18t-127.5 18t-84.5 59.5t-46.5 110.5t-14.5 170t14.5 169.5t46.5 110t84.5 60t127.5 18.5zM334 624q-68 0 -107.5 -26t-56 -86.5t-16.5 -166.5q0 -105 16.5 -166t56 -87
t107.5 -26t107.5 26t56 87t16.5 166q0 106 -16.5 166.5t-56 86.5t-107.5 26zM528 584l-4 42q38 5 61 31.5t26 66.5l61 -5q-1 -40 -22 -70.5t-53.5 -47.5t-68.5 -17zM313 783q32 9 44.5 26.5t12.5 40.5q0 28 -22.5 37.5t-56.5 -0.5l-10 48q41 12 74 6t53 -28t20 -60
q0 -28 -12.5 -51t-36 -39t-56.5 -23z" />
    <glyph glyph-name="uni1EE0" unicode="&#x1ee0;" 
d="M334 703q75 0 127.5 -18t84 -59.5t46 -110.5t14.5 -170t-14.5 -170t-46 -110.5t-84 -59.5t-127.5 -18t-127.5 18t-84.5 59.5t-46.5 110.5t-14.5 170t14.5 169.5t46.5 110t84.5 60t127.5 18.5zM334 624q-68 0 -107.5 -26t-56 -86.5t-16.5 -166.5q0 -105 16.5 -166t56 -87
t107.5 -26t107.5 26t56 87t16.5 166q0 106 -16.5 166.5t-56 86.5t-107.5 26zM528 584l-4 42q38 5 61 31.5t26 66.5l61 -5q-1 -40 -22 -70.5t-53.5 -47.5t-68.5 -17zM256 879q23 -2 41.5 -9.5t35 -17t34 -17.5t38.5 -11q29 -4 39 9t10 41h39q7 -56 -15.5 -85.5t-61.5 -26.5
q-34 3 -58.5 16t-46 26t-46.5 15q-28 3 -37.5 -10.5t-9.5 -43.5h-40q-4 40 5.5 66t29 38t43.5 10z" />
    <glyph glyph-name="uni020E" unicode="&#x20e;" 
d="M334 703q75 0 127.5 -18t84 -59.5t46 -110.5t14.5 -170t-14.5 -170t-46 -110.5t-84 -59.5t-127.5 -18t-127.5 18t-84.5 59.5t-46.5 110.5t-14.5 170t14.5 170t46.5 110.5t84.5 59.5t127.5 18zM334 624q-68 0 -107.5 -26t-56 -86.5t-16.5 -166.5q0 -105 16.5 -166t56 -87
t107.5 -26t107.5 26t56 87t16.5 166q0 106 -16.5 166.5t-56 86.5t-107.5 26zM228 752l-43 7q-2 39 15 69t51.5 46.5t82.5 16.5q49 0 83.5 -16.5t52.5 -46.5t15 -69l-44 -7q0 36 -27.5 55.5t-79.5 19.5q-50 0 -78 -19.5t-28 -55.5z" />
    <glyph glyph-name="uni1E52" unicode="&#x1e52;" 
d="M334 703q75 0 127.5 -18t84 -59.5t46 -110.5t14.5 -170t-14.5 -170t-46 -110.5t-84 -59.5t-127.5 -18t-127.5 18t-84.5 59.5t-46.5 110.5t-14.5 170t14.5 170t46.5 110.5t84.5 59.5t127.5 18zM334 624q-68 0 -107.5 -26t-56 -86.5t-16.5 -166.5q0 -105 16.5 -166t56 -87
t107.5 -26t107.5 26t56 87t16.5 166q0 106 -16.5 166.5t-56 86.5t-107.5 26zM475 835v-63h-278v63h278zM382 1014l51 -59l-133 -90l-30 34z" />
    <glyph glyph-name="uni1E50" unicode="&#x1e50;" 
d="M334 703q75 0 127.5 -18t84 -59.5t46 -110.5t14.5 -170t-14.5 -170t-46 -110.5t-84 -59.5t-127.5 -18t-127.5 18t-84.5 59.5t-46.5 110.5t-14.5 170t14.5 170t46.5 110.5t84.5 59.5t127.5 18zM334 624q-68 0 -107.5 -26t-56 -86.5t-16.5 -166.5q0 -105 16.5 -166t56 -87
t107.5 -26t107.5 26t56 87t16.5 166q0 106 -16.5 166.5t-56 86.5t-107.5 26zM197 835h278v-63h-278v63zM290 1014l112 -115l-30 -34l-133 90z" />
    <glyph glyph-name="uni01EA" unicode="&#x1ea;" 
d="M334 703q75 0 127.5 -18t84 -59.5t46 -110.5t14.5 -170t-14.5 -170t-46 -110.5t-84 -59.5t-127.5 -18t-127.5 18t-84.5 59.5t-46.5 110.5t-14.5 170t14.5 170t46.5 110.5t84.5 59.5t127.5 18zM334 624q-68 0 -107.5 -26t-56 -86.5t-16.5 -166.5q0 -105 16.5 -166t56 -87
t107.5 -26t107.5 26t56 87t16.5 166q0 106 -16.5 166.5t-56 86.5t-107.5 26zM333 2l38 -2q-22 -25 -41.5 -52.5t-32.5 -61.5q-15 -37 8 -48t70 4l10 -35q-47 -20 -79.5 -20.5t-51 12.5t-22.5 35.5t5 48.5q8 25 30.5 55t65.5 64z" />
    <glyph glyph-name="uni1E4C" unicode="&#x1e4c;" 
d="M334 703q75 0 127.5 -18t84 -59.5t46 -110.5t14.5 -170t-14.5 -170t-46 -110.5t-84 -59.5t-127.5 -18t-127.5 18t-84.5 59.5t-46.5 110.5t-14.5 170t14.5 170t46.5 110.5t84.5 59.5t127.5 18zM334 624q-68 0 -107.5 -26t-56 -86.5t-16.5 -166.5q0 -105 16.5 -166t56 -87
t107.5 -26t107.5 26t56 87t16.5 166q0 106 -16.5 166.5t-56 86.5t-107.5 26zM255 872q23 -2 41.5 -9.5t35 -17.5t34 -18t38.5 -11q29 -3 39 9.5t10 41.5h40q6 -57 -16.5 -86t-61.5 -26q-34 3 -58.5 16t-46 26t-46.5 15q-28 3 -37.5 -11t-9.5 -44h-40q-4 40 5.5 66.5t29 38.5
t43.5 10zM389 1044l51 -58l-133 -91l-30 35z" />
    <glyph glyph-name="uni1E4E" unicode="&#x1e4e;" 
d="M334 703q75 0 127.5 -18t84 -59.5t46 -110.5t14.5 -170t-14.5 -170t-46 -110.5t-84 -59.5t-127.5 -18t-127.5 18t-84.5 59.5t-46.5 110.5t-14.5 170t14.5 170t46.5 110.5t84.5 59.5t127.5 18zM334 624q-68 0 -107.5 -26t-56 -86.5t-16.5 -166.5q0 -105 16.5 -166t56 -87
t107.5 -26t107.5 26t56 87t16.5 166q0 106 -16.5 166.5t-56 86.5t-107.5 26zM255 872q23 -2 41.5 -9.5t35 -17.5t34 -18t38.5 -11q29 -3 39 9.5t10 41.5h40q6 -57 -16.5 -86t-61.5 -26q-34 3 -58.5 16t-46 26t-46.5 15q-28 3 -37.5 -11t-9.5 -44h-40q-4 40 5.5 66.5t29 38.5
t43.5 10zM242 1009h25q22 0 22 -22v-50q0 -22 -22 -22h-25q-22 0 -22 22v50q0 22 22 22zM403 1009h26q21 0 21 -22v-50q0 -22 -21 -22h-26q-21 0 -21 22v50q0 22 21 22z" />
    <glyph glyph-name="uni022C" unicode="&#x22c;" 
d="M334 703q75 0 127.5 -18t84 -59.5t46 -110.5t14.5 -170t-14.5 -170t-46 -110.5t-84 -59.5t-127.5 -18t-127.5 18t-84.5 59.5t-46.5 110.5t-14.5 170t14.5 170t46.5 110.5t84.5 59.5t127.5 18zM334 624q-68 0 -107.5 -26t-56 -86.5t-16.5 -166.5q0 -105 16.5 -166t56 -87
t107.5 -26t107.5 26t56 87t16.5 166q0 106 -16.5 166.5t-56 86.5t-107.5 26zM255 872q23 -2 41.5 -9.5t35 -17.5t34 -18t38.5 -11q29 -3 39 9.5t10 41.5h40q6 -57 -16.5 -86t-61.5 -26q-34 3 -58.5 16t-46 26t-46.5 15q-28 3 -37.5 -11t-9.5 -44h-40q-4 40 5.5 66.5t29 38.5
t43.5 10zM462 921h-254v57h254v-57z" />
    <glyph glyph-name="uni0210" unicode="&#x210;" horiz-adv-x="618" 
d="M325 699q80 0 129 -17.5t71.5 -60.5t22.5 -121q0 -56 -13 -93.5t-40.5 -58t-73.5 -26.5v-5q17 -4 33.5 -16.5t30.5 -33t21 -49.5l67 -218h-94l-61 216q-13 39 -35 55.5t-57 16.5q-61 0 -106 0.5t-75 1.5t-48 1l3 73h223q51 1 80.5 12t42.5 39.5t13 79.5t-13 78.5
t-42.5 38.5t-80.5 11q-82 0 -141.5 -1t-80.5 -1l-14 69q38 4 71 6t72.5 2.5t94.5 0.5zM174 690v-690h-87v690h87zM317 931l110 -174l-38 -28l-134 160zM153 931l109 -174l-37 -28l-134 160z" />
    <glyph glyph-name="uni1E5A" unicode="&#x1e5a;" horiz-adv-x="618" 
d="M325 699q80 0 129 -17.5t71.5 -60.5t22.5 -121q0 -56 -13 -93.5t-40.5 -58t-73.5 -26.5v-5q17 -4 33.5 -16.5t30.5 -33t21 -49.5l67 -218h-94l-61 216q-13 39 -35 55.5t-57 16.5q-61 0 -106 0.5t-75 1.5t-48 1l3 73h223q51 1 80.5 12t42.5 39.5t13 79.5t-13 78.5
t-42.5 38.5t-80.5 11q-82 0 -141.5 -1t-80.5 -1l-14 69q38 4 71 6t72.5 2.5t94.5 0.5zM174 690v-690h-87v690h87zM329 -52q26 0 26 -25v-57q0 -26 -26 -26h-27q-26 0 -26 26v57q0 25 26 25h27z" />
    <glyph glyph-name="uni0212" unicode="&#x212;" horiz-adv-x="618" 
d="M325 699q80 0 129 -17.5t71.5 -60.5t22.5 -121q0 -56 -13 -93.5t-40.5 -58t-73.5 -26.5v-5q17 -4 33.5 -16.5t30.5 -33t21 -49.5l67 -218h-94l-61 216q-13 39 -35 55.5t-57 16.5q-61 0 -106 0.5t-75 1.5t-48 1l3 73h223q51 1 80.5 12t42.5 39.5t13 79.5t-13 78.5
t-42.5 38.5t-80.5 11q-82 0 -141.5 -1t-80.5 -1l-14 69q38 4 71 6t72.5 2.5t94.5 0.5zM174 690v-690h-87v690h87zM195 752l-43 7q-2 39 15 69t51.5 46.5t82.5 16.5q49 0 83.5 -16.5t52.5 -46.5t15 -69l-44 -7q0 36 -27.5 55.5t-79.5 19.5q-50 0 -78 -19.5t-28 -55.5z" />
    <glyph glyph-name="uni1E5E" unicode="&#x1e5e;" horiz-adv-x="618" 
d="M325 699q80 0 129 -17.5t71.5 -60.5t22.5 -121q0 -56 -13 -93.5t-40.5 -58t-73.5 -26.5v-5q17 -4 33.5 -16.5t30.5 -33t21 -49.5l67 -218h-94l-61 216q-13 39 -35 55.5t-57 16.5q-61 0 -106 0.5t-75 1.5t-48 1l3 73h223q51 1 80.5 12t42.5 39.5t13 79.5t-13 78.5
t-42.5 38.5t-80.5 11q-82 0 -141.5 -1t-80.5 -1l-14 69q38 4 71 6t72.5 2.5t94.5 0.5zM174 690v-690h-87v690h87zM454 -78v-63h-278v63h278z" />
    <glyph glyph-name="uni1E64" unicode="&#x1e64;" horiz-adv-x="561" 
d="M279 702q49 -1 101 -5t104 -15l-6 -64q-43 2 -95 3.5t-100 1.5q-37 0 -63.5 -2.5t-43.5 -12t-24.5 -31t-7.5 -59.5q0 -57 20.5 -79.5t66.5 -33.5l140 -35q80 -19 109.5 -66.5t29.5 -127.5q0 -60 -13.5 -97t-41.5 -56.5t-72 -27t-104 -7.5q-34 0 -88.5 3t-125.5 16l6 65
q59 -2 95 -3.5t62 -1.5h54q53 0 83.5 8t43 32t12.5 71q0 40 -9 62t-28.5 33.5t-49.5 18.5l-143 36q-75 19 -105.5 66t-30.5 126q0 60 13.5 96.5t41 55t69.5 24.5t100 6zM297 1019q24 0 24 -23v-52q0 -12 -6 -18t-18 -6h-24q-24 0 -24 24v52q0 23 24 23h24zM348 900l46 -62
l-175 -101l-27 37z" />
    <glyph glyph-name="uni1E66" unicode="&#x1e66;" horiz-adv-x="561" 
d="M279 702q49 -1 101 -5t104 -15l-6 -64q-43 2 -95 3.5t-100 1.5q-37 0 -63.5 -2.5t-43.5 -12t-24.5 -31t-7.5 -59.5q0 -57 20.5 -79.5t66.5 -33.5l140 -35q80 -19 109.5 -66.5t29.5 -127.5q0 -60 -13.5 -97t-41.5 -56.5t-72 -27t-104 -7.5q-34 0 -88.5 3t-125.5 16l6 65
q59 -2 95 -3.5t62 -1.5h54q53 0 83.5 8t43 32t12.5 71q0 40 -9 62t-28.5 33.5t-49.5 18.5l-143 36q-75 19 -105.5 66t-30.5 126q0 60 13.5 96.5t41 55t69.5 24.5t100 6zM408 904l30 -36l-132 -118h-40l-132 118l29 36l119 -77h8zM297 1036q24 0 24 -24v-51q0 -12 -6 -18
t-18 -6h-25q-23 0 -23 24v51q0 24 23 24h25z" />
    <glyph glyph-name="uni1E60" unicode="&#x1e60;" horiz-adv-x="561" 
d="M279 702q49 -1 101 -5t104 -15l-6 -64q-43 2 -95 3.5t-100 1.5q-37 0 -63.5 -2.5t-43.5 -12t-24.5 -31t-7.5 -59.5q0 -57 20.5 -79.5t66.5 -33.5l140 -35q80 -19 109.5 -66.5t29.5 -127.5q0 -60 -13.5 -97t-41.5 -56.5t-72 -27t-104 -7.5q-34 0 -88.5 3t-125.5 16l6 65
q59 -2 95 -3.5t62 -1.5h54q53 0 83.5 8t43 32t12.5 71q0 40 -9 62t-28.5 33.5t-49.5 18.5l-143 36q-75 19 -105.5 66t-30.5 126q0 60 13.5 96.5t41 55t69.5 24.5t100 6zM299 867q26 0 26 -25v-57q0 -26 -26 -26h-27q-26 0 -26 26v57q0 25 26 25h27z" />
    <glyph glyph-name="uni1E62" unicode="&#x1e62;" horiz-adv-x="561" 
d="M279 702q49 -1 101 -5t104 -15l-6 -64q-43 2 -95 3.5t-100 1.5q-37 0 -63.5 -2.5t-43.5 -12t-24.5 -31t-7.5 -59.5q0 -57 20.5 -79.5t66.5 -33.5l140 -35q80 -19 109.5 -66.5t29.5 -127.5q0 -60 -13.5 -97t-41.5 -56.5t-72 -27t-104 -7.5q-34 0 -88.5 3t-125.5 16l6 65
q59 -2 95 -3.5t62 -1.5h54q53 0 83.5 8t43 32t12.5 71q0 40 -9 62t-28.5 33.5t-49.5 18.5l-143 36q-75 19 -105.5 66t-30.5 126q0 60 13.5 96.5t41 55t69.5 24.5t100 6zM298 -64q26 0 26 -25v-57q0 -26 -26 -26h-27q-26 0 -26 26v57q0 25 26 25h27z" />
    <glyph glyph-name="uni1E68" unicode="&#x1e68;" horiz-adv-x="561" 
d="M279 702q49 -1 101 -5t104 -15l-6 -64q-43 2 -95 3.5t-100 1.5q-37 0 -63.5 -2.5t-43.5 -12t-24.5 -31t-7.5 -59.5q0 -57 20.5 -79.5t66.5 -33.5l140 -35q80 -19 109.5 -66.5t29.5 -127.5q0 -60 -13.5 -97t-41.5 -56.5t-72 -27t-104 -7.5q-34 0 -88.5 3t-125.5 16l6 65
q59 -2 95 -3.5t62 -1.5h54q53 0 83.5 8t43 32t12.5 71q0 40 -9 62t-28.5 33.5t-49.5 18.5l-143 36q-75 19 -105.5 66t-30.5 126q0 60 13.5 96.5t41 55t69.5 24.5t100 6zM299 867q26 0 26 -25v-57q0 -26 -26 -26h-27q-26 0 -26 26v57q0 25 26 25h27zM298 -64q26 0 26 -25v-57
q0 -26 -26 -26h-27q-26 0 -26 26v57q0 25 26 25h27z" />
    <glyph glyph-name="uni1E9E" unicode="&#x1e9e;" horiz-adv-x="651" 
d="M218 691h82t95 -0.5t94 -2t78 -4.5l-5 -68h-322q-35 0 -51 -15.5t-16 -50.5v-550h-88v567q0 59 36 91.5t97 32.5zM308 381l159 235h95l-128 -187q-9 -13 -18 -23.5t-20 -18.5v-3l52 3q57 1 97 -20t62 -62t23 -103q1 -72 -19 -120t-67.5 -71.5t-132.5 -23.5
q-53 0 -100 5.5t-89 12.5l6 71q28 -3 53 -5.5t51.5 -3.5t57.5 -1q82 0 117.5 28t35.5 103q0 37 -11 64.5t-40.5 42.5t-85.5 15l-98 1v61z" />
    <glyph glyph-name="uni1E6C" unicode="&#x1e6c;" horiz-adv-x="581" 
d="M334 690v-690h-88v690h88zM557 690v-78h-533v78h533zM304 -52q26 0 26 -25v-57q0 -26 -26 -26h-27q-26 0 -26 26v57q0 25 26 25h27z" />
    <glyph glyph-name="uni1E6E" unicode="&#x1e6e;" horiz-adv-x="581" 
d="M334 690v-690h-88v690h88zM557 690v-78h-533v78h533zM428 -78v-63h-278v63h278z" />
    <glyph glyph-name="uni0214" unicode="&#x214;" horiz-adv-x="666" 
d="M584 690v-426q0 -100 -24 -161t-78 -88.5t-145 -27.5q-93 0 -149 27.5t-81 88.5t-25 161v426h88v-426q0 -74 15.5 -117.5t51.5 -62t96 -18.5t95.5 18.5t51.5 62t16 117.5v426h88zM351 946l111 -174l-38 -28l-135 159zM187 946l110 -174l-37 -28l-135 159z" />
    <glyph glyph-name="uni1EE4" unicode="&#x1ee4;" horiz-adv-x="666" 
d="M584 690v-426q0 -100 -24 -161t-78 -88.5t-145 -27.5q-93 0 -149 27.5t-81 88.5t-25 161v426h88v-426q0 -74 15.5 -117.5t51.5 -62t96 -18.5t95.5 18.5t51.5 62t16 117.5v426h88zM346 -52q26 0 26 -25v-57q0 -26 -26 -26h-28q-26 0 -26 26v57q0 25 26 25h28z" />
    <glyph glyph-name="uni1EE6" unicode="&#x1ee6;" horiz-adv-x="666" 
d="M584 690v-426q0 -100 -24 -161t-78 -88.5t-145 -27.5q-93 0 -149 27.5t-81 88.5t-25 161v426h88v-426q0 -74 15.5 -117.5t51.5 -62t96 -18.5t95.5 18.5t51.5 62t16 117.5v426h88zM311 783q32 9 44.5 26.5t12.5 40.5q0 28 -22.5 37.5t-56.5 -0.5l-10 48q41 12 74 6t53 -28
t20 -60q0 -28 -12.5 -51t-36 -39t-56.5 -23z" />
    <glyph glyph-name="Uhorn" unicode="&#x1af;" horiz-adv-x="695" 
d="M584 690v-426q0 -100 -24 -161t-78 -88.5t-145 -27.5q-93 0 -149 27.5t-81 88.5t-25 161v426h88v-426q0 -74 15.5 -117.5t51.5 -62t96 -18.5t95.5 18.5t51.5 62t16 117.5v426h88zM570 584l-4 42q38 5 61 31.5t26 66.5l61 -5q-1 -40 -22 -70.5t-53.5 -47.5t-68.5 -17z" />
    <glyph glyph-name="uni1EE8" unicode="&#x1ee8;" horiz-adv-x="695" 
d="M584 690v-426q0 -100 -24 -161t-78 -88.5t-145 -27.5q-93 0 -149 27.5t-81 88.5t-25 161v426h88v-426q0 -74 15.5 -117.5t51.5 -62t96 -18.5t95.5 18.5t51.5 62t16 117.5v426h88zM570 584l-4 42q38 5 61 31.5t26 66.5l61 -5q-1 -40 -22 -70.5t-53.5 -47.5t-68.5 -17z
M442 913l48 -65l-191 -120l-30 39z" />
    <glyph glyph-name="uni1EF0" unicode="&#x1ef0;" horiz-adv-x="695" 
d="M584 690v-426q0 -100 -24 -161t-78 -88.5t-145 -27.5q-93 0 -149 27.5t-81 88.5t-25 161v426h88v-426q0 -74 15.5 -117.5t51.5 -62t96 -18.5t95.5 18.5t51.5 62t16 117.5v426h88zM570 584l-4 42q38 5 61 31.5t26 66.5l61 -5q-1 -40 -22 -70.5t-53.5 -47.5t-68.5 -17z
M345 -52q26 0 26 -25v-57q0 -26 -26 -26h-27q-26 0 -26 26v57q0 25 26 25h27z" />
    <glyph glyph-name="uni1EEA" unicode="&#x1eea;" horiz-adv-x="695" 
d="M584 690v-426q0 -100 -24 -161t-78 -88.5t-145 -27.5q-93 0 -149 27.5t-81 88.5t-25 161v426h88v-426q0 -74 15.5 -117.5t51.5 -62t96 -18.5t95.5 18.5t51.5 62t16 117.5v426h88zM570 584l-4 42q38 5 61 31.5t26 66.5l61 -5q-1 -40 -22 -70.5t-53.5 -47.5t-68.5 -17z
M219 913l172 -146l-29 -39l-192 120z" />
    <glyph glyph-name="uni1EEC" unicode="&#x1eec;" horiz-adv-x="695" 
d="M584 690v-426q0 -100 -24 -161t-78 -88.5t-145 -27.5q-93 0 -149 27.5t-81 88.5t-25 161v426h88v-426q0 -74 15.5 -117.5t51.5 -62t96 -18.5t95.5 18.5t51.5 62t16 117.5v426h88zM570 584l-4 42q38 5 61 31.5t26 66.5l61 -5q-1 -40 -22 -70.5t-53.5 -47.5t-68.5 -17z
M311 783q32 9 44.5 26.5t12.5 40.5q0 28 -22.5 37.5t-56.5 -0.5l-10 48q41 12 74 6t53 -28t20 -60q0 -28 -12.5 -51t-36 -39t-56.5 -23z" />
    <glyph glyph-name="uni1EEE" unicode="&#x1eee;" horiz-adv-x="695" 
d="M584 690v-426q0 -100 -24 -161t-78 -88.5t-145 -27.5q-93 0 -149 27.5t-81 88.5t-25 161v426h88v-426q0 -74 15.5 -117.5t51.5 -62t96 -18.5t95.5 18.5t51.5 62t16 117.5v426h88zM570 584l-4 42q38 5 61 31.5t26 66.5l61 -5q-1 -40 -22 -70.5t-53.5 -47.5t-68.5 -17z
M254 879q23 -2 41.5 -9.5t35 -17t34 -17.5t38.5 -11q29 -4 39 9t10 41h39q7 -56 -15.5 -85.5t-61.5 -26.5q-34 3 -58.5 16t-46 26t-46.5 15q-28 3 -37.5 -10.5t-9.5 -43.5h-40q-4 40 5.5 66t29 38t43.5 10z" />
    <glyph glyph-name="uni0216" unicode="&#x216;" horiz-adv-x="666" 
d="M584 690v-426q0 -100 -24 -161t-78 -88.5t-145 -27.5q-93 0 -149 27.5t-81 88.5t-25 161v426h88v-426q0 -74 15.5 -117.5t51.5 -62t96 -18.5t95.5 18.5t51.5 62t16 117.5v426h88zM226 752l-43 7q-2 39 15 69t51.5 46.5t82.5 16.5q49 0 83.5 -16.5t52.5 -46.5t15 -69
l-44 -7q0 36 -27.5 55.5t-79.5 19.5q-50 0 -78 -19.5t-28 -55.5z" />
    <glyph glyph-name="uni1E7A" unicode="&#x1e7a;" horiz-adv-x="666" 
d="M584 690v-426q0 -100 -24 -161t-78 -88.5t-145 -27.5q-93 0 -149 27.5t-81 88.5t-25 161v426h88v-426q0 -74 15.5 -117.5t51.5 -62t96 -18.5t95.5 18.5t51.5 62t16 117.5v426h88zM401 978h26q21 0 21 -22v-50q0 -21 -21 -21h-26q-22 0 -22 21v50q0 22 22 22zM240 978h25
q22 0 22 -22v-50q0 -21 -22 -21h-25q-22 0 -22 21v50q0 22 22 22zM461 776h-254v57h254v-57z" />
    <glyph glyph-name="uni1E78" unicode="&#x1e78;" horiz-adv-x="666" 
d="M584 690v-426q0 -100 -24 -161t-78 -88.5t-145 -27.5q-93 0 -149 27.5t-81 88.5t-25 161v426h88v-426q0 -74 15.5 -117.5t51.5 -62t96 -18.5t95.5 18.5t51.5 62t16 117.5v426h88zM254 872q23 -2 41.5 -9.5t35 -17.5t34 -18t38.5 -11q29 -3 39 9.5t10 41.5h40
q6 -57 -16.5 -86t-61.5 -26q-34 3 -58.5 16t-46 26t-46.5 15q-28 3 -37.5 -11t-9.5 -44h-40q-4 40 5.5 66.5t29 38.5t43.5 10zM388 1044l51 -58l-133 -91l-30 35z" />
    <glyph glyph-name="uni1E8E" unicode="&#x1e8e;" horiz-adv-x="569" 
d="M557 690l-233 -456h-79l-234 456h94l145 -291q9 -19 16.5 -39t14.5 -39h7q7 19 15 39t16 38l145 292h93zM328 296v-296h-88v296h88zM299 857q26 0 26 -25v-57q0 -26 -26 -26h-27q-26 0 -26 26v57q0 25 26 25h27z" />
    <glyph glyph-name="uni1EF4" unicode="&#x1ef4;" horiz-adv-x="569" 
d="M557 690l-233 -456h-79l-234 456h94l145 -291q9 -19 16.5 -39t14.5 -39h7q7 19 15 39t16 38l145 292h93zM328 296v-296h-88v296h88zM297 -52q26 0 26 -25v-57q0 -26 -26 -26h-27q-26 0 -26 26v57q0 25 26 25h27z" />
    <glyph glyph-name="uni1EF6" unicode="&#x1ef6;" horiz-adv-x="569" 
d="M557 690l-233 -456h-79l-234 456h94l145 -291q9 -19 16.5 -39t14.5 -39h7q7 19 15 39t16 38l145 292h93zM328 296v-296h-88v296h88zM263 773q32 9 44.5 26.5t12.5 40.5q0 28 -22.5 37.5t-56.5 -0.5l-10 48q41 12 74 6t53 -28t20 -60q0 -28 -12.5 -51t-36 -39t-56.5 -23z
" />
    <glyph glyph-name="uni0232" unicode="&#x232;" horiz-adv-x="569" 
d="M557 690l-233 -456h-79l-234 456h94l145 -291q9 -19 16.5 -39t14.5 -39h7q7 19 15 39t16 38l145 292h93zM328 296v-296h-88v296h88zM425 839v-63h-278v63h278z" />
    <glyph glyph-name="uni1EF8" unicode="&#x1ef8;" horiz-adv-x="569" 
d="M557 690l-233 -456h-79l-234 456h94l145 -291q9 -19 16.5 -39t14.5 -39h7q7 19 15 39t16 38l145 292h93zM328 296v-296h-88v296h88zM205 869q23 -2 41.5 -9.5t35 -17t34 -17.5t38.5 -11q29 -4 39 9t10 41h40q6 -56 -16.5 -85.5t-61.5 -26.5q-34 3 -58.5 16t-46 26
t-46.5 15q-28 3 -37.5 -10.5t-9.5 -43.5h-40q-4 40 5.5 66t29 38t43.5 10z" />
    <glyph glyph-name="uni1E92" unicode="&#x1e92;" horiz-adv-x="566" 
d="M416 616l96 -1l-367 -541l-97 1zM519 75v-75h-471v75h471zM512 690v-75h-458v75h458zM304 -52q26 0 26 -25v-57q0 -26 -26 -26h-27q-26 0 -26 26v57q0 25 26 25h27z" />
    <glyph glyph-name="uni1EAF" unicode="&#x1eaf;" horiz-adv-x="549" 
d="M308 499q54 0 91.5 -14.5t56.5 -48.5t19 -93v-343h-67l-13 106l-6 11v226q0 45 -20.5 64.5t-78.5 19.5q-38 0 -95.5 -4t-113.5 -9l-8 63q34 6 74.5 11t82.5 8t78 3zM435 300l-1 -64l-233 -1q-35 -1 -49 -18.5t-14 -48.5v-31q0 -38 18 -55.5t58 -17.5q28 0 63.5 10.5
t71.5 32.5t66 56v-63q-11 -14 -31.5 -32.5t-49 -36t-63 -29t-74.5 -11.5q-43 0 -76 15.5t-51.5 46t-18.5 74.5v53q0 57 35.5 88.5t99.5 31.5h249zM379 705l44 -6q3 -39 -15 -68.5t-52 -46.5t-83 -17q-48 0 -82.5 17t-52 46.5t-15.5 68.5l44 6q-1 -35 27 -55t80 -20
q50 0 77.5 20t27.5 55zM345 844l46 -62l-138 -81l-27 36z" />
    <glyph glyph-name="uni1EB7" unicode="&#x1eb7;" horiz-adv-x="549" 
d="M379 703l43 -6q3 -39 -14 -68.5t-51.5 -46.5t-82.5 -17q-49 0 -83.5 17t-52 46.5t-15.5 68.5l43 6q0 -35 28 -55t80 -20q50 0 77.5 20t27.5 55zM308 499q54 0 91.5 -14.5t56.5 -48.5t19 -93v-343h-67l-13 106l-6 11v226q0 45 -20.5 64.5t-78.5 19.5q-38 0 -95.5 -4
t-113.5 -9l-8 63q34 6 74.5 11t82.5 8t78 3zM435 300l-1 -64l-233 -1q-35 -1 -49 -18.5t-14 -48.5v-31q0 -38 18 -55.5t58 -17.5q28 0 63.5 10.5t71.5 32.5t66 56v-63q-11 -14 -31.5 -32.5t-49 -36t-63 -29t-74.5 -11.5q-43 0 -76 15.5t-51.5 46t-18.5 74.5v53
q0 57 35.5 88.5t99.5 31.5h249zM278 -64q26 0 26 -25v-57q0 -26 -26 -26h-27q-26 0 -26 26v57q0 25 26 25h27z" />
    <glyph glyph-name="uni1EB1" unicode="&#x1eb1;" horiz-adv-x="549" 
d="M308 499q54 0 91.5 -14.5t56.5 -48.5t19 -93v-343h-67l-13 106l-6 11v226q0 45 -20.5 64.5t-78.5 19.5q-38 0 -95.5 -4t-113.5 -9l-8 63q34 6 74.5 11t82.5 8t78 3zM435 300l-1 -64l-233 -1q-35 -1 -49 -18.5t-14 -48.5v-31q0 -38 18 -55.5t58 -17.5q28 0 63.5 10.5
t71.5 32.5t66 56v-63q-11 -14 -31.5 -32.5t-49 -36t-63 -29t-74.5 -11.5q-43 0 -76 15.5t-51.5 46t-18.5 74.5v53q0 57 35.5 88.5t99.5 31.5h249zM168 705q0 -35 27.5 -55t77.5 -20q52 0 79.5 20t27.5 55l44 -6q3 -39 -15 -68.5t-52.5 -46.5t-83.5 -17q-48 0 -82.5 17
t-51.5 46.5t-15 68.5zM201 844l120 -107l-27 -36l-139 81z" />
    <glyph glyph-name="uni1EB3" unicode="&#x1eb3;" horiz-adv-x="549" 
d="M308 499q54 0 91.5 -14.5t56.5 -48.5t19 -93v-343h-67l-13 106l-6 11v226q0 45 -20.5 64.5t-78.5 19.5q-38 0 -95.5 -4t-113.5 -9l-8 63q34 6 74.5 11t82.5 8t78 3zM435 300l-1 -64l-233 -1q-35 -1 -49 -18.5t-14 -48.5v-31q0 -38 18 -55.5t58 -17.5q28 0 63.5 10.5
t71.5 32.5t66 56v-63q-11 -14 -31.5 -32.5t-49 -36t-63 -29t-74.5 -11.5q-43 0 -76 15.5t-51.5 46t-18.5 74.5v53q0 57 35.5 88.5t99.5 31.5h249zM379 705l44 -6q3 -39 -15 -68.5t-52 -46.5t-83 -17q-48 0 -82.5 17t-52 46.5t-15.5 68.5l44 6q-1 -35 27 -55t80 -20
q50 0 77.5 20t27.5 55zM248 729q28 8 39.5 23t11.5 35q0 21 -19.5 26.5t-51.5 -5.5l-9 43q37 12 67 9.5t48 -19.5t18 -51q0 -37 -24 -63.5t-71 -36.5z" />
    <glyph glyph-name="uni1EB5" unicode="&#x1eb5;" horiz-adv-x="549" 
d="M308 499q54 0 91.5 -14.5t56.5 -48.5t19 -93v-343h-67l-13 106l-6 11v226q0 45 -20.5 64.5t-78.5 19.5q-38 0 -95.5 -4t-113.5 -9l-8 63q34 6 74.5 11t82.5 8t78 3zM435 300l-1 -64l-233 -1q-35 -1 -49 -18.5t-14 -48.5v-31q0 -38 18 -55.5t58 -17.5q28 0 63.5 10.5
t71.5 32.5t66 56v-63q-11 -14 -31.5 -32.5t-49 -36t-63 -29t-74.5 -11.5q-43 0 -76 15.5t-51.5 46t-18.5 74.5v53q0 57 35.5 88.5t99.5 31.5h249zM379 705l44 -6q3 -39 -15 -68.5t-52 -46.5t-83 -17q-48 0 -82.5 17t-52 46.5t-15.5 68.5l44 6q-1 -35 26.5 -55t79.5 -20
q50 0 78 20t28 55zM200 840q22 -2 38 -9.5t30 -17t29 -17.5t36 -10q26 -2 36 9.5t10 39.5h37q7 -54 -15 -82t-59 -25q-24 2 -41.5 10t-32 18t-28.5 18t-31 9q-27 2 -36.5 -10.5t-9.5 -41.5h-37q-4 38 5 63t27.5 36.5t41.5 9.5z" />
    <glyph glyph-name="uni1EA5" unicode="&#x1ea5;" horiz-adv-x="549" 
d="M308 499q54 0 91.5 -14.5t56.5 -48.5t19 -93v-343h-67l-13 106l-6 11v226q0 45 -20.5 64.5t-78.5 19.5q-38 0 -95.5 -4t-113.5 -9l-8 63q34 6 74.5 11t82.5 8t78 3zM435 300l-1 -64l-233 -1q-35 -1 -49 -18.5t-14 -48.5v-31q0 -38 18 -55.5t58 -17.5q28 0 63.5 10.5
t71.5 32.5t66 56v-63q-11 -14 -31.5 -32.5t-49 -36t-63 -29t-74.5 -11.5q-43 0 -76 15.5t-51.5 46t-18.5 74.5v53q0 57 35.5 88.5t99.5 31.5h249zM243 707h61l126 -111l-28 -37l-124 85h-8l-124 -85l-30 37zM472 813l56 -54l-128 -100l-32 32z" />
    <glyph glyph-name="uni1EAD" unicode="&#x1ead;" horiz-adv-x="549" 
d="M304 716l133 -127l-30 -37l-130 97h-8l-129 -97l-29 37l131 127h62zM308 499q54 0 91.5 -14.5t56.5 -48.5t19 -93v-343h-67l-13 106l-6 11v226q0 45 -20.5 64.5t-78.5 19.5q-38 0 -95.5 -4t-113.5 -9l-8 63q34 6 74.5 11t82.5 8t78 3zM435 300l-1 -64l-233 -1
q-35 -1 -49 -18.5t-14 -48.5v-31q0 -38 18 -55.5t58 -17.5q28 0 63.5 10.5t71.5 32.5t66 56v-63q-11 -14 -31.5 -32.5t-49 -36t-63 -29t-74.5 -11.5q-43 0 -76 15.5t-51.5 46t-18.5 74.5v53q0 57 35.5 88.5t99.5 31.5h249zM278 -64q26 0 26 -25v-57q0 -26 -26 -26h-27
q-26 0 -26 26v57q0 25 26 25h27z" />
    <glyph glyph-name="uni1EA7" unicode="&#x1ea7;" horiz-adv-x="549" 
d="M308 499q54 0 91.5 -14.5t56.5 -48.5t19 -93v-343h-67l-13 106l-6 11v226q0 45 -20.5 64.5t-78.5 19.5q-38 0 -95.5 -4t-113.5 -9l-8 63q34 6 74.5 11t82.5 8t78 3zM435 300l-1 -64l-233 -1q-35 -1 -49 -18.5t-14 -48.5v-31q0 -38 18 -55.5t58 -17.5q28 0 63.5 10.5
t71.5 32.5t66 56v-63q-11 -14 -31.5 -32.5t-49 -36t-63 -29t-74.5 -11.5q-43 0 -76 15.5t-51.5 46t-18.5 74.5v53q0 57 35.5 88.5t99.5 31.5h249zM304 707l127 -111l-30 -37l-123 85h-8l-125 -85l-28 37l126 111h61zM75 813l104 -122l-32 -32l-127 100z" />
    <glyph glyph-name="uni1EA9" unicode="&#x1ea9;" horiz-adv-x="549" 
d="M308 499q54 0 91.5 -14.5t56.5 -48.5t19 -93v-343h-67l-13 106l-6 11v226q0 45 -20.5 64.5t-78.5 19.5q-38 0 -95.5 -4t-113.5 -9l-8 63q34 6 74.5 11t82.5 8t78 3zM435 300l-1 -64l-233 -1q-35 -1 -49 -18.5t-14 -48.5v-31q0 -38 18 -55.5t58 -17.5q28 0 63.5 10.5
t71.5 32.5t66 56v-63q-11 -14 -31.5 -32.5t-49 -36t-63 -29t-74.5 -11.5q-43 0 -76 15.5t-51.5 46t-18.5 74.5v53q0 57 35.5 88.5t99.5 31.5h249zM243 707h61l126 -111l-28 -37l-124 85h-8l-124 -85l-30 37zM377 707q29 9 40 24t11 35q0 21 -19.5 26t-51.5 -6l-9 44
q37 12 67 9.5t48 -20t18 -51.5q0 -36 -24 -63t-71 -36z" />
    </font>
</defs>
</svg>
